SplineFontDB: 3.2
FontName: BP-Icons
FullName: BP-Icons Regular
FamilyName: BP-Icons
Weight: Book
Version: 1.0
ItalicAngle: 0
UnderlinePosition: 0
UnderlineWidth: 0
Ascent: 1920
Descent: 128
InvalidEm: 0
sfntRevision: 0x00010000
LayerCount: 3
Layer: 0 1 "Back" 1
Layer: 1 1 "Fore" 0
Layer: 2 0 "Back 2" 1
XUID: [1021 195 -672532814 11093]
StyleMap: 0x0040
FSType: 4
OS2Version: 3
OS2_WeightWidthSlopeOnly: 0
OS2_UseTypoMetrics: 0
CreationTime: 1705937896
ModificationTime: 1733496408
PfmFamily: 81
TTFWeight: 400
TTFWidth: 5
LineGap: 0
VLineGap: 0
Panose: 0 0 0 0 0 0 0 0 0 0
OS2TypoAscent: 1920
OS2TypoAOffset: 0
OS2TypoDescent: -128
OS2TypoDOffset: 0
OS2TypoLinegap: 0
OS2WinAscent: 1920
OS2WinAOffset: 0
OS2WinDescent: 187
OS2WinDOffset: 0
HheadAscent: 1920
HheadAOffset: 0
HheadDescent: -187
HheadDOffset: 0
OS2SubXSize: 1330
OS2SubYSize: 1432
OS2SubXOff: 0
OS2SubYOff: 286
OS2SupXSize: 1330
OS2SupYSize: 1432
OS2SupXOff: 0
OS2SupYOff: 982
OS2StrikeYSize: 102
OS2StrikeYPos: 530
OS2Vendor: 'PfEd'
OS2CodePages: 00000001.00000000
OS2UnicodeRanges: 00000001.10000000.00000000.00000000
DEI: 91125
TtTable: prep
PUSHW_1
 511
SCANCTRL
PUSHB_1
 1
SCANTYPE
SVTCA[y-axis]
MPPEM
PUSHB_1
 8
LT
IF
PUSHB_2
 1
 1
INSTCTRL
EIF
PUSHB_2
 70
 6
CALL
IF
POP
PUSHB_1
 16
EIF
MPPEM
PUSHB_1
 20
GT
IF
POP
PUSHB_1
 128
EIF
SCVTCI
PUSHB_1
 6
CALL
NOT
IF
EIF
PUSHB_1
 20
CALL
EndTTInstrs
TtTable: fpgm
PUSHB_1
 0
FDEF
PUSHB_1
 0
SZP0
MPPEM
PUSHB_1
 76
LT
IF
PUSHB_1
 74
SROUND
EIF
PUSHB_1
 0
SWAP
MIAP[rnd]
RTG
PUSHB_1
 6
CALL
IF
RTDG
EIF
MPPEM
PUSHB_1
 76
LT
IF
RDTG
EIF
DUP
MDRP[rp0,rnd,grey]
PUSHB_1
 1
SZP0
MDAP[no-rnd]
RTG
ENDF
PUSHB_1
 1
FDEF
DUP
MDRP[rp0,min,white]
PUSHB_1
 12
CALL
ENDF
PUSHB_1
 2
FDEF
MPPEM
GT
IF
RCVT
SWAP
EIF
POP
ENDF
PUSHB_1
 3
FDEF
ROUND[Black]
RTG
DUP
PUSHB_1
 64
LT
IF
POP
PUSHB_1
 64
EIF
ENDF
PUSHB_1
 4
FDEF
PUSHB_1
 6
CALL
IF
POP
SWAP
POP
ROFF
IF
MDRP[rp0,min,rnd,black]
ELSE
MDRP[min,rnd,black]
EIF
ELSE
MPPEM
GT
IF
IF
MIRP[rp0,min,rnd,black]
ELSE
MIRP[min,rnd,black]
EIF
ELSE
SWAP

StartChar: uniE000
Encoding: 57344 57344 1
Width: 1902
GlyphClass: 2
Flags: W
VStem: 292 512<152.209 586> 1098 512<152.209 586> 1316 294<1350 1598.66>
LayerCount: 3
Fore
SplineSet
38 846 m 2,0,1
 16 872 16 872 42 898 c 2,2,-1
 864 1582 l 2,3,4
 900 1612 900 1612 951 1612 c 128,-1,5
 1002 1612 1002 1612 1038 1582 c 2,6,-1
 1316 1350 l 1,7,-1
 1316 1572 l 2,8,9
 1316 1588 1316 1588 1327 1599 c 128,-1,10
 1338 1610 1338 1610 1354 1610 c 2,11,-1
 1572 1610 l 2,12,13
 1588 1610 1588 1610 1599 1599 c 128,-1,14
 1610 1588 1610 1588 1610 1572 c 2,15,-1
 1610 1106 l 1,16,-1
 1860 898 l 2,17,18
 1886 872 1886 872 1864 846 c 2,19,-1
 1794 762 l 1,20,21
 1794 762 1794 762 1785 756 c 128,-1,22
 1776 750 1776 750 1770 750 c 2,23,-1
 1766 750 l 2,24,25
 1750 750 1750 750 1742 758 c 2,26,-1
 950 1418 l 1,27,-1
 160 758 l 1,28,29
 131 739 131 739 108 762 c 2,30,-1
 38 846 l 2,0,1
292 220 m 2,31,-1
 292 768 l 2,32,33
 292 770 292 770 294 774 c 2,34,-1
 950 1316 l 1,35,-1
 1608 774 l 1,36,37
 1608 774 1608 774 1610 768 c 2,38,-1
 1610 220 l 2,39,40
 1610 190 1610 190 1588 168 c 128,-1,41
 1566 146 1566 146 1536 146 c 2,42,-1
 1098 146 l 1,43,-1
 1098 586 l 1,44,-1
 804 586 l 1,45,-1
 804 146 l 1,46,-1
 366 146 l 2,47,48
 336 146 336 146 314 168 c 128,-1,49
 292 190 292 190 292 220 c 2,31,-1
EndSplineSet
Validated: 8388609
EndChar

StartChar: uniE001
Encoding: 57345 57345 2
Width: 2048
GlyphClass: 2
Flags: W
HStem: 0 21G<256 768 1280 1792>
VStem: 256 512<0 512> 1280 512<0 512>
LayerCount: 3
Fore
SplineSet
0 740 m 1,0,-1
 0 1064 l 1,1,-1
 1024 1858 l 1,2,-1
 2048 1064 l 1,3,-1
 2048 740 l 1,4,-1
 1024 1534 l 1,5,-1
 0 740 l 1,0,-1
256 0 m 1,6,-1
 256 768 l 1,7,-1
 1024 1344 l 1,8,-1
 1792 768 l 1,9,-1
 1792 0 l 1,10,-1
 1280 0 l 1,11,-1
 1280 512 l 1,12,-1
 768 512 l 1,13,-1
 768 0 l 1,14,-1
 256 0 l 1,6,-1
EndSplineSet
Validated: 1
EndChar

StartChar: uniE002
Encoding: 57346 57346 3
Width: 2048
GlyphClass: 2
Flags: W
HStem: 0 21G<256 896 1152 1792>
VStem: 1408 256<1344 1664>
LayerCount: 3
Fore
SplineSet
0 640 m 1,0,-1
 0 704 l 1,1,-1
 1024 1728 l 1,2,-1
 1408 1344 l 1,3,-1
 1408 1664 l 1,4,-1
 1664 1664 l 1,5,-1
 1664 1088 l 1,6,-1
 2048 704 l 1,7,-1
 2048 640 l 1,8,-1
 1792 640 l 1,9,-1
 1792 0 l 1,10,-1
 1152 0 l 1,11,-1
 1152 384 l 1,12,-1
 896 384 l 1,13,-1
 896 0 l 1,14,-1
 256 0 l 1,15,-1
 256 640 l 1,16,-1
 0 640 l 1,0,-1
EndSplineSet
Validated: 1
EndChar

StartChar: uniE003
Encoding: 57347 57347 4
Width: 2048
GlyphClass: 2
Flags: W
HStem: 149 155<960.95 1297.83> 923 139<968.531 1285.27> 1546 258<732.02 902.215>
VStem: 220 357<378.58 849.473> 671 148<446.534 774.196> 1438 147<503.614 765.965>
LayerCount: 3
Fore
SplineSet
1155 1186 m 5,0,1
 1065 1171 1065 1171 1021.5 1163.5 c 644,-1,2
 978 1156 978 1156 902 1120 c 4,3,4
 756 1051 756 1051 663 917.5 c 132,-1,5
 570 784 570 784 556 610 c 4,6,7
 553 582 553 582 553 556 c 4,8,9
 554 511 554 511 562 476 c 4,10,11
 574 421 574 421 576 412 c 4,12,13
 577 406 577 406 577 399 c 4,14,15
 577 396 577 396 577 392 c 4,16,17
 576 381 576 381 574 378.5 c 644,-1,18
 572 376 572 376 561 372 c 4,19,20
 551 369 551 369 543 369 c 4,21,22
 542 370 542 370 541 370 c 4,23,24
 532 370 532 370 495.5 370 c 132,-1,25
 459 370 459 370 394 370 c 4,26,27
 372 370 372 370 354 369 c 4,28,29
 317 369 317 369 294 370 c 4,30,31
 220 372 220 372 220 455 c 516,32,33
 219 550 219 550 219 639 c 4,34,35
 219 818 219 818 222 975 c 4,36,37
 222 993 222 993 234 1014 c 644,-1,38
 246 1035 246 1035 261 1046 c 516,39,40
 526 1236 526 1236 770 1399 c 516,41,42
 794 1415 794 1415 819 1415 c 4,43,44
 842 1414 842 1414 865 1400 c 4,45,46
 931 1359 931 1359 1028 1290 c 132,-1,47
 1125 1221 1125 1221 1146 1207 c 4,48,49
 1147 1206 1147 1206 1155 1186 c 5,0,1
1637 1215 m 4,50,51
 1635 1140 1635 1140 1578 1108 c 516,52,53
 1554 1095 1554 1095 1524.5 1095 c 644,-1,54
 1495 1095 1495 1095 1449.5 1124.5 c 644,-1,55
 1404 1154 1404 1154 879 1523 c 516,56,57
 847 1546 847 1546 819 1546 c 644,-1,58
 791 1546 791 1546 759 1523 c 516,59,60
 636 1435 636 1435 187 1123 c 516,61,62
 144 1093 144 1093 119.5 1093 c 644,-1,63
 95 1093 95 1093 84 1095 c 516,64,65
 36 1105 36 1105 12 1159 c 516,66,67
 0 1184 0 1184 0 1201.5 c 644,-1,68
 0 1219 0 1219 7.5 1240.5 c 644,-1,69
 15 1262 15 1262 56 1291 c 516,70,71
 591 1664 591 1664 662.5 1712.5 c 644,-1,72
 734 1761 734 1761 763 1782.5 c 644,-1,73
 792 1804 792 1804 820.5 1804 c 644,-1,74
 849 1804 849 1804 900.5 1768 c 644,-1,75
 952 1732 952 1732 1167 1582 c 644,-1,76
 1382 1432 1382 1432 1584 1288 c 516,77,78
 1606 1271 1606 1271 1620 1245 c 644,-1,79
 1634 1219 1634 1219 1637 1215 c 4,50,51
2047 224 m 4,80,81
 2048 216 2048 216 2048 209 c 516,82,83
 2048 161 2048 161 2017.5 109 c 644,-1,84
 1987 57 1987 57 1934.5 33 c 644,-1,85
 1882 9 1882 9 1824 9 c 644,-1,86
 1766 9 1766 9 1711 58 c 516,87,88
 1693 74 1693 74 1626.5 132.5 c 644,-1,89
 1560 191 1560 191 1526.5 221.5 c 644,-1,90
 1493 252 1493 252 1470 263 c 516,91,92
 1465 265 1465 265 1458 265 c 4,93,94
 1434 265 1434 265 1386 234 c 4,95,96
 1260 149 1260 149 1131 149 c 516,97,98
 1049 149 1049 149 956 187 c 644,-1,99
 863 225 863 225 792 302 c 516,100,101
 671 433 671 433 671 613 c 516,102,103
 671 741 671 741 724 838 c 516,104,105
 817 1012 817 1012 1049 1054 c 516,106,107
 1091 1062 1091 1062 1150 1062 c 644,-1,108
 1209 1062 1209 1062 1302.5 1028 c 644,-1,109
 1396 994 1396 994 1485.5 890 c 644,-1,110
 1575 786 1575 786 1582 638 c 516,111,112
 1584 609 1584 609 1584 571.5 c 644,-1,113
 1584 534 1584 534 1585 516 c 517,114,115
 1619 505 1619 505 1731 469.5 c 644,-1,116
 1843 434 1843 434 1918 408 c 516,117,118
 2033 367 2033 367 2047 224 c 4,80,81
1128.5 304 m 644,-1,120
 1262 304 1262 304 1349.5 388 c 644,-1,121
 1437 472 1437 472 1438 601 c 517,122,123
 1438 601 1438 601 1438 603 c 516,124,125
 1438 689 1438 689 1397 763 c 516,126,127
 1355 837 1355 837 1283.5 879.5 c 644,-1,128
 1212 922 1212 922 1130 923 c 517,129,130
 1130 923 1130 923 1127 923 c 516,131,132
 998 922 998 922 909 831.5 c 644,-1,133
 820 741 820 741 819 610 c 517,134,135
 819 610 819 610 819 609 c 516,136,137
 819 478 819 478 907 391 c 644,-1,119
 995 304 995 304 1128.5 304 c 644,-1,120
EndSplineSet
Validated: 1
EndChar

StartChar: uniE01B
Encoding: 57371 57371 5
Width: 1902
GlyphClass: 2
Flags: W
LayerCount: 3
Fore
SplineSet
356 69 m 128,-1,1
 344 86 344 86 344 97 c 128,-1,2
 344 108 344 108 346 132 c 2,3,-1
 444 702 l 1,4,-1
 28 1108 l 2,5,6
 0 1136 0 1136 0 1162 c 0,7,8
 0 1208 0 1208 64 1214 c 2,9,-1
 638 1298 l 1,10,-1
 894 1818 l 2,11,12
 918 1866 918 1866 944 1866 c 0,13,14
 988 1866 988 1866 1006 1818 c 1,15,-1
 1264 1298 l 1,16,-1
 1838 1214 l 2,17,18
 1858 1212 1858 1212 1880 1200 c 128,-1,19
 1902 1188 1902 1188 1902 1167 c 0,20,21
 1902 1133 1902 1133 1872 1108 c 2,22,-1
 1458 702 l 1,23,-1
 1556 132 l 1,24,25
 1556 132 1556 132 1556 108 c 0,26,27
 1556 52 1556 52 1510 52 c 0,28,29
 1487 52 1487 52 1464 66 c 2,30,-1
 950 334 l 1,31,-1
 438 66 l 2,32,33
 410 52 410 52 389 52 c 128,-1,0
 368 52 368 52 356 69 c 128,-1,1
EndSplineSet
Validated: 1
EndChar

StartChar: uniE01C
Encoding: 57372 57372 6
Width: 1902
GlyphClass: 2
Flags: W
LayerCount: 3
Fore
SplineSet
356 69 m 128,-1,1
 344 86 344 86 344 97 c 128,-1,2
 344 108 344 108 346 132 c 2,3,-1
 444 702 l 1,4,-1
 28 1108 l 2,5,6
 0 1136 0 1136 0 1162 c 0,7,8
 0 1208 0 1208 64 1214 c 2,9,-1
 638 1298 l 1,10,-1
 894 1818 l 2,11,12
 918 1866 918 1866 944 1866 c 0,13,14
 988 1866 988 1866 1006 1818 c 1,15,-1
 1264 1298 l 1,16,-1
 1838 1214 l 2,17,18
 1858 1212 1858 1212 1880 1200 c 128,-1,19
 1902 1188 1902 1188 1902 1167 c 0,20,21
 1902 1133 1902 1133 1872 1108 c 2,22,-1
 1458 702 l 1,23,-1
 1556 132 l 1,24,25
 1556 132 1556 132 1556 108 c 0,26,27
 1556 52 1556 52 1510 52 c 0,28,29
 1487 52 1487 52 1464 66 c 2,30,-1
 950 334 l 1,31,-1
 438 66 l 2,32,33
 410 52 410 52 389 52 c 128,-1,0
 368 52 368 52 356 69 c 128,-1,1
252 1094 m 1,34,-1
 602 754 l 1,35,-1
 518 274 l 1,36,-1
 950 500 l 1,37,-1
 1382 274 l 1,38,-1
 1300 754 l 1,39,-1
 1650 1094 l 1,40,-1
 1166 1164 l 1,41,-1
 950 1602 l 1,42,-1
 734 1164 l 1,43,-1
 252 1094 l 1,34,-1
EndSplineSet
Validated: 1
EndChar

StartChar: uniE01D
Encoding: 57373 57373 7
Width: 1902
GlyphClass: 2
Flags: W
LayerCount: 3
Fore
SplineSet
0 1162 m 0,0,1
 0 1207 0 1207 64 1214 c 2,2,-1
 638 1298 l 1,3,-1
 894 1818 l 2,4,5
 918 1866 918 1866 950 1866 c 128,-1,6
 982 1866 982 1866 1006 1818 c 2,7,-1
 1264 1298 l 1,8,-1
 1838 1214 l 2,9,10
 1902 1207 1902 1207 1902 1162 c 0,11,12
 1902 1136 1902 1136 1872 1108 c 2,13,-1
 1458 702 l 1,14,-1
 1556 132 l 2,15,16
 1562 94 1562 94 1549 73 c 128,-1,17
 1536 52 1536 52 1518 52 c 0,18,19
 1485 52 1485 52 1464 66 c 2,20,-1
 950 334 l 1,21,-1
 438 66 l 2,22,23
 414 52 414 52 390 52 c 128,-1,24
 366 52 366 52 353 73 c 128,-1,25
 340 94 340 94 346 132 c 2,26,-1
 444 702 l 1,27,-1
 28 1108 l 2,28,29
 0 1136 0 1136 0 1162 c 0,0,1
950 500 m 1,30,-1
 1018 466 l 1,31,-1
 1382 274 l 1,32,-1
 1314 678 l 1,33,-1
 1300 754 l 1,34,-1
 1356 808 l 1,35,-1
 1650 1094 l 1,36,-1
 1166 1164 l 1,37,-1
 1132 1234 l 1,38,-1
 950 1602 l 1,39,-1
 950 500 l 1,30,-1
EndSplineSet
Validated: 1
EndChar

StartChar: uniE01E
Encoding: 57374 57374 8
Width: 950
GlyphClass: 2
Flags: W
LayerCount: 3
Fore
SplineSet
356 69 m 128,-1,1
 344 86 344 86 344 97 c 128,-1,2
 344 108 344 108 346 132 c 2,3,-1
 444 702 l 1,4,-1
 28 1108 l 2,5,6
 0 1136 0 1136 0 1162 c 0,7,8
 0 1208 0 1208 64 1214 c 2,9,-1
 638 1298 l 1,10,-1
 894 1818 l 2,11,12
 918 1866 918 1866 950 1866 c 1,13,-1
 950 334 l 1,14,-1
 438 66 l 2,15,16
 410 52 410 52 389 52 c 128,-1,0
 368 52 368 52 356 69 c 128,-1,1
EndSplineSet
Validated: 1
EndChar

StartChar: uniE027
Encoding: 57383 57383 9
Width: 1610
GlyphClass: 2
Flags: W
HStem: 146 378<977 1279.25>
VStem: 0 378<1123 1432>
LayerCount: 3
Fore
SplineSet
26 1215 m 0,0,1
 0 1288 0 1288 0 1357 c 0,2,3
 0 1507 0 1507 109 1661 c 0,4,5
 138 1702 138 1702 173 1717 c 0,6,7
 264 1756 264 1756 338 1756 c 0,8,9
 350 1756 350 1756 365 1751 c 0,10,11
 382 1745 382 1745 416 1681 c 0,12,13
 518 1485 518 1485 552 1439.5 c 128,-1,14
 586 1394 586 1394 586 1368 c 0,15,16
 586 1316 586 1316 482 1249 c 128,-1,17
 378 1182 378 1182 378 1134 c 0,18,19
 378 1112 378 1112 394 1085 c 128,-1,20
 410 1058 410 1058 422 1036 c 0,21,22
 510 880 510 880 622 768 c 128,-1,23
 734 656 734 656 890 570 c 0,24,25
 910 558 910 558 938 541 c 128,-1,26
 966 524 966 524 988 524 c 0,27,28
 1034 524 1034 524 1102 628 c 128,-1,29
 1170 732 1170 732 1222 732 c 0,30,31
 1248 732 1248 732 1275 712 c 128,-1,32
 1302 692 1302 692 1337 671 c 0,33,34
 1414 625 1414 625 1568 543 c 0,35,36
 1600 526 1600 526 1604 514 c 0,37,38
 1610 496 1610 496 1610 475 c 128,-1,39
 1610 454 1610 454 1598 404 c 128,-1,40
 1586 354 1586 354 1571 319 c 128,-1,41
 1556 284 1556 284 1514 255 c 128,-1,42
 1472 226 1472 226 1428 202 c 0,43,44
 1325 146 1325 146 1233.5 146 c 128,-1,45
 1142 146 1142 146 1069 172 c 128,-1,46
 996 198 996 198 933 221 c 0,47,48
 807 267 807 267 728 317 c 0,49,50
 577 412 577 412 420 567 c 0,51,52
 209 776 209 776 121 966 c 0,53,54
 93 1027 93 1027 26 1215 c 0,0,1
EndSplineSet
Validated: 1
EndChar

StartChar: uniE028
Encoding: 57384 57384 10
Width: 878
GlyphClass: 2
Flags: W
HStem: -2 70<360.065 517.935> 296 67<360.065 517.935> 1460 138<303.005 574.995> 1643 185<303.005 574.995>
VStem: -110 138<376.923 1460> 553 435<101.519 271.795> 850 138<376.923 1460>
LayerCount: 3
Fore
SplineSet
-110 180 m 6,0,-1
 -110 1643 l 6,1,2
 -110 1718 -110 1718 -56 1773 c 132,-1,3
 -2 1828 -2 1828 73 1828 c 6,4,-1
 805 1828 l 6,5,6
 880 1828 880 1828 934 1773 c 132,-1,7
 988 1718 988 1718 988 1643 c 6,8,9
 988 1642 988 1642 988 180 c 6,10,11
 988 105 988 105 934 51.5 c 132,-1,12
 880 -2 880 -2 805 -2 c 6,13,-1
 73 -2 l 6,14,15
 -2 -2 -2 -2 -56 51.5 c 132,-1,16
 -110 105 -110 105 -110 180 c 6,0,-1
28 410 m 6,17,18
 28 390 28 390 41.5 376.5 c 132,-1,19
 55 363 55 363 73 363 c 6,20,-1
 805 363 l 6,21,22
 823 363 823 363 836.5 376.5 c 132,-1,23
 850 390 850 390 850 410 c 6,24,-1
 850 1416 l 6,25,26
 850 1434 850 1434 836.5 1447 c 132,-1,27
 823 1460 823 1460 805 1460 c 6,28,-1
 73 1460 l 6,29,30
 56 1460 56 1460 42 1446 c 4,31,32
 28 1434 28 1434 28 1416 c 6,33,-1
 28 410 l 6,17,18
325 1643 m 6,34,35
 303 1642 303 1642 303 1620 c 260,36,37
 303 1598 303 1598 325 1598 c 6,38,-1
 553 1598 l 6,39,40
 575 1598 575 1598 575 1620.5 c 132,-1,41
 575 1643 575 1643 553 1643 c 6,42,-1
 325 1643 l 6,34,35
325 180 m 260,43,44
 325 132 325 132 359 100 c 132,-1,45
 393 68 393 68 439 68 c 132,-1,46
 485 68 485 68 519 100.5 c 132,-1,47
 553 133 553 133 553 180.5 c 132,-1,48
 553 228 553 228 519 262 c 132,-1,49
 485 296 485 296 439 296 c 132,-1,50
 393 296 393 296 359 262 c 132,-1,51
 325 228 325 228 325 180 c 260,43,44
EndSplineSet
Validated: 8388609
EndChar

StartChar: uniE029
Encoding: 57385 57385 11
Width: 2048
GlyphClass: 2
Flags: W
HStem: 86 212<855.713 1192.29> 470 340<910.328 1137.67> 982 212<896.292 1151.71> 1578 342<540.877 1507.12>
VStem: 0 512<1257.78 1519.98> 256 214<-96.0281 86> 682 214<1194 1376.03> 854 340<526.328 753.672> 1152 214<1194 1376.03> 1536 512<1257.78 1519.51> 1578 214<-96.0281 86>
LayerCount: 3
Fore
SplineSet
1624 1230 m 128,-1,1
 1622 1230 1622 1230 1620 1232 c 0,2,3
 1584 1232 1584 1232 1560 1257 c 128,-1,4
 1536 1282 1536 1282 1536 1316 c 2,5,6
 1536 1316 1536 1316 1536 1484 c 2,7,8
 1536 1524 1536 1524 1508 1551 c 128,-1,9
 1480 1578 1480 1578 1442 1578 c 2,10,11
 1442 1578 1442 1578 606 1578 c 2,12,13
 568 1578 568 1578 540 1551 c 128,-1,14
 512 1524 512 1524 512 1484 c 2,15,16
 512 1484 512 1484 512 1316 c 2,17,18
 512 1282 512 1282 488 1257 c 128,-1,19
 464 1232 464 1232 428 1232 c 0,20,21
 426 1230 426 1230 424 1230 c 128,-1,22
 422 1230 422 1230 260 1216 c 128,-1,23
 98 1202 98 1202 74 1202 c 128,-1,24
 50 1202 50 1202 25 1227 c 128,-1,25
 0 1252 0 1252 0 1288 c 0,26,27
 0 1292 0 1292 1 1299 c 256,28,29
 2 1306 2 1306 6 1351 c 128,-1,30
 10 1396 10 1396 44 1520 c 128,-1,31
 78 1644 78 1644 160 1724 c 0,32,33
 210 1774 210 1774 300 1810 c 0,34,35
 575 1920 575 1920 1024 1920 c 0,36,37
 1318 1920 1318 1920 1543 1871 c 0,38,39
 1796 1816 1796 1816 1888 1724 c 0,40,41
 1970 1644 1970 1644 2009 1502 c 128,-1,42
 2048 1360 2048 1360 2048 1288 c 0,43,44
 2048 1252 2048 1252 2023 1227 c 128,-1,45
 1998 1202 1998 1202 1974 1202 c 128,-1,46
 1950 1202 1950 1202 1788 1216 c 128,-1,0
 1626 1230 1626 1230 1624 1230 c 128,-1,1
42 256 m 2,47,48
 42 256 42 256 42 428 c 2,49,50
 42 514 42 514 108 580 c 2,51,52
 108 580 108 580 682 1194 c 1,53,-1
 682 1302 l 2,54,55
 682 1346 682 1346 714 1377 c 128,-1,56
 746 1408 746 1408 790 1408 c 256,57,58
 834 1408 834 1408 865 1377 c 128,-1,59
 896 1346 896 1346 896 1302 c 2,60,61
 896 1302 896 1302 896 1194 c 1,62,-1
 1152 1194 l 1,63,-1
 1152 1302 l 2,64,65
 1152 1346 1152 1346 1183 1377 c 128,-1,66
 1214 1408 1214 1408 1258 1408 c 256,67,68
 1302 1408 1302 1408 1334 1377 c 128,-1,69
 1366 1346 1366 1346 1366 1302 c 2,70,71
 1366 1302 1366 1302 1366 1194 c 1,72,-1
 1940 580 l 2,73,74
 2006 514 2006 514 2006 428 c 2,75,76
 2006 428 2006 428 2006 256 c 2,77,78
 2006 186 2006 186 1956 136 c 128,-1,79
 1906 86 1906 86 1834 86 c 2,80,81
 1834 86 1834 86 1792 86 c 1,82,-1
 1792 -22 l 2,83,84
 1792 -66 1792 -66 1761 -97 c 128,-1,85
 1730 -128 1730 -128 1686 -128 c 256,86,87
 1642 -128 1642 -128 1610 -97 c 128,-1,88
 1578 -66 1578 -66 1578 -22 c 2,89,90
 1578 -22 1578 -22 1578 86 c 1,91,-1
 470 86 l 1,92,-1
 470 -22 l 2,93,94
 470 -66 470 -66 438 -97 c 128,-1,95
 406 -128 406 -128 362 -128 c 256,96,97
 318 -128 318 -128 287 -97 c 128,-1,98
 256 -66 256 -66 256 -22 c 2,99,100
 256 -22 256 -22 256 86 c 1,101,-1
 214 86 l 2,102,103
 142 86 142 86 92 136 c 128,-1,104
 42 186 42 186 42 256 c 2,47,48
682 640 m 256,105,106
 682 498 682 498 782 398 c 128,-1,107
 882 298 882 298 1024 298 c 256,108,109
 1166 298 1166 298 1266 398 c 128,-1,110
 1366 498 1366 498 1366 640 c 256,111,112
 1366 782 1366 782 1266 882 c 128,-1,113
 1166 982 1166 982 1024 982 c 128,-1,114
 882 982 882 982 782 882 c 128,-1,115
 682 782 682 782 682 640 c 256,105,106
854 640 m 256,116,117
 854 710 854 710 904 760 c 128,-1,118
 954 810 954 810 1024 810 c 128,-1,119
 1094 810 1094 810 1144 760 c 128,-1,120
 1194 710 1194 710 1194 640 c 256,121,122
 1194 570 1194 570 1144 520 c 128,-1,123
 1094 470 1094 470 1024 470 c 256,124,125
 954 470 954 470 904 520 c 128,-1,126
 854 570 854 570 854 640 c 256,116,117
EndSplineSet
Validated: 8388609
EndChar

StartChar: uniE042
Encoding: 57410 57410 12
Width: 2048
GlyphClass: 2
Flags: W
HStem: 0 438<856.624 1191.38>
LayerCount: 3
Fore
SplineSet
0 182 m 2,0,-1
 0 1090 l 1,1,2
 52 1034 52 1034 119 988 c 128,-1,3
 186 942 186 942 258 894 c 0,4,5
 500 732 500 732 628 638 c 128,-1,6
 756 544 756 544 843 491 c 128,-1,7
 930 438 930 438 1022 438 c 2,8,-1
 1026 438 l 2,9,10
 1118 438 1118 438 1205 491 c 128,-1,11
 1292 544 1292 544 1363 596 c 128,-1,12
 1434 648 1434 648 1505 697 c 128,-1,13
 1576 746 1576 746 1647 796 c 128,-1,14
 1718 846 1718 846 1790 894 c 2,15,16
 1790 894 1790 894 1934 990 c 1,17,18
 2000 1039 2000 1039 2048 1090 c 1,19,-1
 2048 182 l 2,20,21
 2048 108 2048 108 1994 54 c 128,-1,22
 1940 0 1940 0 1866 0 c 2,23,-1
 182 0 l 2,24,25
 108 0 108 0 54 54 c 128,-1,26
 0 108 0 108 0 182 c 2,0,-1
68 1239 m 128,-1,28
 0 1324 0 1324 0 1405 c 128,-1,29
 0 1486 0 1486 46 1548 c 128,-1,30
 92 1610 92 1610 182 1610 c 2,31,-1
 1866 1610 l 2,32,33
 1940 1610 1940 1610 1994 1556 c 128,-1,34
 2048 1502 2048 1502 2048 1416 c 128,-1,35
 2048 1330 2048 1330 1988 1248 c 128,-1,36
 1928 1166 1928 1166 1857 1116 c 128,-1,37
 1786 1066 1786 1066 1719 1020 c 2,38,39
 1719 1020 1719 1020 1618.5 951 c 128,-1,40
 1518 882 1518 882 1451 835 c 128,-1,41
 1384 788 1384 788 1323 746 c 128,-1,42
 1262 704 1262 704 1178 645 c 128,-1,43
 1094 586 1094 586 1026 586 c 2,44,-1
 1022 586 l 2,45,46
 954 586 954 586 870 645 c 128,-1,47
 786 704 786 704 725 746 c 128,-1,48
 664 788 664 788 597 835 c 128,-1,49
 530 882 530 882 463 928 c 128,-1,50
 396 974 396 974 329 1020 c 128,-1,51
 262 1066 262 1066 199 1110 c 128,-1,27
 136 1154 136 1154 68 1239 c 128,-1,28
EndSplineSet
Validated: 1
EndChar

StartChar: uniE046
Encoding: 57414 57414 13
Width: 2050
GlyphClass: 2
Flags: W
LayerCount: 3
Fore
SplineSet
39 682 m 6,0,1
 -4 699 -4 699 -6 745 c 260,2,3
 -8 791 -8 791 29 812 c 6,4,-1
 1931 1910 l 6,5,6
 1951 1920 1951 1920 1965 1920 c 4,7,8
 2016 1920 2016 1920 2035 1875 c 4,9,10
 2043 1856 2043 1856 2039 1834 c 6,11,-1
 1747 78 l 6,12,13
 1743 46 1743 46 1711 28 c 4,14,15
 1685 13 1685 13 1672 17 c 4,16,17
 1663 20 1663 20 1647 24 c 6,18,-1
 1131 236 l 5,19,-1
 853 -102 l 6,20,21
 831 -128 831 -128 797 -128 c 4,22,23
 759 -128 759 -128 742 -103 c 132,-1,24
 725 -78 725 -78 725 -56 c 6,25,-1
 725 344 l 5,26,-1
 1711 1554 l 517,27,-1
 491 496 l 517,28,-1
 39 682 l 6,0,1
EndSplineSet
Validated: 33
EndChar

StartChar: uniE04E
Encoding: 57422 57422 14
Width: 2048
GlyphClass: 2
Flags: W
HStem: 146 146<816.864 1351.34> 1462 148<690.855 1357.49>
VStem: 0 146<697.245 1058.99> 1902 146<695.51 1059.61>
LayerCount: 3
Fore
SplineSet
1024 146 m 0,0,1
 958 146 958 146 858 156 c 1,2,3
 633 -45 633 -45 332 -122 c 0,4,5
 274 -138 274 -138 202 -146 c 1,6,-1
 196 -146 l 2,7,8
 180 -146 180 -146 166 -134 c 128,-1,9
 152 -122 152 -122 148 -101 c 128,-1,10
 144 -80 144 -80 155 -65 c 128,-1,11
 166 -50 166 -50 199 -12 c 128,-1,12
 232 26 232 26 289 94 c 128,-1,13
 346 162 346 162 386 306 c 1,14,15
 209 407 209 407 105 555 c 0,16,17
 0 705 0 705 0 867.5 c 128,-1,18
 0 1030 0 1030 80 1163 c 0,19,20
 243 1434 243 1434 626 1552 c 0,21,22
 812 1610 812 1610 1024 1610 c 128,-1,23
 1236 1610 1236 1610 1423 1552 c 0,24,25
 1806 1433 1806 1433 1968 1162 c 0,26,27
 2048 1030 2048 1030 2048 878 c 128,-1,28
 2048 726 2048 726 1968 593 c 0,29,30
 1805 322 1805 322 1422 204 c 0,31,32
 1236 146 1236 146 1024 146 c 0,0,1
686 1416 m 0,33,34
 359 1322 359 1322 216 1103 c 0,35,36
 146 996 146 996 146 873 c 128,-1,37
 146 750 146 750 228 634 c 128,-1,38
 310 518 310 518 458 434 c 2,39,-1
 558 376 l 1,40,-1
 526 266 l 2,41,42
 496 153 496 153 446 70 c 1,43,44
 614 139 614 139 762 266 c 2,45,-1
 810 308 l 1,46,-1
 876 302 l 2,47,48
 966 292 966 292 1024 292 c 0,49,50
 1202 292 1202 292 1362 339 c 0,51,52
 1689 435 1689 435 1832 652 c 0,53,54
 1902 758 1902 758 1902 877 c 128,-1,55
 1902 996 1902 996 1832 1103 c 0,56,57
 1689 1322 1689 1322 1362 1416 c 0,58,59
 1202 1462 1202 1462 1024 1462 c 128,-1,60
 846 1462 846 1462 686 1416 c 0,33,34
EndSplineSet
Validated: 1
EndChar

StartChar: uniE04F
Encoding: 57423 57423 15
Width: 2048
GlyphClass: 2
Flags: W
HStem: 146 1464<861.117 1375.09>
VStem: 0 2048<664.298 1090.46>
LayerCount: 3
Fore
SplineSet
1024 146 m 0,0,1
 958 146 958 146 858 156 c 1,2,3
 633 -45 633 -45 332 -122 c 0,4,5
 274 -138 274 -138 202 -146 c 0,6,7
 184 -148 184 -148 168 -136 c 128,-1,8
 152 -124 152 -124 148 -102 c 128,-1,9
 144 -80 144 -80 155 -65 c 128,-1,10
 166 -50 166 -50 199 -12 c 128,-1,11
 232 26 232 26 289 94 c 128,-1,12
 346 162 346 162 386 306 c 1,13,14
 209 407 209 407 105 555 c 0,15,16
 0 705 0 705 0 866.5 c 128,-1,17
 0 1028 0 1028 80 1162 c 0,18,19
 242 1434 242 1434 626 1552 c 0,20,21
 812 1610 812 1610 1024 1610 c 256,22,23
 1236 1610 1236 1610 1423 1552 c 0,24,25
 1806 1433 1806 1433 1968 1162 c 0,26,27
 2048 1030 2048 1030 2048 878 c 128,-1,28
 2048 726 2048 726 1968 593 c 0,29,30
 1805 322 1805 322 1422 204 c 0,31,32
 1236 146 1236 146 1024 146 c 0,0,1
EndSplineSet
Validated: 1
EndChar

StartChar: uniE06D
Encoding: 57453 57453 16
Width: 2048
GlyphClass: 2
Flags: W
HStem: 1408 192<674.899 864 1001.28 1046.72 1184 1373.1> 1664 128<1001.28 1046.72>
VStem: 416 192<1383.19 1497.84> 864 128<1609.28 1654.72> 1056 128<1609.28 1654.72> 1440 192<1382.16 1496.81>
LayerCount: 3
Fore
SplineSet
416 64 m 2,0,-1
 416 1408 l 2,1,2
 416 1462 416 1462 453 1499 c 128,-1,3
 490 1536 490 1536 544 1536 c 2,4,-1
 608 1536 l 1,5,-1
 608 1472 l 2,6,7
 608 1420 608 1420 645 1382 c 128,-1,8
 682 1344 682 1344 736 1344 c 2,9,-1
 1312 1344 l 2,10,11
 1364 1344 1364 1344 1402 1381 c 128,-1,12
 1440 1418 1440 1418 1440 1472 c 2,13,-1
 1440 1536 l 1,14,-1
 1504 1536 l 2,15,16
 1558 1536 1558 1536 1595 1498 c 128,-1,17
 1632 1460 1632 1460 1632 1408 c 2,18,-1
 1632 64 l 2,19,20
 1632 10 1632 10 1595 -27 c 128,-1,21
 1558 -64 1558 -64 1504 -64 c 2,22,-1
 544 -64 l 2,23,24
 490 -64 490 -64 453 -26 c 128,-1,25
 416 12 416 12 416 64 c 2,0,-1
672 1472 m 2,26,-1
 672 1536 l 2,27,28
 672 1562 672 1562 691 1581 c 128,-1,29
 710 1600 710 1600 736 1600 c 2,30,-1
 864 1600 l 1,31,-1
 864 1664 l 2,32,33
 864 1716 864 1716 902 1754 c 128,-1,34
 940 1792 940 1792 992 1792 c 2,35,-1
 1056 1792 l 2,36,37
 1110 1792 1110 1792 1147 1755 c 128,-1,38
 1184 1718 1184 1718 1184 1664 c 2,39,-1
 1184 1600 l 1,40,-1
 1312 1600 l 2,41,42
 1338 1600 1338 1600 1357 1581 c 128,-1,43
 1376 1562 1376 1562 1376 1536 c 2,44,-1
 1376 1472 l 2,45,46
 1376 1446 1376 1446 1357 1427 c 128,-1,47
 1338 1408 1338 1408 1312 1408 c 2,48,-1
 736 1408 l 2,49,50
 710 1408 710 1408 691 1427 c 128,-1,51
 672 1446 672 1446 672 1472 c 2,26,-1
992 1632 m 256,52,53
 992 1618 992 1618 1001 1609 c 128,-1,54
 1010 1600 1010 1600 1024 1600 c 128,-1,55
 1038 1600 1038 1600 1047 1609 c 128,-1,56
 1056 1618 1056 1618 1056 1632 c 256,57,58
 1056 1646 1056 1646 1047 1655 c 128,-1,59
 1038 1664 1038 1664 1024 1664 c 256,60,61
 1010 1664 1010 1664 1001 1655 c 128,-1,62
 992 1646 992 1646 992 1632 c 256,52,53
EndSplineSet
Validated: 1
EndChar

StartChar: uniE077
Encoding: 57463 57463 17
Width: 2048
GlyphClass: 2
Flags: W
HStem: -64 128<320 1728> 192 192<448 640 768 960 1088 1280 1408 1600> 512 192<448 640 768 960 1088 1280 1408 1600> 832 192<448 640 768 960 1088 1280 1408 1600> 1152 448<320 448 832 1216 1600 1728> 1152 192<516.537 763.463 1284.54 1531.46> 1408 384<550.16 725.84 1318.16 1493.84>
VStem: 192 128<64 1152> 448 192<192 384 512 704 832 1024> 512 252<1446.16 1753.84> 768 192<192 384 512 704 832 1024> 832 384<1412.54 1600> 1088 192<192 384 512 704 832 1024> 1280 252<1446.16 1753.84> 1408 192<192 384 512 704 832 1024> 1728 128<64 1152>
LayerCount: 3
Fore
SplineSet
192 64 m 2,0,-1
 192 1472 l 2,1,2
 192 1526 192 1526 230 1563 c 128,-1,3
 268 1600 268 1600 320 1600 c 2,4,-1
 448 1600 l 1,5,-1
 448 1536 l 2,6,7
 448 1456 448 1456 504 1400 c 128,-1,8
 560 1344 560 1344 640 1344 c 256,9,10
 720 1344 720 1344 776 1400 c 128,-1,11
 832 1456 832 1456 832 1536 c 2,12,-1
 832 1600 l 1,13,-1
 1216 1600 l 1,14,-1
 1216 1536 l 2,15,16
 1216 1456 1216 1456 1272 1400 c 128,-1,17
 1328 1344 1328 1344 1408 1344 c 256,18,19
 1488 1344 1488 1344 1544 1400 c 128,-1,20
 1600 1456 1600 1456 1600 1536 c 2,21,-1
 1600 1600 l 1,22,-1
 1728 1600 l 2,23,24
 1780 1600 1780 1600 1818 1563 c 128,-1,25
 1856 1526 1856 1526 1856 1472 c 2,26,-1
 1856 64 l 2,27,28
 1856 12 1856 12 1818 -26 c 128,-1,29
 1780 -64 1780 -64 1728 -64 c 2,30,-1
 320 -64 l 2,31,32
 268 -64 268 -64 230 -26 c 128,-1,33
 192 12 192 12 192 64 c 2,0,-1
320 64 m 1,34,-1
 1728 64 l 1,35,-1
 1728 1152 l 1,36,-1
 320 1152 l 1,37,-1
 320 64 l 1,34,-1
448 192 m 1,38,-1
 448 384 l 1,39,-1
 640 384 l 1,40,-1
 640 192 l 1,41,-1
 448 192 l 1,38,-1
448 512 m 1,42,-1
 448 704 l 1,43,-1
 640 704 l 1,44,-1
 640 512 l 1,45,-1
 448 512 l 1,42,-1
448 832 m 1,46,-1
 448 1024 l 1,47,-1
 640 1024 l 1,48,-1
 640 832 l 1,49,-1
 448 832 l 1,46,-1
512 1534 m 2,50,-1
 512 1666 l 2,51,52
 512 1718 512 1718 549 1755 c 128,-1,53
 586 1792 586 1792 638 1792 c 256,54,55
 690 1792 690 1792 727 1755 c 128,-1,56
 764 1718 764 1718 764 1666 c 2,57,-1
 764 1534 l 2,58,59
 764 1482 764 1482 727 1445 c 128,-1,60
 690 1408 690 1408 638 1408 c 256,61,62
 586 1408 586 1408 549 1445 c 128,-1,63
 512 1482 512 1482 512 1534 c 2,50,-1
768 192 m 1,64,-1
 768 384 l 1,65,-1
 960 384 l 1,66,-1
 960 192 l 1,67,-1
 768 192 l 1,64,-1
768 512 m 1,68,-1
 768 704 l 1,69,-1
 960 704 l 1,70,-1
 960 512 l 1,71,-1
 768 512 l 1,68,-1
768 832 m 1,72,-1
 768 1024 l 1,73,-1
 960 1024 l 1,74,-1
 960 832 l 1,75,-1
 768 832 l 1,72,-1
1088 192 m 1,76,-1
 1088 384 l 1,77,-1
 1280 384 l 1,78,-1
 1280 192 l 1,79,-1
 1088 192 l 1,76,-1
1088 512 m 1,80,-1
 1088 704 l 1,81,-1
 1280 704 l 1,82,-1
 1280 512 l 1,83,-1
 1088 512 l 1,80,-1
1088 832 m 1,84,-1
 1088 1024 l 1,85,-1
 1280 1024 l 1,86,-1
 1280 832 l 1,87,-1
 1088 832 l 1,84,-1
1280 1534 m 2,89,-1
 1280 1666 l 2,90,91
 1280 1718 1280 1718 1317 1755 c 128,-1,92
 1354 1792 1354 1792 1406 1792 c 256,93,94
 1458 1792 1458 1792 1495 1755 c 128,-1,95
 1532 1718 1532 1718 1532 1666 c 2,96,-1
 1532 1534 l 2,97,98
 1532 1482 1532 1482 1495 1445 c 128,-1,99
 1458 1408 1458 1408 1406 1408 c 256,100,101
 1354 1408 1354 1408 1317 1445 c 128,-1,88
 1280 1482 1280 1482 1280 1534 c 2,89,-1
1408 192 m 1,102,-1
 1408 384 l 1,103,-1
 1600 384 l 1,104,-1
 1600 192 l 1,105,-1
 1408 192 l 1,102,-1
1408 512 m 1,106,-1
 1408 704 l 1,107,-1
 1600 704 l 1,108,-1
 1600 512 l 1,109,-1
 1408 512 l 1,106,-1
1408 832 m 1,110,-1
 1408 1024 l 1,111,-1
 1600 1024 l 1,112,-1
 1600 832 l 1,113,-1
 1408 832 l 1,110,-1
EndSplineSet
Validated: 8388609
EndChar

StartChar: uniE078
Encoding: 57464 57464 18
Width: 2048
GlyphClass: 2
Flags: W
HStem: -72 394<1473.67 1769.33> 300 100<119.575 1010> 542 210<303 511 774 979> 977 209<302 515 773 977 1241 1449> 1316 109<106 1650> 1688 93<117.846 296 520 1232 1457 1635.25>
VStem: 0 101<418.06 1316 1425 1668.2> 303 208<542 752 977 1186> 356 102<1597.41 1870.47> 774 205<543 754 977 1188> 1082 390<324.605 611.149> 1241 208<977 1186> 1293 102<1622.67 1870.72> 1597 451<446 611.148> 1652 100<952 1316 1425 1668.05>
LayerCount: 3
Fore
SplineSet
1650 1425 m 1,0,1
 1650 1425 1650 1425 1651 1488 c 0,2,3
 1653 1584 1653 1584 1649 1612 c 128,-1,4
 1645 1640 1645 1640 1622.5 1657.5 c 128,-1,5
 1600 1675 1600 1675 1581 1680 c 128,-1,6
 1562 1685 1562 1685 1543 1686 c 128,-1,7
 1524 1687 1524 1687 1497 1685 c 128,-1,8
 1470 1683 1470 1683 1457 1683 c 1,9,-1
 1457 1783 l 1,10,11
 1473 1783 1473 1783 1506 1784 c 0,12,13
 1569 1786 1569 1786 1618.5 1781.5 c 128,-1,14
 1668 1777 1668 1777 1708.5 1736 c 128,-1,15
 1749 1695 1749 1695 1750 1640 c 0,16,17
 1751 1538 1751 1538 1751 1416.5 c 128,-1,18
 1751 1295 1751 1295 1751.5 1219 c 128,-1,19
 1752 1143 1752 1143 1751 1073 c 2,20,-1
 1751 951 l 1,21,-1
 1653 952 l 1,22,23
 1652 1225 1652 1225 1652 1316 c 1,24,-1
 106 1316 l 1,25,26
 101 1249 101 1249 101 1132 c 2,27,28
 101 1132 101 1132 101 505 c 0,29,30
 101 435 101 435 119 417.5 c 128,-1,31
 137 400 137 400 205.5 400 c 128,-1,32
 274 400 274 400 914 399 c 2,33,-1
 1010 399 l 1,34,-1
 1011 300 l 1,35,-1
 200 300 l 2,36,37
 90 300 90 300 45 345.5 c 128,-1,38
 0 391 0 391 0 502 c 2,39,40
 0 502 0 502 0 1577 c 0,41,42
 0 1694 0 1694 46 1739.5 c 128,-1,43
 92 1785 92 1785 210 1785 c 2,44,-1
 296 1785 l 1,45,-1
 296 1683 l 1,46,47
 283 1683 283 1683 256 1684 c 0,48,49
 197 1688 197 1688 173.5 1681 c 128,-1,50
 150 1674 150 1674 128.5 1655.5 c 128,-1,51
 107 1637 107 1637 104 1614.5 c 128,-1,52
 101 1592 101 1592 100.5 1571.5 c 128,-1,53
 100 1551 100 1551 99.5 1544 c 128,-1,54
 99 1537 99 1537 101 1425 c 1,55,-1
 1650 1425 l 1,0,1
1232 1781 m 1,56,-1
 1232 1688 l 1,57,-1
 520 1688 l 1,58,-1
 520 1781 l 1,59,-1
 1232 1781 l 1,56,-1
515 1186 m 1,60,-1
 515 977 l 1,61,-1
 302 977 l 1,62,-1
 302 1186 l 1,63,-1
 515 1186 l 1,60,-1
1241 1186 m 1,64,-1
 1449 1186 l 1,65,-1
 1449 977 l 1,66,-1
 1241 977 l 1,67,-1
 1241 1186 l 1,64,-1
511 542 m 1,68,-1
 303 542 l 1,69,-1
 303 752 l 1,70,-1
 511 752 l 1,71,-1
 511 542 l 1,68,-1
773 1188 m 1,72,-1
 977 1188 l 1,73,-1
 977 977 l 1,74,-1
 773 977 l 1,75,-1
 773 1188 l 1,72,-1
774 754 m 1,76,-1
 979 754 l 1,77,-1
 979 543 l 1,78,-1
 774 543 l 1,79,-1
 774 754 l 1,76,-1
458 1758.5 m 128,-1,81
 457 1736 457 1736 457 1726.5 c 128,-1,82
 457 1717 457 1717 458 1698 c 0,83,84
 460 1659 460 1659 455.5 1642 c 128,-1,85
 451 1625 451 1625 435 1610.5 c 128,-1,86
 419 1596 419 1596 406.5 1596.5 c 128,-1,87
 394 1597 394 1597 378 1612 c 128,-1,88
 362 1627 362 1627 360 1640 c 0,89,90
 356 1688 356 1688 356 1735.5 c 128,-1,91
 356 1783 356 1783 360 1831 c 0,92,93
 361 1843 361 1843 378.5 1857.5 c 128,-1,94
 396 1872 396 1872 408.5 1871.5 c 128,-1,95
 421 1871 421 1871 436.5 1857 c 128,-1,96
 452 1843 452 1843 455 1828.5 c 128,-1,97
 458 1814 458 1814 458.5 1797.5 c 128,-1,80
 459 1781 459 1781 458 1758.5 c 128,-1,81
1394 1734 m 128,-1,99
 1394 1725 1394 1725 1396 1706 c 0,100,101
 1400 1643 1400 1643 1379 1622 c 128,-1,102
 1358 1601 1358 1601 1346.5 1597.5 c 128,-1,103
 1335 1594 1335 1594 1316.5 1611 c 128,-1,104
 1298 1628 1298 1628 1297 1640 c 0,105,106
 1293 1686 1293 1686 1293 1733.5 c 128,-1,107
 1293 1781 1293 1781 1298 1831 c 0,108,109
 1299 1843 1299 1843 1316 1857.5 c 128,-1,110
 1333 1872 1333 1872 1345.5 1872 c 128,-1,111
 1358 1872 1358 1872 1373.5 1857.5 c 128,-1,112
 1389 1843 1389 1843 1392 1829.5 c 128,-1,113
 1395 1816 1395 1816 1395.5 1800.5 c 128,-1,114
 1396 1785 1396 1785 1395 1764 c 128,-1,98
 1394 1743 1394 1743 1394 1734 c 128,-1,99
1567 894 m 0,115,116
 1665 894 1665 894 1754 856 c 0,117,118
 1931 780 1931 780 2010 600 c 0,119,120
 2048 510 2048 510 2048 411 c 128,-1,121
 2048 312 2048 312 2011 222.5 c 128,-1,122
 1974 133 1974 133 1909.5 68.5 c 128,-1,123
 1845 4 1845 4 1755.5 -34 c 128,-1,124
 1666 -72 1666 -72 1566 -72 c 2,125,126
 1566 -72 1566 -72 1565 -72 c 0,127,128
 1465 -72 1465 -72 1376 -34 c 0,129,130
 1194 42 1194 42 1120 221 c 0,131,132
 1082 310 1082 310 1082 410 c 128,-1,133
 1082 510 1082 510 1120 600 c 0,134,135
 1196 780 1196 780 1378 857 c 0,136,137
 1467 894 1467 894 1565 894 c 2,138,139
 1565 894 1565 894 1567 894 c 0,115,116
1825 325 m 1,140,-1
 1880 386 l 1,141,-1
 1822 444 l 1,142,-1
 1698 447 l 1,143,-1
 1600 446 l 1,144,-1
 1597 666 l 1,145,-1
 1543 731 l 1,146,-1
 1477 667 l 1,147,-1
 1472 322 l 1,148,-1
 1682 322 l 1,149,-1
 1825 325 l 1,140,-1
EndSplineSet
Validated: 8388641
EndChar

StartChar: uniE09C
Encoding: 57500 57500 19
Width: 2048
GlyphClass: 2
Flags: W
HStem: 704 1152<795.643 1252.36>
VStem: 448 1152<1051.64 1508.36>
LayerCount: 3
Fore
SplineSet
448 1280 m 256,0,1
 448 1520 448 1520 616 1688 c 128,-1,2
 784 1856 784 1856 1024 1856 c 256,3,4
 1264 1856 1264 1856 1432 1688 c 128,-1,5
 1600 1520 1600 1520 1600 1280 c 256,6,7
 1600 1040 1600 1040 1432 872 c 128,-1,8
 1264 704 1264 704 1024 704 c 128,-1,9
 784 704 784 704 616 872 c 128,-1,10
 448 1040 448 1040 448 1280 c 256,0,1
1024 640 m 256,11,12
 1237 640 1237 640 1408 768 c 1,13,14
 1408 768 1408 768 1408 -64 c 1,15,-1
 1024 320 l 1,16,-1
 640 -64 l 1,17,-1
 640 768 l 1,18,19
 811 640 811 640 1024 640 c 256,11,12
EndSplineSet
Validated: 1
EndChar

StartChar: uniE09D
Encoding: 57501 57501 20
Width: 2048
GlyphClass: 2
Flags: W
HStem: 640 129<874.252 976.484 1065.52 1165.58>
VStem: 448 136<1059.51 1162.48 1251.52 1352.15> 1458 142<1059.06 1162.48 1251.52 1345.71>
LayerCount: 3
Fore
SplineSet
1156 778 m 0,0,1
 1164 786 1164 786 1167 799 c 2,2,-1
 1195 906 l 1,3,-1
 1301 876 l 2,4,5
 1324 870 1324 870 1341 887 c 0,6,7
 1359 905 1359 905 1352 927 c 2,8,-1
 1321 1033 l 1,9,-1
 1429 1061 l 2,10,11
 1453 1067 1453 1067 1458 1091 c 0,12,13
 1463 1114 1463 1114 1447 1130 c 2,14,-1
 1368 1207 l 1,15,-1
 1447 1284 l 2,16,17
 1464 1301 1464 1301 1459 1324 c 0,18,19
 1455 1340 1455 1340 1429 1347 c 2,20,-1
 1321 1375 l 1,21,-1
 1352 1487 l 2,22,23
 1358 1510 1358 1510 1341 1527 c 0,24,25
 1323 1545 1323 1545 1301 1538 c 2,26,-1
 1195 1507 l 1,27,-1
 1167 1615 l 2,28,29
 1161 1637 1161 1637 1139 1643 c 0,30,31
 1114 1650 1114 1650 1098 1633 c 2,32,-1
 1021 1551 l 1,33,-1
 944 1630 l 2,34,35
 925 1650 925 1650 902 1643 c 0,36,37
 881 1638 881 1638 875 1615 c 2,38,-1
 847 1507 l 1,39,-1
 741 1538 l 2,40,41
 719 1545 719 1545 701 1527 c 0,42,43
 684 1510 684 1510 690 1487 c 2,44,-1
 720 1381 l 1,45,-1
 613 1353 l 2,46,47
 589 1347 589 1347 584 1322 c 0,48,49
 579 1300 579 1300 595 1284 c 2,50,-1
 673 1207 l 1,51,-1
 595 1130 l 2,52,53
 578 1113 578 1113 584 1090 c 0,54,55
 589 1067 589 1067 613 1061 c 2,56,-1
 720 1033 l 1,57,-1
 690 927 l 2,58,59
 684 904 684 904 701 887 c 128,-1,60
 718 870 718 870 741 876 c 2,61,-1
 847 906 l 1,62,-1
 875 799 l 2,63,64
 882 774 882 774 905 769 c 0,65,66
 927 764 927 764 944 781 c 2,67,-1
 1021 859 l 1,68,-1
 1098 781 l 2,69,70
 1112 767 1112 767 1133 768 c 0,71,72
 1140 768 1140 768 1145 770 c 128,-1,73
 1150 772 1150 772 1156 778 c 0,0,1
636 706 m 1,74,75
 796 584 796 584 998 576 c 1,76,77
 998 576 998 576 740 -94 c 1,78,-1
 630 154 l 1,79,-1
 382 44 l 1,80,-1
 636 706 l 1,74,75
448 1216 m 128,-1,82
 448 1456 448 1456 616 1624 c 128,-1,83
 784 1792 784 1792 1024 1792 c 0,84,85
 1261 1792 1261 1792 1431 1624 c 0,86,87
 1600 1457 1600 1457 1600 1216 c 128,-1,88
 1600 975 1600 975 1431 808 c 0,89,90
 1261 640 1261 640 1024 640 c 0,91,92
 784 640 784 640 616 808 c 128,-1,81
 448 976 448 976 448 1216 c 128,-1,82
1050 576 m 1,93,94
 1250 584 1250 584 1410 706 c 1,95,96
 1410 706 1410 706 1666 44 c 1,97,-1
 1418 154 l 1,98,-1
 1306 -94 l 1,99,-1
 1050 576 l 1,93,94
EndSplineSet
Validated: 1
EndChar

StartChar: uniE0A3
Encoding: 57507 57507 21
Width: 2048
GlyphClass: 2
Flags: W
HStem: -47 116<874.197 1176.79> 156 263<924.118 1123.5> 1127 521<665.631 1167.63> 1692 90<1666.77 1872.7> 1735 103<878.468 1170.64>
VStem: 1 195<627.529 1172.86> 284 260<871.491 1083.72> 1865 183<630.125 779.326 1006.12 1168.25> 1919 91<1434.07 1646.65>
LayerCount: 3
Fore
SplineSet
1164 506 m 0,0,1
 1296 675 1296 675 1479.5 915 c 128,-1,2
 1663 1155 1663 1155 1709 1215 c 1,3,4
 1778 1066 1778 1066 1778 908 c 128,-1,5
 1778 750 1778 750 1718.5 612 c 128,-1,6
 1659 474 1659 474 1559 374 c 128,-1,7
 1459 274 1459 274 1321 215 c 128,-1,8
 1183 156 1183 156 1031 156 c 128,-1,9
 879 156 879 156 740.5 215 c 128,-1,10
 602 274 602 274 502 374 c 128,-1,11
 402 474 402 474 343 612 c 128,-1,12
 284 750 284 750 284 902 c 128,-1,13
 284 1054 284 1054 343 1192 c 128,-1,14
 402 1330 402 1330 502 1430 c 128,-1,15
 602 1530 602 1530 740.5 1589 c 128,-1,16
 879 1648 879 1648 1024 1648 c 0,17,18
 1312 1648 1312 1648 1521 1464 c 1,19,20
 1188 1031 1188 1031 1170 1008 c 128,-1,21
 1152 985 1152 985 1150.5 983 c 128,-1,22
 1149 981 1149 981 1147 978 c 128,-1,23
 1145 975 1145 975 1133 959.5 c 128,-1,24
 1121 944 1121 944 1078.5 888.5 c 128,-1,25
 1036 833 1036 833 1021 814 c 1,26,27
 837 1038 837 1038 828 1049 c 0,28,29
 763 1127 763 1127 689 1127 c 0,30,31
 643 1127 643 1127 593.5 1089 c 128,-1,32
 544 1051 544 1051 544 988.5 c 128,-1,33
 544 926 544 926 593.5 863.5 c 128,-1,34
 643 801 643 801 886 503 c 0,35,36
 954 419 954 419 1025 419 c 2,37,38
 1025 419 1025 419 1026 419 c 0,39,40
 1097 420 1097 420 1164 506 c 0,0,1
396 1673 m 2,41,42
 396 1673 396 1673 400 1673 c 0,43,44
 575 1673 575 1673 667 1830 c 0,45,46
 698 1883 698 1883 724.5 1903 c 128,-1,47
 751 1923 751 1923 784.5 1918.5 c 128,-1,48
 818 1914 818 1914 884.5 1876.5 c 128,-1,49
 951 1839 951 1839 1024 1838 c 2,50,51
 1024 1838 1024 1838 1025 1838 c 0,52,53
 1097 1838 1097 1838 1157.5 1872 c 128,-1,54
 1218 1906 1218 1906 1245 1915 c 128,-1,55
 1272 1924 1272 1924 1296.5 1916 c 128,-1,56
 1321 1908 1321 1908 1340.5 1888 c 128,-1,57
 1360 1868 1360 1868 1396.5 1816 c 128,-1,58
 1433 1764 1433 1764 1476 1726.5 c 128,-1,59
 1519 1689 1519 1689 1548.5 1689 c 128,-1,60
 1578 1689 1578 1689 1612 1718 c 0,61,62
 1687 1781 1687 1781 1771 1782 c 2,63,64
 1771 1782 1771 1782 1778 1782 c 0,65,66
 1866 1779 1866 1779 1934 1712 c 0,67,68
 2010 1639 2010 1639 2010 1553.5 c 128,-1,69
 2010 1468 2010 1468 1959 1394 c 0,70,71
 1956 1390 1956 1390 1891 1299 c 1,72,73
 1986 1263 1986 1263 2016 1212 c 0,74,75
 2048 1162 2048 1162 2038 1115 c 0,76,77
 2025 1047 2025 1047 1998.5 996.5 c 128,-1,78
 1972 946 1972 946 1974 909 c 0,79,80
 1978 839 1978 839 1999.5 788.5 c 128,-1,81
 2021 738 2021 738 2027.5 721 c 128,-1,82
 2034 704 2034 704 2040.5 682.5 c 128,-1,83
 2047 661 2047 661 2048 650.5 c 128,-1,84
 2049 640 2049 640 2046 624.5 c 128,-1,85
 2043 609 2043 609 2036 600.5 c 128,-1,86
 2029 592 2029 592 2016 578 c 0,87,88
 1997 560 1997 560 1936 521 c 0,89,90
 1809 440 1809 440 1805 287 c 0,91,92
 1802 177 1802 177 1774 151 c 0,93,94
 1751 129 1751 129 1714.5 125 c 128,-1,95
 1678 121 1678 121 1616.5 119.5 c 128,-1,96
 1555 118 1555 118 1494 80 c 128,-1,97
 1433 42 1433 42 1393.5 -23.5 c 128,-1,98
 1354 -89 1354 -89 1329.5 -108 c 128,-1,99
 1305 -127 1305 -127 1288 -127 c 2,100,101
 1288 -127 1288 -127 1260.5 -125 c 128,-1,102
 1233 -123 1233 -123 1166 -85 c 128,-1,103
 1099 -47 1099 -47 1026 -47 c 2,104,105
 1026 -47 1026 -47 1024 -47 c 0,106,107
 951 -48 951 -48 884 -86 c 0,108,109
 800 -132 800 -132 772 -127 c 1,110,111
 745 -127 745 -127 720.5 -107.5 c 128,-1,112
 696 -88 696 -88 656 -21 c 0,113,114
 574 117 574 117 398 121 c 0,115,116
 306 123 306 123 277 151.5 c 128,-1,117
 248 180 248 180 247 270 c 0,118,119
 245 445 245 445 97 533 c 0,120,121
 40 567 40 567 20 592.5 c 128,-1,122
 -0 618 -0 618 0.5 634.5 c 128,-1,123
 1 651 1 651 3 670.5 c 128,-1,124
 5 690 5 690 44 757 c 0,125,126
 124 898 124 898 38 1047 c 0,127,128
 1 1111 1 1111 1 1142.5 c 128,-1,129
 1 1174 1 1174 19 1199 c 128,-1,130
 37 1224 37 1224 103.5 1262.5 c 128,-1,131
 170 1301 170 1301 208.5 1365.5 c 128,-1,132
 247 1430 247 1430 248 1521.5 c 128,-1,133
 249 1613 249 1613 279 1643 c 128,-1,134
 309 1673 309 1673 396 1673 c 2,41,42
1574 1533 m 1,135,136
 1338 1735 1338 1735 1031 1735 c 0,137,138
 804 1735 804 1735 610 1622 c 0,139,140
 422 1512 422 1512 310 1322 c 0,141,142
 196 1129 196 1129 196 902 c 0,143,144
 196 558 196 558 441 313 c 0,145,146
 596 158 596 158 810 99 c 0,147,148
 918 69 918 69 1031 69 c 128,-1,149
 1144 69 1144 69 1252 99 c 128,-1,150
 1360 129 1360 129 1451.5 182.5 c 128,-1,151
 1543 236 1543 236 1620 313 c 128,-1,152
 1697 390 1697 390 1751 482 c 0,153,154
 1865 675 1865 675 1865 892 c 128,-1,155
 1865 1109 1865 1109 1768 1292 c 1,156,157
 1831 1375 1831 1375 1875 1434 c 128,-1,158
 1919 1493 1919 1493 1919 1544 c 0,159,160
 1919 1614 1919 1614 1868.5 1652.5 c 128,-1,161
 1818 1691 1818 1691 1771 1692 c 0,162,163
 1688 1692 1688 1692 1622 1594 c 0,164,165
 1615 1585 1615 1585 1611 1580.5 c 128,-1,166
 1607 1576 1607 1576 1574 1533 c 1,135,136
EndSplineSet
Validated: 8388641
EndChar

StartChar: uniE0B9
Encoding: 57529 57529 22
Width: 1170
GlyphClass: 2
Flags: W
HStem: 0 878<479.599 690.401> 1462 294<431.219 741.119>
VStem: 0 292<1016.05 1323.59> 878 292<1016.05 1326.53>
LayerCount: 3
Fore
SplineSet
0 1170 m 0,0,1
 0 1411 0 1411 171 1584 c 0,2,3
 341 1756 341 1756 586 1756 c 0,4,5
 706 1756 706 1756 813 1710 c 0,6,7
 1029 1617 1029 1617 1124 1398 c 0,8,9
 1170 1292 1170 1292 1170 1170 c 0,10,11
 1170 1045 1170 1045 1132 966 c 2,12,-1
 716 82 l 2,13,14
 698 44 698 44 662 22 c 128,-1,15
 626 0 626 0 585 0 c 128,-1,16
 544 0 544 0 508 22 c 128,-1,17
 472 44 472 44 454 82 c 2,18,-1
 38 966 l 2,19,20
 0 1045 0 1045 0 1170 c 0,0,1
378 1377 m 128,-1,22
 292 1292 292 1292 292 1171 c 128,-1,23
 292 1050 292 1050 378 964 c 128,-1,24
 464 878 464 878 585 878 c 128,-1,25
 706 878 706 878 792 964 c 128,-1,26
 878 1050 878 1050 878 1171 c 128,-1,27
 878 1292 878 1292 792 1377 c 128,-1,28
 706 1462 706 1462 585 1462 c 128,-1,21
 464 1462 464 1462 378 1377 c 128,-1,22
EndSplineSet
Validated: 1
EndChar

StartChar: uniE0EA
Encoding: 57578 57578 24
Width: 2048
GlyphClass: 2
Flags: W
HStem: -128 610<833.313 1214.69> 1310 610<833.313 1214.69>
VStem: 231 379<718.637 1077.45> 822 402<-128 49.917 1741.52 1920> 1438 378<714.255 1073.36>
LayerCount: 3
Fore
SplineSet
430 1530 m 0,0,1
 658 1530 658 1530 777 1735 c 0,2,3
 824 1816 824 1816 824 1920 c 1,4,5
 824 1920 824 1920 1226 1920 c 1,6,7
 1226 1838 1226 1838 1256 1768 c 0,8,9
 1316 1623 1316 1623 1463 1559 c 0,10,11
 1534 1528 1534 1528 1628.5 1528 c 128,-1,12
 1723 1528 1723 1528 1810 1582 c 1,13,14
 1810 1582 1810 1582 2012 1232 c 1,15,16
 1942 1192 1942 1192 1896 1130 c 0,17,18
 1816 1027 1816 1027 1816 906 c 0,19,20
 1816 869 1816 869 1822 819.5 c 128,-1,21
 1828 770 1828 770 1873.5 690 c 128,-1,22
 1919 610 1919 610 2010 558 c 1,23,24
 2010 558 2010 558 1810 208 c 1,25,26
 1716 260 1716 260 1617 260 c 0,27,28
 1386 260 1386 260 1270 55 c 0,29,30
 1224 -26 1224 -26 1224 -128 c 1,31,32
 1224 -128 1224 -128 822 -128 c 1,33,34
 822 -48 822 -48 790 24 c 0,35,36
 729 167 729 167 583 231 c 0,37,38
 512 262 512 262 420.5 262 c 128,-1,39
 329 262 329 262 238 210 c 1,40,41
 238 210 238 210 36 558 c 1,42,43
 106 598 106 598 152 660 c 0,44,45
 231 770 231 770 231 894 c 0,46,47
 231 1001 231 1001 175 1099 c 0,48,49
 130 1178 130 1178 36 1234 c 1,50,51
 36 1234 36 1234 238 1582 c 1,52,53
 329 1530 329 1530 430 1530 c 0,0,1
610 896 m 256,54,55
 610 724 610 724 731 603 c 128,-1,56
 852 482 852 482 1024 482 c 256,57,58
 1196 482 1196 482 1317 603 c 128,-1,59
 1438 724 1438 724 1438 896 c 256,60,61
 1438 1068 1438 1068 1317 1189 c 128,-1,62
 1196 1310 1196 1310 1024 1310 c 256,63,64
 852 1310 852 1310 731 1189 c 128,-1,65
 610 1068 610 1068 610 896 c 256,54,55
EndSplineSet
Validated: 1
EndChar

StartChar: uniE0EB
Encoding: 57579 57579 25
Width: 2048
GlyphClass: 2
Flags: W
HStem: 768 374<356.632 652.5>
VStem: 778 374<1267.5 1568.1>
LayerCount: 3
Back
SplineSet
24 1512 m 1,0,1
 0 1432 0 1432 0 1328 c 128,-1,2
 0 1224 0 1224 45 1119 c 0,3,4
 138 903 138 903 352 814 c 0,5,6
 456 768 456 768 587 768 c 128,-1,7
 718 768 718 768 846 836 c 1,8,-1
 1636 -86 l 2,9,10
 1670 -126 1670 -126 1721 -128 c 2,11,12
 1721 -128 1721 -128 1726 -128 c 0,13,14
 1774 -128 1774 -128 1810 -92 c 2,15,-1
 2012 110 l 2,16,17
 2048 146 2048 146 2048 194 c 2,18,19
 2048 194 2048 194 2048 199 c 0,20,21
 2046 250 2046 250 2006 284 c 2,22,-1
 1084 1074 l 1,23,24
 1152 1202 1152 1202 1152 1333 c 128,-1,25
 1152 1464 1152 1464 1107 1569 c 0,26,27
 1014 1785 1014 1785 800 1874 c 0,28,29
 696 1920 696 1920 576 1920 c 0,30,31
 488 1920 488 1920 408 1896 c 1,32,-1
 742 1562 l 2,33,34
 778 1526 778 1526 778 1472 c 128,-1,35
 778 1418 778 1418 742 1382 c 2,36,-1
 538 1178 l 2,37,38
 502 1142 502 1142 448 1142 c 128,-1,39
 394 1142 394 1142 358 1178 c 2,40,-1
 24 1512 l 1,0,1
EndSplineSet
Fore
SplineSet
74 1481 m 5,0,1
 74 1481 74 1481 391 1164 c 6,2,3
 425 1130 425 1130 476.5 1130 c 132,-1,4
 528 1130 528 1130 562 1164 c 6,5,6
 562 1164 562 1164 756 1358 c 6,7,8
 790 1392 790 1392 790 1443 c 132,-1,9
 790 1494 790 1494 756 1529 c 6,10,11
 756 1529 756 1529 439 1846 c 5,12,13
 515 1869 515 1869 598 1869 c 4,14,15
 712 1869 712 1869 811 1825 c 4,16,17
 1014 1740 1014 1740 1103 1535 c 4,18,19
 1146 1435 1146 1435 1146 1311 c 132,-1,20
 1146 1187 1146 1187 1081 1065 c 5,21,22
 1081 1065 1081 1065 1957 315 c 6,23,24
 1995 283 1995 283 1997 234 c 4,25,26
 1997 229 1997 229 1997 229 c 6,27,28
 1997 183 1997 183 1963 149 c 6,29,30
 1963 149 1963 149 1771 -43 c 6,31,32
 1737 -77 1737 -77 1691 -77 c 4,33,34
 1686 -77 1686 -77 1686 -77 c 6,35,36
 1638 -75 1638 -75 1605 -37 c 6,37,38
 1605 -37 1605 -37 855 839 c 5,39,40
 733 774 733 774 608.5 774 c 132,-1,41
 484 774 484 774 386 818 c 4,42,43
 183 903 183 903 94 1108 c 4,44,45
 51 1208 51 1208 51 1306.5 c 132,-1,46
 51 1405 51 1405 74 1481 c 5,0,1
EndSplineSet
Validated: 1
EndChar

StartChar: uniE0EC
Encoding: 57580 57580 26
Width: 1924
GlyphClass: 2
Flags: W
HStem: -122 268<263 397.222>
VStem: 24 268<115.5 250.447> 878 438<1170 1426>
LayerCount: 3
Back
SplineSet
68 44 m 2,0,1
 24 84 24 84 24 147 c 128,-1,2
 24 210 24 210 68 250 c 2,3,-1
 846 1028 l 1,4,5
 890 916 890 916 976 830 c 128,-1,6
 1062 744 1062 744 1174 700 c 1,7,-1
 396 -80 l 2,8,9
 354 -122 354 -122 292 -122 c 0,10,11
 234 -122 234 -122 188 -80 c 2,12,-1
 68 44 l 2,0,1
292 220 m 256,13,14
 292 190 292 190 314 168 c 128,-1,15
 336 146 336 146 366 146 c 256,16,17
 396 146 396 146 417 168 c 128,-1,18
 438 190 438 190 438 220 c 256,19,20
 438 250 438 250 417 271 c 128,-1,21
 396 292 396 292 366 292 c 256,22,23
 336 292 336 292 314 271 c 128,-1,24
 292 250 292 250 292 220 c 256,13,14
1862 1236 m 0,25,26
 1900 1236 1900 1236 1900 1196 c 0,27,28
 1900 1160 1900 1160 1874 1076 c 1,29,30
 1786 838 1786 838 1546 756 c 0,31,32
 1470 732 1470 732 1377 732 c 128,-1,33
 1284 732 1284 732 1191 772 c 0,34,35
 1001 854 1001 854 918 1044 c 0,36,37
 878 1138 878 1138 878 1244 c 0,38,39
 878 1457 878 1457 1028 1605 c 0,40,41
 1181 1756 1181 1756 1390 1756 c 0,42,43
 1452 1756 1452 1756 1526 1737 c 128,-1,44
 1600 1718 1600 1718 1630 1698 c 128,-1,45
 1660 1678 1660 1678 1665 1670 c 128,-1,46
 1670 1662 1670 1662 1670 1652 c 0,47,48
 1670 1629 1670 1629 1652 1620 c 2,49,-1
 1316 1426 l 1,50,-1
 1316 1170 l 1,51,-1
 1538 1048 l 1,52,53
 1552 1056 1552 1056 1601 1087 c 0,54,55
 1837 1236 1837 1236 1862 1236 c 0,25,26
EndSplineSet
Fore
SplineSet
68 44 m 2,0,1
 24 84 24 84 24 147 c 128,-1,2
 24 210 24 210 68 250 c 2,3,-1
 846 1028 l 1,4,5
 890 916 890 916 976 830 c 128,-1,6
 1062 744 1062 744 1174 700 c 1,7,-1
 396 -80 l 2,8,9
 354 -122 354 -122 292 -122 c 0,10,11
 234 -122 234 -122 188 -80 c 2,12,-1
 68 44 l 2,0,1
292 220 m 256,13,14
 292 190 292 190 314 168 c 128,-1,15
 336 146 336 146 366 146 c 256,16,17
 396 146 396 146 417 168 c 128,-1,18
 438 190 438 190 438 220 c 256,19,20
 438 250 438 250 417 271 c 128,-1,21
 396 292 396 292 366 292 c 256,22,23
 336 292 336 292 314 271 c 128,-1,24
 292 250 292 250 292 220 c 256,13,14
1862 1236 m 0,25,26
 1900 1236 1900 1236 1900 1196 c 0,27,28
 1900 1160 1900 1160 1874 1076 c 1,29,30
 1786 838 1786 838 1546 756 c 0,31,32
 1470 732 1470 732 1377 732 c 128,-1,33
 1284 732 1284 732 1191 772 c 0,34,35
 1001 854 1001 854 918 1044 c 0,36,37
 878 1138 878 1138 878 1244 c 0,38,39
 878 1457 878 1457 1028 1605 c 0,40,41
 1181 1756 1181 1756 1390 1756 c 0,42,43
 1452 1756 1452 1756 1526 1737 c 128,-1,44
 1600 1718 1600 1718 1630 1698 c 128,-1,45
 1660 1678 1660 1678 1665 1670 c 128,-1,46
 1670 1662 1670 1662 1670 1652 c 0,47,48
 1670 1629 1670 1629 1652 1620 c 2,49,-1
 1316 1426 l 1,50,-1
 1316 1170 l 1,51,-1
 1538 1048 l 1,52,53
 1552 1056 1552 1056 1601 1087 c 0,54,55
 1837 1236 1837 1236 1862 1236 c 0,25,26
EndSplineSet
Validated: 1
EndChar

StartChar: uniE0ED
Encoding: 57581 57581 27
Width: 2048
GlyphClass: 2
Flags: W
LayerCount: 3
Back
SplineSet
0 960 m 1,0,-1
 320 640 l 1,1,-1
 732 1052 l 1,2,-1
 1100 684 l 1,3,-1
 1054 638 l 2,4,5
 1026 610 1026 610 1026 571 c 128,-1,6
 1026 532 1026 532 1054 504 c 2,7,-1
 1658 -100 l 2,8,9
 1686 -128 1686 -128 1726 -128 c 128,-1,10
 1766 -128 1766 -128 1794 -100 c 2,11,-1
 2020 126 l 2,12,13
 2048 154 2048 154 2048 194 c 128,-1,14
 2048 234 2048 234 2020 262 c 2,15,-1
 1416 866 l 2,16,17
 1388 894 1388 894 1349 894 c 128,-1,18
 1310 894 1310 894 1282 866 c 2,19,-1
 1236 820 l 1,20,-1
 868 1188 l 1,21,-1
 1472 1792 l 1,22,-1
 832 1792 l 1,23,-1
 548 1508 l 1,24,-1
 520 1536 l 1,25,-1
 384 1536 l 1,26,-1
 384 1400 l 1,27,-1
 412 1372 l 1,28,-1
 0 960 l 1,0,-1
EndSplineSet
Fore
SplineSet
0 960 m 1,0,-1
 412 1372 l 1,1,-1
 384 1400 l 1,2,-1
 384 1536 l 1,3,-1
 520 1536 l 1,4,-1
 548 1508 l 1,5,-1
 832 1792 l 1,6,-1
 1472 1792 l 1,7,-1
 868 1188 l 1,8,-1
 1236 820 l 1,9,-1
 1282 866 l 2,10,11
 1310 894 1310 894 1349 894 c 128,-1,12
 1388 894 1388 894 1416 866 c 2,13,14
 1416 866 1416 866 2020 262 c 2,15,16
 2048 234 2048 234 2048 194 c 128,-1,17
 2048 154 2048 154 2020 126 c 2,18,19
 2020 126 2020 126 1794 -100 c 2,20,21
 1766 -128 1766 -128 1726 -128 c 128,-1,22
 1686 -128 1686 -128 1658 -100 c 2,23,24
 1658 -100 1658 -100 1054 504 c 2,25,26
 1026 532 1026 532 1026 571 c 128,-1,27
 1026 610 1026 610 1054 638 c 2,28,29
 1054 638 1054 638 1100 684 c 1,30,-1
 732 1052 l 1,31,-1
 320 640 l 1,32,-1
 0 960 l 1,0,-1
EndSplineSet
Validated: 1
EndChar

StartChar: uniE0EE
Encoding: 57582 57582 28
Width: 2048
GlyphClass: 2
Flags: W
LayerCount: 3
Fore
SplineSet
1780 946 m 1,0,1
 1780 946 1780 946 1600 1130 c 1,2,-1
 1480 1010 l 1,3,-1
 1388 1098 l 1,4,-1
 948 658 l 1,5,-1
 948 478 l 1,6,-1
 496 26 l 2,7,8
 472 2 472 2 438 2 c 256,9,10
 404 2 404 2 376 26 c 2,11,12
 376 26 376 26 196 206 c 2,13,14
 172 230 172 230 172 266 c 256,15,16
 172 302 172 302 196 326 c 2,17,18
 196 326 196 326 648 778 c 1,19,-1
 828 778 l 1,20,-1
 900 850 l 1,21,-1
 548 1202 l 1,22,-1
 428 1202 l 1,23,-1
 172 1462 l 1,24,-1
 412 1702 l 1,25,-1
 668 1446 l 1,26,-1
 668 1326 l 1,27,-1
 1024 974 l 1,28,-1
 1268 1218 l 1,29,-1
 1180 1310 l 1,30,-1
 1300 1430 l 1,31,-1
 1056 1430 l 1,32,-1
 996 1490 l 1,33,-1
 1300 1794 l 1,34,-1
 1360 1734 l 1,35,-1
 1360 1490 l 1,36,-1
 1480 1610 l 1,37,-1
 1780 1310 l 2,38,39
 1856 1234 1856 1234 1856 1130 c 0,40,41
 1856 1022 1856 1022 1780 946 c 1,0,1
1096 478 m 1,42,-1
 1096 562 l 1,43,-1
 1312 778 l 1,44,-1
 1396 778 l 1,45,-1
 1848 326 l 2,46,47
 1876 302 1876 302 1876 266 c 256,48,49
 1876 230 1876 230 1848 206 c 2,50,51
 1848 206 1848 206 1668 26 c 2,52,53
 1644 2 1644 2 1608 2 c 256,54,55
 1572 2 1572 2 1548 26 c 2,56,57
 1548 26 1548 26 1096 478 c 1,42,-1
EndSplineSet
Validated: 1
EndChar

StartChar: uniE0EF
Encoding: 57583 57583 29
Width: 2048
GlyphClass: 2
Flags: W
HStem: 257 310<407.88 619.451 1051.25 1261.51 1442.79 1651.39> 428 315<734.223 912.656 1790.05 1865.89> 649 94<1008.64 1311.09> 812 64<511.043 526.893> 1230 73<240.4 523.165>
VStem: 5 245<432 585.303> 359 310<305.361 520.231> 527 166<876 1225.55> 1002 304<306.362 519.62> 1397 304<305.896 516.59> 1789 77<431 511.534>
LayerCount: 3
Fore
SplineSet
1186 1626 m 1,0,1
 1186 1626 1186 1626 1951 1648 c 1,2,3
 2011 1319 2011 1319 2048 1110 c 1,4,5
 1790 1011 1790 1011 1327 832 c 1,6,7
 1273 1138 1273 1138 1186 1626 c 1,0,1
1688 902 m 1,8,9
 1697 825 1697 825 1706 751 c 1,10,11
 1737 749 1737 749 1866 738 c 1,12,-1
 1866 431 l 1,13,14
 1826 429 1826 429 1789 426 c 1,15,16
 1782 441 1782 441 1770 470 c 0,17,18
 1744 530 1744 530 1727 555 c 0,19,20
 1663 649 1663 649 1534 649 c 2,21,22
 1534 649 1534 649 1351 649 c 128,-1,23
 1168 649 1168 649 1133 645.5 c 128,-1,24
 1098 642 1098 642 1066.5 632.5 c 128,-1,25
 1035 623 1035 623 1014.5 608.5 c 128,-1,26
 994 594 994 594 974 568 c 0,27,28
 942 528 942 528 901 428 c 1,29,-1
 771 428 l 1,30,31
 753 449 753 449 721 490 c 0,32,33
 656 575 656 575 623 600.5 c 128,-1,34
 590 626 590 626 564 633 c 128,-1,35
 538 640 538 640 505 636 c 0,36,37
 457 629 457 629 417.5 616.5 c 128,-1,38
 378 604 378 604 374 603 c 1,39,40
 468 740 468 740 624 743 c 0,41,42
 655 744 655 744 700 744 c 128,-1,43
 745 744 745 744 787 743.5 c 128,-1,44
 829 743 829 743 878 743 c 0,45,46
 1255 743 1255 743 1368 780 c 0,47,48
 1398 790 1398 790 1438.5 807 c 128,-1,49
 1479 824 1479 824 1494.5 829.5 c 128,-1,50
 1510 835 1510 835 1688 902 c 1,8,9
1262 827 m 1,51,52
 1208 834 1208 834 1079 849 c 128,-1,53
 950 864 950 864 878 873 c 1,54,55
 777 1420 777 1420 774 1435 c 1,56,57
 946 1524 946 1524 1120 1613 c 1,58,59
 1250 891 1250 891 1262 827 c 1,51,52
513 257 m 0,60,61
 454 257 454 257 406.5 302.5 c 128,-1,62
 359 348 359 348 359 411 c 128,-1,63
 359 474 359 474 402 519 c 128,-1,64
 445 564 445 564 507 567 c 2,65,66
 507 567 507 567 514 567 c 0,67,68
 576 567 576 567 622.5 523 c 128,-1,69
 669 479 669 479 668.5 416 c 128,-1,70
 668 353 668 353 625 306.5 c 128,-1,71
 582 260 582 260 522 258 c 0,72,73
 518 258 518 258 513 257 c 0,60,61
1556 566 m 0,74,75
 1622 563 1622 563 1661.5 518 c 128,-1,76
 1701 473 1701 473 1701 414 c 0,77,78
 1701 342 1701 342 1653 299 c 128,-1,79
 1605 256 1605 256 1549 257 c 2,80,81
 1549 257 1549 257 1542 257 c 0,82,83
 1480 260 1480 260 1438.5 304.5 c 128,-1,84
 1397 349 1397 349 1397 414.5 c 128,-1,85
 1397 480 1397 480 1441.5 523.5 c 128,-1,86
 1486 567 1486 567 1548 567 c 0,87,88
 1552 566 1552 566 1556 566 c 0,74,75
1264 303 m 128,-1,90
 1222 259 1222 259 1160 258 c 2,91,92
 1160 258 1160 258 1155 258 c 0,93,94
 1094 258 1094 258 1048.5 303.5 c 128,-1,95
 1003 349 1003 349 1002 413 c 2,96,97
 1002 413 1002 413 1002 414 c 0,98,99
 1003 477 1003 477 1045.5 521 c 128,-1,100
 1088 565 1088 565 1150 566 c 0,101,102
 1153 566 1153 566 1156 567 c 0,103,104
 1219 567 1219 567 1263 523.5 c 128,-1,105
 1307 480 1307 480 1306.5 413.5 c 128,-1,89
 1306 347 1306 347 1264 303 c 128,-1,90
98 1123 m 0,106,107
 115 1295 115 1295 268 1300 c 0,108,109
 342 1303 342 1303 383 1303 c 2,110,111
 383 1303 383 1303 412.5 1303 c 128,-1,112
 442 1303 442 1303 693 1302 c 1,113,-1
 693 812 l 1,114,115
 307 801 307 801 250 432 c 1,116,-1
 5 432 l 1,117,118
 5 441 5 441 2 460 c 0,119,120
 -3 501 -3 501 6 513 c 0,121,122
 50 569 50 569 59 643 c 0,123,124
 62 669 62 669 65 718 c 128,-1,125
 68 767 68 767 72 805.5 c 128,-1,126
 76 844 76 844 84.5 956.5 c 128,-1,127
 93 1069 93 1069 98 1123 c 0,106,107
527 876 m 1,128,-1
 527 1223 l 1,129,130
 407 1230 407 1230 377 1230 c 128,-1,131
 347 1230 347 1230 311 1226.5 c 128,-1,132
 275 1223 275 1223 239.5 1195.5 c 128,-1,133
 204 1168 204 1168 198 1127 c 128,-1,134
 192 1086 192 1086 188.5 1048 c 128,-1,135
 185 1010 185 1010 182 957 c 128,-1,136
 179 904 179 904 176 876 c 1,137,-1
 527 876 l 1,128,-1
EndSplineSet
Validated: 8388641
EndChar

StartChar: uniE0F0
Encoding: 57584 57584 30
Width: 2048
GlyphClass: 2
Flags: W
HStem: 779 485<833.778 1228.89>
VStem: 306 1435<-99.6293 327.92> 908 246<1581 1898.34> 940 159<339.258 513>
LayerCount: 3
Fore
SplineSet
1154 1571 m 1,0,1
 1174 1571 1174 1571 1186 1569 c 1,2,3
 1200 1766 1200 1766 1204 1843 c 1,4,5
 1426 1768 1426 1768 1522 1550 c 0,6,7
 1525 1543 1525 1543 1540.5 1504 c 128,-1,8
 1556 1465 1556 1465 1579 1427 c 128,-1,9
 1602 1389 1602 1389 1602 1370.5 c 128,-1,10
 1602 1352 1602 1352 1598 1346 c 0,11,12
 1586 1318 1586 1318 1506 1317 c 0,13,14
 1116 1312 1116 1312 550 1318 c 0,15,16
 484 1318 484 1318 466 1338 c 0,17,18
 434 1372 434 1372 486 1441 c 0,19,20
 506 1467 506 1467 530 1524 c 128,-1,21
 554 1581 554 1581 562 1598 c 0,22,23
 658 1774 658 1774 864 1848 c 1,24,25
 872 1657 872 1657 876 1582 c 1,26,27
 892 1581 892 1581 908 1581 c 1,28,29
 908 1581 908 1581 908 1636.5 c 128,-1,30
 908 1692 908 1692 908 1712 c 2,31,32
 908 1712 908 1712 908 1745.5 c 128,-1,33
 908 1779 908 1779 906 1810.5 c 128,-1,34
 904 1842 904 1842 910 1862 c 128,-1,35
 916 1882 916 1882 926 1893 c 128,-1,36
 936 1904 936 1904 954 1910 c 0,37,38
 984 1920 984 1920 1043 1920 c 128,-1,39
 1102 1920 1102 1920 1129 1899 c 128,-1,40
 1156 1878 1156 1878 1156 1825 c 2,41,42
 1156 1825 1156 1825 1154 1800 c 0,43,44
 1152 1748 1152 1748 1152 1732.5 c 128,-1,45
 1152 1717 1152 1717 1154 1571 c 1,0,1
1502 1264 m 1,46,47
 1504 1251 1504 1251 1504 1238 c 0,48,49
 1504 1155 1504 1155 1470 1070 c 0,50,51
 1402 897 1402 897 1218 817 c 0,52,53
 1128 779 1128 779 1030 779 c 2,54,55
 1030 779 1030 779 1028 779 c 0,56,57
 930 779 930 779 840 819 c 0,58,59
 656 900 656 900 586 1080 c 0,60,61
 557 1154 557 1154 556.5 1200.5 c 128,-1,62
 556 1247 556 1247 558 1264 c 1,63,-1
 1502 1264 l 1,46,47
1140 333 m 1,64,65
 1342 683 1342 683 1376 739 c 1,66,67
 1684 545 1684 545 1724 208 c 0,68,69
 1741 67 1741 67 1741 26.5 c 0,70,71
 1742 -14 1742 -14 1740 -25 c 0,72,73
 1732 -87 1732 -87 1685 -106 c 128,-1,74
 1638 -125 1638 -125 1482 -126 c 2,75,76
 1482 -126 1482 -126 1415 -126 c 128,-1,77
 1348 -126 1348 -126 1171 -125.5 c 128,-1,78
 994 -125 994 -125 900 -125 c 2,79,80
 900 -125 900 -125 743 -125 c 128,-1,81
 586 -125 586 -125 510 -126.5 c 128,-1,82
 434 -128 434 -128 432 -128 c 0,83,84
 363 -128 363 -128 335.5 -100.5 c 128,-1,85
 308 -73 308 -73 306 1 c 2,86,87
 306 1 306 1 306 47 c 128,-1,88
 306 93 306 93 312 158.5 c 128,-1,89
 318 224 318 224 334 299 c 0,90,91
 374 486 374 486 520 624 c 0,92,93
 549 652 549 652 591.5 689.5 c 128,-1,94
 634 727 634 727 658 748 c 1,95,96
 708 663 708 663 796 511.5 c 128,-1,97
 884 360 884 360 898 335 c 1,98,99
 930 472 930 472 940 513 c 1,100,-1
 1099 513 l 1,101,102
 1106 484 1106 484 1140 333 c 1,64,65
1022 728 m 1,103,104
 1034 713 1034 713 1060 689 c 0,105,106
 1105 644 1105 644 1100.5 631 c 128,-1,107
 1096 618 1096 618 1083 603.5 c 128,-1,108
 1070 589 1070 589 1049 570.5 c 128,-1,109
 1028 552 1028 552 1022 544 c 1,110,111
 1014 552 1014 552 992 570 c 0,112,113
 950 607 950 607 944 623.5 c 128,-1,114
 938 640 938 640 949 652.5 c 128,-1,115
 960 665 960 665 984 689 c 128,-1,116
 1008 713 1008 713 1022 728 c 1,103,104
EndSplineSet
Validated: 8912929
EndChar

StartChar: uniE0F4
Encoding: 57588 57588 31
Width: 1902
GlyphClass: 2
Flags: W
HStem: 0 292<483.379 687.652 1507.38 1711.65> 292 146<630 1733.31> 1462 148<6.20898 306>
VStem: 0 436<1468.63 1603.74> 438 294<44.3479 247.652> 438 220<364 512> 1462 294<44.3479 247.652>
LayerCount: 3
Fore
SplineSet
658 512 m 0,0,1
 658 488 658 488 630 438 c 1,2,-1
 1682 438 l 2,3,4
 1712 438 1712 438 1734 417 c 128,-1,5
 1756 396 1756 396 1756 366 c 256,6,7
 1756 336 1756 336 1734 314 c 128,-1,8
 1712 292 1712 292 1682 292 c 2,9,-1
 512 292 l 2,10,11
 482 292 482 292 460 314 c 128,-1,12
 438 336 438 336 438 364 c 128,-1,13
 438 392 438 392 466 444 c 2,14,15
 466 444 466 444 508 522 c 1,16,-1
 306 1462 l 1,17,-1
 74 1462 l 2,18,19
 44 1462 44 1462 22 1484 c 128,-1,20
 0 1506 0 1506 0 1536 c 256,21,22
 0 1566 0 1566 22 1588 c 128,-1,23
 44 1610 44 1610 74 1610 c 2,24,-1
 366 1610 l 2,25,26
 424 1610 424 1610 436 1557 c 128,-1,27
 448 1504 448 1504 456 1462 c 1,28,-1
 1828 1462 l 2,29,30
 1858 1462 1858 1462 1880 1441 c 128,-1,31
 1902 1420 1902 1420 1902 1390 c 2,32,-1
 1902 804 l 2,33,34
 1902 778 1902 778 1883 756 c 128,-1,35
 1864 734 1864 734 1836 732 c 2,36,-1
 644 592 l 1,37,38
 658 522 658 522 658 512 c 0,0,1
438 146 m 256,39,40
 438 206 438 206 482 249 c 128,-1,41
 526 292 526 292 586 292 c 256,42,43
 646 292 646 292 689 249 c 128,-1,44
 732 206 732 206 732 146 c 128,-1,45
 732 86 732 86 689 43 c 128,-1,46
 646 0 646 0 586 0 c 256,47,48
 526 0 526 0 482 43 c 128,-1,49
 438 86 438 86 438 146 c 256,39,40
1462 146 m 256,50,51
 1462 206 1462 206 1506 249 c 128,-1,52
 1550 292 1550 292 1610 292 c 256,53,54
 1670 292 1670 292 1713 249 c 128,-1,55
 1756 206 1756 206 1756 146 c 256,56,57
 1756 86 1756 86 1713 43 c 128,-1,58
 1670 0 1670 0 1610 0 c 256,59,60
 1550 0 1550 0 1506 43 c 128,-1,61
 1462 86 1462 86 1462 146 c 256,50,51
EndSplineSet
Validated: 8388613
EndChar

StartChar: uniE0FB
Encoding: 57595 57595 32
Width: 1462
GlyphClass: 2
Flags: W
HStem: 0 804<524.324 939.676> 878 878<542.543 919.664>
VStem: 0 1462<129.612 656.137> 292 878<1128.53 1507.66>
LayerCount: 3
Fore
SplineSet
732 804 m 128,-1,1
 935 804 935 804 1090 950 c 1,2,3
 1293 950 1293 950 1388 739 c 0,4,5
 1462 575 1462 575 1462 302 c 0,6,7
 1462 178 1462 178 1391 89 c 128,-1,8
 1320 0 1320 0 1220 0 c 2,9,-1
 244 0 l 2,10,11
 144 0 144 0 72 89 c 128,-1,12
 0 178 0 178 0 297 c 128,-1,13
 0 416 0 416 16 531 c 0,14,15
 50 779 50 779 190 892 c 0,16,17
 262 950 262 950 374 950 c 1,18,0
 529 804 529 804 732 804 c 128,-1,1
328 1146 m 0,19,20
 292 1226 292 1226 292 1317 c 128,-1,21
 292 1408 292 1408 328 1488 c 0,22,23
 397 1651 397 1651 560 1720 c 0,24,25
 640 1756 640 1756 731 1756 c 128,-1,26
 822 1756 822 1756 902 1721 c 0,27,28
 1068 1648 1068 1648 1136 1488 c 0,29,30
 1170 1408 1170 1408 1170 1317 c 0,31,32
 1170 1134 1170 1134 1042 1006 c 128,-1,33
 914 878 914 878 732 878 c 0,34,35
 547 878 547 878 421 1006 c 0,36,37
 362 1066 362 1066 328 1146 c 0,19,20
EndSplineSet
Validated: 8388609
EndChar

StartChar: uniE111
Encoding: 57617 57617 33
Width: 2048
GlyphClass: 2
Flags: W
HStem: 1601 295<1058.3 1375.85>
VStem: 198 224<9 409.012>
LayerCount: 3
Fore
SplineSet
460 494 m 1,0,1
 422 334 422 334 422 207 c 0,2,3
 422 179 422 179 424 154 c 2,4,5
 424 154 424 154 434 9 c 1,6,-1
 198 9 l 1,7,8
 198 304 198 304 287 569 c 0,9,10
 379 844 379 844 488 991 c 0,11,12
 518 1032 518 1032 519 1034 c 0,13,14
 644 1194 644 1194 793 1303 c 0,15,16
 1061 1498 1061 1498 1290 1573 c 0,17,18
 1378 1602 1378 1602 1377 1601 c 1,19,20
 1165 1601 1165 1601 974 1529 c 0,21,22
 585 1384 585 1384 337 1035 c 0,23,24
 216 865 216 865 152 667 c 1,25,26
 83 881 83 881 83 1064 c 0,27,28
 83 1458 83 1458 368 1675 c 1,29,30
 547 1818 547 1818 820 1870 c 0,31,32
 954 1896 954 1896 1089 1896 c 128,-1,33
 1224 1896 1224 1896 1342 1878 c 0,34,35
 1709 1826 1709 1826 1943 1649 c 0,36,37
 1969 1631 1969 1631 1965 1588 c 0,38,39
 1962 1564 1962 1564 1937 1550 c 0,40,41
 1825 1486 1825 1486 1746 1413 c 0,42,43
 1606 1282 1606 1282 1516 1111 c 0,44,45
 1477 1034 1477 1034 1437.5 949 c 128,-1,46
 1398 864 1398 864 1349 776 c 0,47,48
 1181 472 1181 472 757 472 c 0,49,50
 615 472 615 472 460 494 c 1,0,1
EndSplineSet
Validated: 37
EndChar

StartChar: uniE112
Encoding: 57618 57618 34
Width: 2048
GlyphClass: 2
Flags: W
HStem: 61 116<1174.53 1405.63> 537 65<178.077 655.766> 572 111<1653.3 1857.78> 599 117<858.184 1366.86> 710 45<35.1973 461.906> 834 21<44.5 76.2996> 1062 128<1440.49 1828> 1652 124<739.713 975.539>
VStem: 607 92<1423.97 1609.2> 1023 135<1312.09 1604.3> 1054 78<223.216 406.33> 1473 129<246.121 498.228> 1546 68<734.296 882.554> 1913 135<739.421 973.986>
LayerCount: 3
Fore
SplineSet
34 750 m 1,0,1
 72 752 72 752 150 755 c 0,2,3
 328 762 328 762 442 774 c 0,4,5
 672 800 672 800 991.5 946.5 c 128,-1,6
 1311 1093 1311 1093 1374 1120 c 0,7,8
 1540 1191 1540 1191 1683 1190 c 0,9,10
 1814 1190 1814 1190 1897 1131 c 0,11,12
 2048 1025 2048 1025 2048 858 c 0,13,14
 2048 754 2048 754 1994 686 c 0,15,16
 1904 572 1904 572 1774 572 c 0,17,18
 1672 572 1672 572 1615 632 c 0,19,20
 1546 702 1546 702 1546 789 c 0,21,22
 1546 838 1546 838 1572 878 c 128,-1,23
 1598 918 1598 918 1680 954 c 1,24,25
 1644 896 1644 896 1642 894 c 0,26,27
 1614 858 1614 858 1614 819.5 c 128,-1,28
 1614 781 1614 781 1642 742 c 0,29,30
 1682 683 1682 683 1749 683 c 0,31,32
 1829 683 1829 683 1881 754 c 0,33,34
 1913 798 1913 798 1913 850 c 128,-1,35
 1913 902 1913 902 1882 954 c 0,36,37
 1817 1062 1817 1062 1702 1062 c 2,38,39
 1702 1062 1702 1062 1697 1062 c 0,40,41
 1556 1059 1556 1059 1492.5 1038.5 c 128,-1,42
 1429 1018 1429 1018 1389 1003.5 c 128,-1,43
 1349 989 1349 989 1302.5 971 c 128,-1,44
 1256 953 1256 953 1226 941 c 128,-1,45
 1196 929 1196 929 1140 906 c 128,-1,46
 1084 883 1084 883 1062 874 c 0,47,48
 659 711 659 711 285 710 c 0,49,50
 171 710 171 710 108 720.5 c 128,-1,51
 45 731 45 731 31 733 c 0,52,53
 31 734 31 734 34 750 c 1,0,1
0 666 m 1,54,55
 144 604 144 604 303 602 c 2,56,57
 303 602 303 602 350 602 c 0,58,59
 461 602 461 602 567 619 c 128,-1,60
 673 636 673 636 795 660 c 0,61,62
 1089 718 1089 718 1180 716 c 2,63,64
 1180 716 1180 716 1228 715 c 128,-1,65
 1276 714 1276 714 1347 694 c 128,-1,66
 1418 674 1418 674 1480 622 c 0,67,68
 1600 523 1600 523 1602 373 c 0,69,70
 1602 291 1602 291 1555.5 207.5 c 128,-1,71
 1509 124 1509 124 1416 84 c 0,72,73
 1361 61 1361 61 1314 61 c 0,74,75
 1160 61 1160 61 1088 175 c 0,76,77
 1054 229 1054 229 1054 271 c 0,78,79
 1056 395 1056 395 1128 440 c 0,80,81
 1181 474 1181 474 1256 460 c 1,82,83
 1210 437 1210 437 1208 435 c 0,84,85
 1132 390 1132 390 1132 323 c 128,-1,86
 1132 256 1132 256 1174 220 c 0,87,88
 1223 177 1223 177 1287 177 c 0,89,90
 1389 177 1389 177 1445 270 c 0,91,92
 1473 316 1473 316 1473 372 c 0,93,94
 1473 445 1473 445 1429 498 c 0,95,96
 1346 599 1346 599 1220 599 c 1,97,98
 1220 599 1220 599 1127 595.5 c 128,-1,99
 1034 592 1034 592 868 573 c 0,100,101
 552 537 552 537 478 537 c 0,102,103
 229 537 229 537 102 596 c 0,104,105
 51 620 51 620 0 666 c 1,54,55
872 1368 m 1,106,107
 797 1322 797 1322 736 1344 c 0,108,109
 711 1354 711 1354 683 1376 c 0,110,111
 606 1436 606 1436 607 1529 c 0,112,113
 607 1621 607 1621 659 1679 c 0,114,115
 744 1774 744 1774 866 1776 c 0,116,117
 961 1776 961 1776 1039.5 1717.5 c 128,-1,118
 1118 1659 1118 1659 1146 1555 c 0,119,120
 1158 1510 1158 1510 1158 1457.5 c 128,-1,121
 1158 1405 1158 1405 1137 1346 c 0,122,123
 1080 1188 1080 1188 901 1071 c 0,124,125
 650 909 650 909 241 856 c 0,126,127
 169 847 169 847 47 834 c 1,128,129
 45 847 45 847 43 855 c 1,130,131
 109 876 109 876 218 901 c 0,132,133
 553 978 553 978 773 1119 c 0,134,135
 892 1196 892 1196 981 1316 c 0,136,137
 1023 1374 1023 1374 1023 1478 c 0,138,139
 1023 1572 1023 1572 969 1612.5 c 128,-1,140
 915 1653 915 1653 857 1652 c 0,141,142
 777 1652 777 1652 738.5 1610.5 c 128,-1,143
 700 1569 700 1569 699 1514 c 2,144,145
 699 1514 699 1514 699 1508 c 0,146,147
 699 1454 699 1454 727 1423 c 128,-1,148
 755 1392 755 1392 819 1380 c 0,149,150
 829 1378 829 1378 845 1374 c 128,-1,151
 861 1370 861 1370 872 1368 c 1,106,107
EndSplineSet
Validated: 8388641
EndChar

StartChar: uniE113
Encoding: 57619 57619 35
Width: 2048
GlyphClass: 2
Flags: W
HStem: 586 438<201.5 878 1170 1879.31> 1316 440<152.209 878 1170 1846.5>
VStem: 878 292<-124.342 512 1024 1244 1756 1879.31>
LayerCount: 3
Fore
SplineSet
42 805 m 128,-1,1
 42 820 42 820 54 830 c 2,2,-1
 214 992 l 2,3,4
 246 1024 246 1024 292 1024 c 2,5,-1
 878 1024 l 1,6,-1
 878 1244 l 1,7,-1
 1170 1244 l 1,8,-1
 1170 1024 l 1,9,-1
 1828 1024 l 2,10,11
 1858 1024 1858 1024 1880 1002 c 128,-1,12
 1902 980 1902 980 1902 950 c 2,13,-1
 1902 658 l 2,14,15
 1902 628 1902 628 1880 607 c 128,-1,16
 1858 586 1858 586 1828 586 c 2,17,-1
 292 586 l 2,18,19
 246 586 246 586 214 618 c 2,20,-1
 54 778 l 2,21,0
 42 790 42 790 42 805 c 128,-1,1
146 1390 m 2,22,-1
 146 1682 l 2,23,24
 146 1712 146 1712 168 1734 c 128,-1,25
 190 1756 190 1756 220 1756 c 2,26,-1
 878 1756 l 1,27,-1
 878 1828 l 2,28,29
 878 1858 878 1858 899 1880 c 128,-1,30
 920 1902 920 1902 950 1902 c 2,31,-1
 1098 1902 l 2,32,33
 1128 1902 1128 1902 1149 1880 c 128,-1,34
 1170 1858 1170 1858 1170 1828 c 2,35,-1
 1170 1756 l 1,36,-1
 1756 1756 l 2,37,38
 1797 1756 1797 1756 1834 1724 c 2,39,-1
 1994 1562 l 2,40,41
 2006 1552 2006 1552 2006 1536 c 128,-1,42
 2006 1520 2006 1520 1994 1510 c 2,43,-1
 1834 1348 l 2,44,45
 1797 1316 1797 1316 1756 1316 c 2,46,-1
 220 1316 l 2,47,48
 190 1316 190 1316 168 1338 c 128,-1,49
 146 1360 146 1360 146 1390 c 2,22,-1
878 -74 m 2,50,-1
 878 512 l 1,51,-1
 1170 512 l 1,52,-1
 1170 -74 l 2,53,54
 1170 -104 1170 -104 1149 -125 c 128,-1,55
 1128 -146 1128 -146 1098 -146 c 2,56,-1
 950 -146 l 2,57,58
 920 -146 920 -146 899 -125 c 128,-1,59
 878 -104 878 -104 878 -74 c 2,50,-1
EndSplineSet
Validated: 1
EndChar

StartChar: uniE12C
Encoding: 57644 57644 36
Width: 2048
GlyphClass: 2
Flags: W
HStem: 0 21G<1013 1043>
LayerCount: 3
Fore
SplineSet
126 865 m 0,0,1
 0 1046 0 1046 0 1232 c 0,2,3
 0 1472 0 1472 145 1613 c 0,4,5
 292 1756 292 1756 546 1756 c 0,6,7
 696 1756 696 1756 826 1666 c 128,-1,8
 956 1576 956 1576 1024 1508 c 1,9,10
 1092 1576 1092 1576 1222 1666 c 128,-1,11
 1352 1756 1352 1756 1491 1756 c 128,-1,12
 1630 1756 1630 1756 1731 1719 c 0,13,14
 1938 1643 1938 1643 2010 1446 c 0,15,16
 2048 1346 2048 1346 2048 1232 c 128,-1,17
 2048 1118 2048 1118 2009 1026 c 0,18,19
 1942 867 1942 867 1832 752 c 0,20,21
 1832 750 1832 750 1074 20 c 0,22,23
 1054 0 1054 0 1032 0 c 0,24,25
 994 0 994 0 974 20 c 2,26,-1
 260 708 l 2,27,28
 258 712 258 712 216 754 c 256,29,30
 174 796 174 796 126 865 c 0,0,1
EndSplineSet
Validated: 1
EndChar

StartChar: uniE12D
Encoding: 57645 57645 37
Width: 2048
GlyphClass: 2
Flags: W
HStem: 0 21G<1009 1039> 1610 146<338.938 705.142 1341.86 1709.82>
VStem: 0 146<1042.91 1442.47> 1902 146<1046.18 1443.27>
LayerCount: 3
Fore
SplineSet
126 865 m 0,0,1
 0 1046 0 1046 0 1232 c 0,2,3
 0 1472 0 1472 145 1613 c 0,4,5
 292 1756 292 1756 546 1756 c 0,6,7
 696 1756 696 1756 826 1666 c 128,-1,8
 956 1576 956 1576 1024 1508 c 1,9,10
 1092 1576 1092 1576 1222 1666 c 128,-1,11
 1352 1756 1352 1756 1491 1756 c 128,-1,12
 1630 1756 1630 1756 1731 1719 c 0,13,14
 1938 1643 1938 1643 2010 1446 c 0,15,16
 2048 1346 2048 1346 2048 1232 c 128,-1,17
 2048 1118 2048 1118 2009 1026 c 0,18,19
 1942 867 1942 867 1832 752 c 0,20,21
 1832 750 1832 750 1074 20 c 0,22,23
 1054 0 1054 0 1024 0 c 256,24,25
 994 0 994 0 974 20 c 2,26,-1
 260 708 l 2,27,28
 258 712 258 712 216 754 c 256,29,30
 174 796 174 796 126 865 c 0,0,1
146 1220 m 0,31,32
 146 1088 146 1088 252 940 c 0,33,34
 292 884 292 884 326 850 c 256,35,36
 360 816 360 816 360 814 c 2,37,-1
 1024 174 l 1,38,39
 1686 814 1686 814 1722 850 c 0,40,41
 1812 940 1812 940 1868 1070 c 0,42,43
 1902 1142 1902 1142 1902 1220 c 0,44,45
 1902 1462 1902 1462 1770 1536 c 128,-1,46
 1638 1610 1638 1610 1502 1610 c 0,47,48
 1389 1610 1389 1610 1249 1509 c 0,49,50
 1152 1439 1152 1439 1080 1354 c 0,51,52
 1060 1330 1060 1330 1024 1330 c 128,-1,53
 988 1330 988 1330 967 1355 c 128,-1,54
 946 1380 946 1380 901 1424 c 0,55,56
 798 1524 798 1524 676 1580 c 0,57,58
 610 1610 610 1610 546 1610 c 0,59,60
 410 1610 410 1610 278 1536 c 128,-1,61
 146 1462 146 1462 146 1220 c 0,31,32
EndSplineSet
Validated: 1
EndChar

StartChar: uniE12E
Encoding: 57646 57646 38
Width: 2048
GlyphClass: 2
Flags: W
VStem: 0 2048<1036 1478>
LayerCount: 3
Fore
SplineSet
157 1635 m 128,-1,1
 314 1792 314 1792 538 1792 c 0,2,3
 706 1792 706 1792 860 1656 c 1,4,-1
 704 1408 l 1,5,-1
 1152 1152 l 1,6,-1
 896 512 l 1,7,-1
 1600 1280 l 1,8,-1
 1152 1536 l 1,9,-1
 1276 1722 l 1,10,11
 1390 1792 1390 1792 1506 1792 c 0,12,13
 1734 1792 1734 1792 1891 1635 c 128,-1,14
 2048 1478 2048 1478 2048 1257 c 128,-1,15
 2048 1036 2048 1036 1943 879 c 128,-1,16
 1838 722 1838 722 1683 578 c 128,-1,17
 1528 434 1528 434 1350 276 c 256,18,19
 1172 118 1172 118 1024 -104 c 1,20,21
 868 120 868 120 689 275 c 128,-1,22
 510 430 510 430 357 572 c 128,-1,23
 204 714 204 714 102 871 c 128,-1,24
 0 1028 0 1028 0 1253 c 128,-1,0
 0 1478 0 1478 157 1635 c 128,-1,1
EndSplineSet
Validated: 1
EndChar

StartChar: uniE12F
Encoding: 57647 57647 39
Width: 2048
GlyphClass: 2
Flags: W
HStem: 0 21G<1009 1039> 878 878<300.188 602 1508 1750.11> 1462 294<419 831.5>
LayerCount: 3
Fore
SplineSet
118 878 m 1,0,1
 0 1052 0 1052 0 1220 c 0,2,3
 0 1472 0 1472 145 1613 c 0,4,5
 292 1756 292 1756 546 1756 c 0,6,7
 696 1756 696 1756 826 1666 c 128,-1,8
 956 1576 956 1576 1024 1508 c 1,9,10
 1092 1576 1092 1576 1222 1666 c 128,-1,11
 1352 1756 1352 1756 1491 1756 c 128,-1,12
 1630 1756 1630 1756 1731 1719 c 0,13,14
 1938 1643 1938 1643 2010 1446 c 0,15,16
 2048 1346 2048 1346 2048 1220 c 0,17,18
 2048 1052 2048 1052 1930 878 c 1,19,-1
 1508 878 l 1,20,-1
 1382 1130 l 2,21,22
 1360 1175 1360 1175 1310 1170 c 0,23,24
 1259 1165 1259 1165 1246 1118 c 2,25,-1
 1100 626 l 1,26,-1
 876 1410 l 2,27,28
 859 1462 859 1462 804 1462 c 0,29,30
 778 1462 778 1462 759 1447 c 128,-1,31
 740 1432 740 1432 734 1408 c 2,32,-1
 602 878 l 1,33,-1
 118 878 l 1,0,1
236 732 m 1,34,-1
 658 732 l 2,35,36
 684 732 684 732 704 747 c 128,-1,37
 724 762 724 762 730 786 c 2,38,-1
 810 1108 l 1,39,-1
 1026 346 l 2,40,41
 1044 292 1044 292 1098 292 c 0,42,43
 1122 292 1122 292 1141 307 c 128,-1,44
 1160 322 1160 322 1166 346 c 2,45,-1
 1334 900 l 1,46,-1
 1398 772 l 2,47,48
 1420 732 1420 732 1462 732 c 2,49,-1
 1812 732 l 1,50,51
 1802 720 1802 720 1795 714 c 128,-1,52
 1788 708 1788 708 1786 706 c 2,53,-1
 1074 20 l 2,54,55
 1054 0 1054 0 1024 0 c 256,56,57
 994 0 994 0 974 20 c 0,58,59
 260 708 260 708 253 715 c 2,60,61
 253 715 253 715 236 732 c 1,34,-1
EndSplineSet
Validated: 8388641
EndChar

StartChar: uniE138
Encoding: 57656 57656 40
Width: 2048
GlyphClass: 2
Flags: W
HStem: 0 21G<466 506 1542 1582>
LayerCount: 3
Fore
SplineSet
128 358 m 1,0,-1
 666 896 l 1,1,-1
 128 1434 l 1,2,-1
 486 1792 l 1,3,-1
 1024 1254 l 1,4,-1
 1562 1792 l 1,5,-1
 1920 1434 l 1,6,-1
 1382 896 l 1,7,-1
 1920 358 l 1,8,-1
 1562 0 l 1,9,-1
 1024 538 l 1,10,-1
 486 0 l 1,11,-1
 128 358 l 1,0,-1
EndSplineSet
Validated: 1
EndChar

StartChar: uniE139
Encoding: 57657 57657 41
Width: 1610
GlyphClass: 2
Flags: W
LayerCount: 3
Fore
SplineSet
158 314 m 2,0,1
 126 342 126 342 126 377 c 0,2,3
 126 440 126 440 158 468 c 2,4,-1
 494 804 l 1,5,-1
 158 1140 l 2,6,7
 126 1172 126 1172 126 1218 c 256,8,9
 126 1264 126 1264 158 1296 c 2,10,-1
 314 1452 l 2,11,12
 346 1484 346 1484 379 1484 c 0,13,14
 436 1484 436 1484 468 1452 c 2,15,-1
 804 1116 l 1,16,-1
 1140 1452 l 2,17,18
 1177 1484 1177 1484 1218 1484 c 256,19,20
 1259 1484 1259 1484 1296 1452 c 2,21,-1
 1452 1296 l 2,22,23
 1484 1259 1484 1259 1484 1218 c 256,24,25
 1484 1177 1484 1177 1452 1140 c 2,26,-1
 1116 804 l 1,27,-1
 1452 468 l 2,28,29
 1484 436 1484 436 1484 403 c 0,30,31
 1484 346 1484 346 1452 314 c 2,32,-1
 1296 158 l 2,33,34
 1264 126 1264 126 1218 126 c 256,35,36
 1172 126 1172 126 1140 158 c 2,37,-1
 804 494 l 1,38,-1
 468 158 l 2,39,40
 440 126 440 126 405 126 c 0,41,42
 342 126 342 126 314 158 c 2,43,-1
 158 314 l 2,0,1
EndSplineSet
Validated: 1
EndChar

StartChar: uniE13E
Encoding: 57662 57662 42
Width: 2048
GlyphClass: 2
Flags: W
LayerCount: 3
Fore
SplineSet
170 764 m 2,0,1
 138 792 138 792 138 827 c 0,2,3
 138 890 138 890 170 918 c 2,4,-1
 326 1074 l 2,5,6
 358 1106 358 1106 391 1106 c 0,7,8
 450 1106 450 1106 482 1074 c 2,9,-1
 818 738 l 1,10,-1
 1566 1488 l 2,11,12
 1598 1520 1598 1520 1632 1520 c 0,13,14
 1690 1520 1690 1520 1722 1488 c 2,15,-1
 1878 1332 l 2,16,17
 1910 1304 1910 1304 1910 1269 c 0,18,19
 1910 1206 1910 1206 1878 1178 c 2,20,-1
 894 194 l 2,21,22
 866 162 866 162 831 162 c 0,23,24
 768 162 768 162 740 194 c 2,25,-1
 170 764 l 2,0,1
EndSplineSet
Validated: 1
EndChar

StartChar: uniE140
Encoding: 57664 57664 44
Width: 1910
GlyphClass: 2
Flags: W
HStem: 146 146<215.318 1403.86> 1600 126<958.438 1405.38> 1610 146<215.318 1415.24>
VStem: 5 146<357.069 1544.93> 1467 148<357.069 823.531>
LayerCount: 3
Fore
SplineSet
1373 1612 m 2,0,1
 1361 1600 1361 1600 1354 1600 c 128,-1,2
 1347 1600 1347 1600 1335 1603 c 0,3,4
 1307 1610 1307 1610 1285 1610 c 2,5,-1
 335 1610 l 2,6,7
 259 1610 259 1610 205 1556 c 128,-1,8
 151 1502 151 1502 151 1426 c 2,9,-1
 151 476 l 2,10,11
 151 400 151 400 205 346 c 128,-1,12
 259 292 259 292 335 292 c 2,13,-1
 1285 292 l 2,14,15
 1361 292 1361 292 1414 346 c 128,-1,16
 1467 400 1467 400 1467 476 c 2,17,-1
 1467 766 l 2,18,19
 1467 782 1467 782 1479 790 c 2,20,-1
 1551 864 l 2,21,22
 1563 876 1563 876 1572 876 c 0,23,24
 1595 876 1595 876 1605 863 c 128,-1,25
 1615 850 1615 850 1615 838 c 2,26,-1
 1615 476 l 2,27,28
 1615 340 1615 340 1518 243 c 128,-1,29
 1421 146 1421 146 1285 146 c 2,30,-1
 335 146 l 2,31,32
 197 146 197 146 101 243 c 128,-1,33
 5 340 5 340 5 476 c 2,34,-1
 5 1426 l 2,35,36
 5 1562 5 1562 101 1659 c 128,-1,37
 197 1756 197 1756 335 1756 c 2,38,-1
 1285 1756 l 2,39,40
 1359 1756 1359 1756 1419 1726 c 0,41,42
 1435 1722 1435 1722 1438 1707 c 0,43,44
 1443 1682 1443 1682 1429 1668 c 2,45,-1
 1373 1612 l 2,0,1
299 1024 m 128,-1,47
 299 1062 299 1062 327 1090 c 2,48,-1
 451 1214 l 2,49,50
 479 1242 479 1242 517 1242 c 128,-1,51
 555 1242 555 1242 583 1214 c 2,52,-1
 883 914 l 1,53,-1
 1623 1654 l 2,54,55
 1649 1682 1649 1682 1687 1682 c 128,-1,56
 1725 1682 1725 1682 1753 1654 c 2,57,-1
 1879 1528 l 2,58,59
 1905 1500 1905 1500 1905 1463 c 128,-1,60
 1905 1426 1905 1426 1879 1398 c 2,61,-1
 947 468 l 2,62,63
 921 440 921 440 883 440 c 128,-1,64
 845 440 845 440 817 468 c 2,65,-1
 327 958 l 2,66,46
 299 986 299 986 299 1024 c 128,-1,47
EndSplineSet
Validated: 8388609
EndChar

StartChar: uniE155
Encoding: 57685 57685 45
Width: 1902
GlyphClass: 2
Flags: W
HStem: 146 878<325.003 791.173 1349 1815.17> 1462 294<429.223 725.791 1453.22 1749.79>
VStem: 0 878<232.827 937.173> 0 292<1057 1321.28> 1024 878<232.827 937.173> 1024 292<1057 1321.28>
LayerCount: 3
Fore
SplineSet
0 366 m 2,0,-1
 0 1170 l 2,1,2
 0 1412 0 1412 172 1584 c 128,-1,3
 344 1756 344 1756 586 1756 c 2,4,-1
 658 1756 l 2,5,6
 688 1756 688 1756 710 1734 c 128,-1,7
 732 1712 732 1712 732 1682 c 2,8,-1
 732 1536 l 2,9,10
 732 1506 732 1506 710 1484 c 128,-1,11
 688 1462 688 1462 658 1462 c 2,12,-1
 586 1462 l 2,13,14
 464 1462 464 1462 378 1377 c 128,-1,15
 292 1292 292 1292 292 1170 c 2,16,-1
 292 1134 l 2,17,18
 292 1088 292 1088 324 1056 c 128,-1,19
 356 1024 356 1024 402 1024 c 2,20,-1
 658 1024 l 2,21,22
 750 1024 750 1024 814 960 c 128,-1,23
 878 896 878 896 878 804 c 2,24,-1
 878 366 l 2,25,26
 878 274 878 274 814 210 c 128,-1,27
 750 146 750 146 658 146 c 2,28,-1
 220 146 l 2,29,30
 128 146 128 146 64 210 c 128,-1,31
 0 274 0 274 0 366 c 2,0,-1
1024 366 m 2,32,-1
 1024 1170 l 2,33,34
 1024 1412 1024 1412 1196 1584 c 128,-1,35
 1368 1756 1368 1756 1610 1756 c 2,36,-1
 1682 1756 l 2,37,38
 1712 1756 1712 1756 1734 1734 c 128,-1,39
 1756 1712 1756 1712 1756 1682 c 2,40,-1
 1756 1536 l 2,41,42
 1756 1506 1756 1506 1734 1484 c 128,-1,43
 1712 1462 1712 1462 1682 1462 c 2,44,-1
 1610 1462 l 2,45,46
 1488 1462 1488 1462 1402 1377 c 128,-1,47
 1316 1292 1316 1292 1316 1170 c 2,48,-1
 1316 1134 l 2,49,50
 1316 1088 1316 1088 1348 1056 c 128,-1,51
 1380 1024 1380 1024 1426 1024 c 2,52,-1
 1682 1024 l 2,53,54
 1774 1024 1774 1024 1838 960 c 128,-1,55
 1902 896 1902 896 1902 804 c 2,56,-1
 1902 366 l 2,57,58
 1902 274 1902 274 1838 210 c 128,-1,59
 1774 146 1774 146 1682 146 c 2,60,-1
 1244 146 l 2,61,62
 1152 146 1152 146 1088 210 c 128,-1,63
 1024 274 1024 274 1024 366 c 2,32,-1
EndSplineSet
Validated: 8388609
EndChar

StartChar: uniE15F
Encoding: 57695 57695 46
Width: 2340
GlyphClass: 2
Flags: W
HStem: 217 132<572.094 976.552 1168.19 1768.95> 1405 134<574.171 975.677 1168.19 1765.4>
VStem: 114 132<674.621 1080.26> 1302 132<676.321 1078.54> 2094 132<676.584 1080.26>
LayerCount: 3
Fore
SplineSet
549 300 m 4,0,1
 318 402 318 402 217 634 c 4,2,3
 167 748 167 748 167 877.5 c 132,-1,4
 167 1007 167 1007 217 1121 c 4,5,6
 317 1353 317 1353 549 1456 c 4,7,8
 664 1506 664 1506 794 1506 c 6,9,-1
 1547 1506 l 6,10,11
 1676 1506 1676 1506 1790 1456 c 4,12,13
 2025 1354 2025 1354 2125 1121 c 4,14,15
 2173 1006 2173 1006 2173 877 c 132,-1,16
 2173 748 2173 748 2124 634 c 4,17,18
 2025 403 2025 403 1791 300 c 4,19,20
 1676 250 1676 250 1547 250 c 6,21,-1
 794 250 l 6,22,23
 664 250 664 250 549 300 c 4,0,1
599 1339 m 4,24,25
 411 1258 411 1258 331 1073 c 4,26,27
 292 981 292 981 292 877 c 4,28,29
 292 670 292 670 439.5 523 c 132,-1,30
 587 376 587 376 794 376 c 4,31,32
 897 376 897 376 989 415 c 4,33,34
 1174 495 1174 495 1256 683 c 4,35,36
 1295 774 1295 774 1295 877.5 c 132,-1,37
 1295 981 1295 981 1256 1073 c 4,38,39
 1175 1260 1175 1260 988 1339 c 4,40,41
 897 1378 897 1378 793.5 1378 c 132,-1,42
 690 1378 690 1378 599 1339 c 4,24,25
1168 376 m 5,43,-1
 1547 376 l 6,44,45
 1650 376 1650 376 1742 415 c 4,46,47
 1927 495 1927 495 2009 683 c 4,48,49
 2048 774 2048 774 2048 877.5 c 132,-1,50
 2048 981 2048 981 2009 1073 c 4,51,52
 1928 1260 1928 1260 1741 1339 c 4,53,54
 1650 1378 1650 1378 1547 1379 c 6,55,-1
 1168 1379 l 5,56,57
 1345 1245 1345 1245 1403 1027 c 4,58,59
 1420 955 1420 955 1420 878 c 4,60,61
 1420 648 1420 648 1273 473 c 4,62,63
 1225 419 1225 419 1168 376 c 5,43,-1
EndSplineSet
Validated: 1
EndChar

StartChar: uniE160
Encoding: 57696 57696 47
Width: 2340
GlyphClass: 2
Flags: W
HStem: 250 125<1354.76 1739> 1379 127<1354.61 1735.63>
VStem: 167 878<684.79 1070.14> 2048 125<686.655 1070.14>
LayerCount: 3
Fore
SplineSet
549 300 m 0,0,1
 318 402 318 402 217 634 c 0,2,3
 167 748 167 748 167 877.5 c 128,-1,4
 167 1007 167 1007 217 1121 c 0,5,6
 317 1353 317 1353 549 1456 c 0,7,8
 664 1506 664 1506 794 1506 c 2,9,-1
 1547 1506 l 2,10,11
 1676 1506 1676 1506 1790 1456 c 0,12,13
 2025 1354 2025 1354 2125 1121 c 0,14,15
 2173 1006 2173 1006 2173 877 c 128,-1,16
 2173 748 2173 748 2124 634 c 0,17,18
 2025 403 2025 403 1791 300 c 0,19,20
 1676 250 1676 250 1547 250 c 2,21,-1
 794 250 l 2,22,23
 664 250 664 250 549 300 c 0,0,1
1352 1339 m 0,24,25
 1164 1258 1164 1258 1084 1073 c 0,26,27
 1045 981 1045 981 1045 877 c 0,28,29
 1045 670 1045 670 1192.5 523 c 128,-1,30
 1340 376 1340 376 1547 376 c 0,31,32
 1650 376 1650 376 1742 415 c 0,33,34
 1927 495 1927 495 2009 683 c 0,35,36
 2048 774 2048 774 2048 877.5 c 128,-1,37
 2048 981 2048 981 2009 1073 c 0,38,39
 1928 1260 1928 1260 1741 1339 c 0,40,41
 1650 1378 1650 1378 1546.5 1378 c 128,-1,42
 1443 1378 1443 1378 1352 1339 c 0,24,25
EndSplineSet
Validated: 1
EndChar

StartChar: uniE16C
Encoding: 57708 57708 48
Width: 2194
GlyphClass: 2
Flags: W
HStem: 146 146<438 1756> 402 184<940.734 1253.73> 1206 148<1040 1168.1> 1462 148<438 1756>
VStem: 0 146<586 1170> 2048 146<586 1170>
LayerCount: 3
Fore
SplineSet
0 220 m 2,0,-1
 0 1536 l 2,1,2
 0 1566 0 1566 22 1588 c 128,-1,3
 44 1610 44 1610 74 1610 c 2,4,-1
 2122 1610 l 2,5,6
 2152 1610 2152 1610 2173 1588 c 128,-1,7
 2194 1566 2194 1566 2194 1536 c 2,8,-1
 2194 220 l 2,9,10
 2194 190 2194 190 2173 168 c 128,-1,11
 2152 146 2152 146 2122 146 c 2,12,-1
 74 146 l 2,13,14
 44 146 44 146 22 168 c 128,-1,15
 0 190 0 190 0 220 c 2,0,-1
146 586 m 1,16,17
 268 586 268 586 353 500 c 128,-1,18
 438 414 438 414 438 292 c 1,19,-1
 1756 292 l 1,20,21
 1756 414 1756 414 1842 500 c 128,-1,22
 1928 586 1928 586 2048 586 c 1,23,-1
 2048 1170 l 1,24,25
 1928 1170 1928 1170 1842 1256 c 128,-1,26
 1756 1342 1756 1342 1756 1462 c 1,27,-1
 438 1462 l 1,28,29
 438 1342 438 1342 353 1256 c 128,-1,30
 268 1170 268 1170 146 1170 c 1,31,-1
 146 586 l 1,16,17
732 878 m 256,32,33
 732 1054 732 1054 824 1194 c 0,34,35
 929 1354 929 1354 1098 1354 c 0,36,37
 1265 1354 1265 1354 1370 1194 c 0,38,39
 1462 1054 1462 1054 1462 878 c 256,40,41
 1462 702 1462 702 1370 562 c 0,42,43
 1265 402 1265 402 1098 402 c 0,44,45
 929 402 929 402 824 562 c 0,46,47
 732 702 732 702 732 878 c 256,32,33
958 958 m 1,48,49
 1004 996 1004 996 1022 1024 c 1,50,-1
 1024 1024 l 1,51,-1
 1024 694 l 1,52,-1
 878 694 l 1,53,-1
 878 586 l 1,54,-1
 1316 586 l 1,55,-1
 1316 694 l 1,56,-1
 1170 694 l 1,57,-1
 1170 1206 l 1,58,-1
 1040 1206 l 1,59,-1
 870 1050 l 1,60,-1
 958 958 l 1,48,49
EndSplineSet
Validated: 1
EndChar

StartChar: uniE17A
Encoding: 57722 57722 49
Width: 2048
GlyphClass: 2
Flags: W
HStem: -115 243<676.257 767.681 1273.35 1363.7> 894 348<906.279 1142.77> 1150 227<1294.4 1502.65> 1431 477<424.45 703.66 1345.27 1624.2>
VStem: 321 185<912.139 1093.84> 322 479<1529.49 1806.28> 325 197<-97.9856 588.959> 605 172<-32.9883 119.621> 849 350<948.664 1184.96> 849 140<-100.981 181.996> 1050 147<-109.25 175.774> 1248 480<1530.68 1804.79> 1270 166<-103.863 134.158> 1373 72<150.889 381.736> 1529 194<-87.6984 387.044>
LayerCount: 3
Fore
SplineSet
1340 -115 m 0,0,1
 1270 -113 1270 -113 1270 -44 c 0,2,3
 1270 -31 1270 -31 1269 128 c 1,4,5
 1355 138 1355 138 1364 150.5 c 128,-1,6
 1373 163 1373 163 1373 167.5 c 128,-1,7
 1373 172 1373 172 1372.5 188.5 c 128,-1,8
 1372 205 1372 205 1369.5 216 c 128,-1,9
 1367 227 1367 227 1360.5 261 c 128,-1,10
 1354 295 1354 295 1340 369 c 0,11,12
 1324 450 1324 450 1304.5 544 c 128,-1,13
 1285 638 1285 638 1285 654 c 0,14,15
 1285 702 1285 702 1324 738 c 0,16,17
 1411 817 1411 817 1502 915 c 0,18,19
 1542 958 1542 958 1541.5 1011.5 c 128,-1,20
 1541 1065 1541 1065 1504 1104 c 0,21,22
 1461 1150 1461 1150 1410 1150 c 128,-1,23
 1359 1150 1359 1150 1316 1122 c 0,24,25
 1314 1121 1314 1121 1274 1089 c 1,26,27
 1253 1209 1253 1209 1147 1283 c 1,28,29
 1219 1375 1219 1375 1318 1377 c 0,30,31
 1365 1378 1365 1378 1644 1378 c 0,32,33
 1733 1378 1733 1378 1801 1311 c 0,34,35
 1936 1180 1936 1180 2008 1106 c 0,36,37
 2048 1065 2048 1065 2048 1024 c 128,-1,38
 2048 983 2048 983 2018.5 955 c 128,-1,39
 1989 927 1989 927 1954 928 c 2,40,41
 1954 928 1954 928 1929 930 c 128,-1,42
 1904 932 1904 932 1882 952 c 128,-1,43
 1860 972 1860 972 1747 1079 c 0,44,45
 1744 1077 1744 1077 1732 1071 c 1,46,47
 1756 917 1756 917 1776 816.5 c 128,-1,48
 1796 716 1796 716 1814 623 c 128,-1,49
 1832 530 1832 530 1838 500.5 c 128,-1,50
 1844 471 1844 471 1845.5 457 c 128,-1,51
 1847 443 1847 443 1849 430 c 128,-1,52
 1851 417 1851 417 1842.5 406.5 c 128,-1,53
 1834 396 1834 396 1823 397 c 128,-1,54
 1812 398 1812 398 1795 397 c 0,55,56
 1750 402 1750 402 1736 387.5 c 128,-1,57
 1722 373 1722 373 1722 348 c 128,-1,58
 1722 323 1722 323 1723 207 c 128,-1,59
 1724 91 1724 91 1724.5 45.5 c 128,-1,60
 1725 0 1725 0 1720 -35.5 c 128,-1,61
 1715 -71 1715 -71 1689.5 -93.5 c 128,-1,62
 1664 -116 1664 -116 1627 -115 c 2,63,64
 1627 -115 1627 -115 1625 -115 c 0,65,66
 1584 -114 1584 -114 1558 -88.5 c 128,-1,67
 1532 -63 1532 -63 1531 -18 c 0,68,69
 1529 74 1529 74 1529 117 c 2,70,71
 1529 117 1529 117 1529 207 c 128,-1,72
 1529 297 1529 297 1530 317 c 0,73,74
 1531 383 1531 383 1487 395 c 0,75,76
 1468 399 1468 399 1456.5 388.5 c 128,-1,77
 1445 378 1445 378 1445 357 c 0,78,79
 1444 74 1444 74 1444 28.5 c 128,-1,80
 1444 -17 1444 -17 1436 -47 c 128,-1,81
 1428 -77 1428 -77 1403 -96 c 128,-1,82
 1378 -115 1378 -115 1360 -115 c 2,83,84
 1360 -115 1360 -115 1340 -115 c 0,0,1
902 1284 m 1,85,86
 793 1207 793 1207 775 1089 c 1,87,88
 768 1094 768 1094 756 1104 c 0,89,90
 734 1121 734 1121 708 1136 c 0,91,92
 673 1157 673 1157 622.5 1148 c 128,-1,93
 572 1139 572 1139 539 1100 c 128,-1,94
 506 1061 506 1061 506 1010.5 c 128,-1,95
 506 960 506 960 541 922 c 0,96,97
 637 816 637 816 718 745 c 0,98,99
 750 717 750 717 756 692 c 0,100,101
 767 648 767 648 758 613 c 0,102,103
 663 169 663 169 676 150 c 0,104,105
 684 140 684 140 721 136 c 128,-1,106
 758 132 758 132 768 120 c 128,-1,107
 778 108 778 108 777 78 c 0,108,109
 774 -2 774 -2 777 -34 c 0,110,111
 782 -98 782 -98 734 -112 c 0,112,113
 706 -121 706 -121 674 -112 c 128,-1,114
 642 -103 642 -103 630 -79 c 0,115,116
 606 -31 606 -31 605 25 c 128,-1,117
 604 81 604 81 603.5 306.5 c 128,-1,118
 603 532 603 532 602 547 c 0,119,120
 599 589 599 589 564 589 c 2,121,122
 564 589 564 589 562 589 c 0,123,124
 526 588 526 588 524 544 c 0,125,126
 522 506 522 506 522 45 c 0,127,128
 522 -12 522 -12 513 -46 c 128,-1,129
 504 -80 504 -80 478 -97.5 c 128,-1,130
 452 -115 452 -115 436 -115 c 2,131,132
 436 -115 436 -115 407.5 -113.5 c 128,-1,133
 379 -112 379 -112 357 -91.5 c 128,-1,134
 335 -71 335 -71 330 -42 c 128,-1,135
 325 -13 325 -13 325 96 c 2,136,137
 325 96 325 96 325 543.5 c 128,-1,138
 325 991 325 991 321 1095 c 1,139,140
 308 1083 308 1083 279 1056 c 128,-1,141
 250 1029 250 1029 239.5 1019.5 c 128,-1,142
 229 1010 229 1010 212 994 c 0,143,144
 180 961 180 961 156 944.5 c 128,-1,145
 132 928 132 928 114 928 c 2,146,147
 114 928 114 928 82 930 c 128,-1,148
 50 932 50 932 25 959.5 c 128,-1,149
 0 987 0 987 0 1022 c 128,-1,150
 0 1057 0 1057 14 1075 c 0,151,152
 33 1101 33 1101 240 1306 c 0,153,154
 313 1379 313 1379 415 1378 c 2,155,156
 415 1378 415 1378 456 1377.5 c 128,-1,157
 497 1377 497 1377 568 1377 c 128,-1,158
 639 1377 639 1377 673 1377.5 c 128,-1,159
 707 1378 707 1378 710 1378 c 0,160,161
 822 1379 822 1379 902 1284 c 1,85,86
753 211 m 1,162,163
 753 211 753 211 840 667 c 1,164,165
 840 728 840 728 782 776 c 0,166,167
 744 807 744 807 693 860 c 128,-1,168
 642 913 642 913 621.5 933.5 c 128,-1,169
 601 954 601 954 589 971 c 128,-1,170
 577 988 577 988 579 1017.5 c 128,-1,171
 581 1047 581 1047 602 1063.5 c 128,-1,172
 623 1080 623 1080 646.5 1080 c 128,-1,173
 670 1080 670 1080 687 1068 c 128,-1,174
 704 1056 704 1056 729.5 1032 c 128,-1,175
 755 1008 755 1008 786 977 c 0,176,177
 849 912 849 912 901 864.5 c 128,-1,178
 953 817 953 817 1022 816 c 2,179,180
 1022 816 1022 816 1024 816 c 0,181,182
 1092 816 1092 816 1154 871 c 0,183,184
 1188 902 1188 902 1237 951 c 2,185,186
 1237 951 1237 951 1288 1001.5 c 128,-1,187
 1339 1052 1339 1052 1358 1066 c 128,-1,188
 1377 1080 1377 1080 1404.5 1079 c 128,-1,189
 1432 1078 1432 1078 1450 1059.5 c 128,-1,190
 1468 1041 1468 1041 1468.5 1012 c 128,-1,191
 1469 983 1469 983 1456.5 967 c 128,-1,192
 1444 951 1444 951 1436 942.5 c 128,-1,193
 1428 934 1428 934 1415.5 922 c 128,-1,194
 1403 910 1403 910 1394 901 c 128,-1,195
 1385 892 1385 892 1352 858 c 0,196,197
 1300 804 1300 804 1259.5 767.5 c 128,-1,198
 1219 731 1219 731 1211.5 704.5 c 128,-1,199
 1204 678 1204 678 1214 632 c 128,-1,200
 1224 586 1224 586 1257 414 c 128,-1,201
 1290 242 1290 242 1294 213 c 1,202,203
 1222 197 1222 197 1210 182 c 0,204,205
 1197 166 1197 166 1197 -25 c 0,206,207
 1194 -114 1194 -114 1123 -115 c 0,208,209
 1053 -115 1053 -115 1050 -23 c 0,210,211
 1049 -20 1049 -20 1049.5 3.5 c 128,-1,212
 1050 27 1050 27 1050 70 c 2,213,214
 1050 70 1050 70 1050 96 c 128,-1,215
 1050 122 1050 122 1050 134 c 0,216,217
 1052 169 1052 169 1044 176 c 128,-1,218
 1036 183 1036 183 1028.5 189 c 128,-1,219
 1021 195 1021 195 1017 199 c 1,220,221
 1015 196 1015 196 1009 190 c 0,222,223
 995 174 995 174 995 170 c 0,224,225
 995 -25 995 -25 989.5 -55 c 128,-1,226
 984 -85 984 -85 962 -101.5 c 128,-1,227
 940 -118 940 -118 912 -114 c 0,228,229
 851 -105 851 -105 849 -48 c 0,230,231
 848 -23 848 -23 848 72 c 128,-1,232
 848 167 848 167 838.5 182.5 c 128,-1,233
 829 198 829 198 800.5 202.5 c 128,-1,234
 772 207 772 207 753 211 c 1,162,163
734.5 1499.5 m 128,-1,236
 668 1432 668 1432 565 1431 c 2,237,238
 565 1431 565 1431 563 1431 c 0,239,240
 464 1431 464 1431 393.5 1498.5 c 128,-1,241
 323 1566 323 1566 322 1664 c 2,242,243
 322 1664 322 1664 322 1668 c 0,244,245
 322 1766 322 1766 392 1837 c 0,246,247
 463 1908 463 1908 563 1908 c 2,248,249
 563 1908 563 1908 565 1908 c 0,250,251
 665 1907 665 1907 733 1838 c 128,-1,252
 801 1769 801 1769 801 1668 c 128,-1,235
 801 1567 801 1567 734.5 1499.5 c 128,-1,236
1489 1908 m 0,253,254
 1587 1906 1587 1906 1657 1835.5 c 128,-1,255
 1727 1765 1727 1765 1727.5 1667 c 128,-1,256
 1728 1569 1728 1569 1657 1500 c 128,-1,257
 1586 1431 1586 1431 1485 1431 c 128,-1,258
 1384 1431 1384 1431 1316 1497.5 c 128,-1,259
 1248 1564 1248 1564 1247.5 1667 c 128,-1,260
 1247 1770 1247 1770 1316 1839 c 128,-1,261
 1385 1908 1385 1908 1484 1908 c 2,262,263
 1484 1908 1484 1908 1489 1908 c 0,253,254
1028 1242 m 0,264,265
 1102 1240 1102 1240 1150.5 1190 c 128,-1,266
 1199 1140 1199 1140 1199 1065.5 c 128,-1,267
 1199 991 1199 991 1149.5 942.5 c 128,-1,268
 1100 894 1100 894 1023 894 c 128,-1,269
 946 894 946 894 897.5 943.5 c 128,-1,270
 849 993 849 993 849 1067 c 2,271,272
 849 1067 849 1067 849 1074 c 0,273,274
 851 1147 851 1147 901.5 1194 c 128,-1,275
 952 1241 952 1241 1023 1242 c 2,276,277
 1023 1242 1023 1242 1028 1242 c 0,264,265
EndSplineSet
Validated: 8388641
EndChar

StartChar: uniE189
Encoding: 57737 57737 50
Width: 1290
GlyphClass: 2
Flags: W
HStem: 146 146<290.345 573 719 999.656> 1756 146<436.301 852.849>
VStem: -13 146<1036.5 1457.02> 573 146<-135.686 146 292 596.053> 1157 146<1031.15 1456.93>
LayerCount: 3
Fore
SplineSet
140 821 m 128,-1,1
 61 916 61 916 24 1027 c 128,-1,2
 -13 1138 -13 1138 -13 1263 c 128,-1,3
 -13 1388 -13 1388 41 1504 c 0,4,5
 144 1726 144 1726 353 1832 c 0,6,7
 490 1902 490 1902 621.5 1902 c 128,-1,8
 753 1902 753 1902 869 1863 c 128,-1,9
 985 1824 985 1824 1086 1733 c 128,-1,10
 1187 1642 1187 1642 1245 1516 c 256,11,12
 1303 1390 1303 1390 1303 1253 c 128,-1,13
 1303 1116 1303 1116 1258 1003 c 0,14,15
 1167 775 1167 775 949 660 c 0,16,17
 841 604 841 604 719 590 c 1,18,-1
 719 292 l 1,19,-1
 975 292 l 2,20,21
 989 292 989 292 1000 282 c 128,-1,22
 1011 272 1011 272 1011 256 c 2,23,-1
 1011 182 l 2,24,25
 1011 168 1011 168 1000 157 c 128,-1,26
 989 146 989 146 975 146 c 2,27,-1
 719 146 l 1,28,-1
 719 -110 l 2,29,30
 719 -126 719 -126 708 -136 c 128,-1,31
 697 -146 697 -146 681 -146 c 2,32,-1
 609 -146 l 2,33,34
 593 -146 593 -146 583 -136 c 128,-1,35
 573 -126 573 -126 573 -110 c 2,36,-1
 573 146 l 1,37,-1
 317 146 l 2,38,39
 301 146 301 146 290 157 c 128,-1,40
 279 168 279 168 279 182 c 2,41,-1
 279 256 l 2,42,43
 279 272 279 272 290 282 c 128,-1,44
 301 292 301 292 317 292 c 2,45,-1
 573 292 l 1,46,-1
 573 590 l 1,47,48
 443 604 443 604 331 665 c 128,-1,0
 219 726 219 726 140 821 c 128,-1,1
133 1244 m 0,49,50
 133 1138 133 1138 173 1045 c 0,51,52
 255 854 255 854 447 772 c 0,53,54
 539 732 539 732 645 732 c 0,55,56
 857 732 857 732 1007 882 c 128,-1,57
 1157 1032 1157 1032 1157 1244 c 0,58,59
 1157 1457 1157 1457 1007 1605 c 0,60,61
 854 1756 854 1756 645 1756 c 256,62,63
 436 1756 436 1756 283 1605 c 0,64,65
 133 1457 133 1457 133 1244 c 0,49,50
EndSplineSet
Validated: 1
EndChar

StartChar: uniE18A
Encoding: 57738 57738 51
Width: 1756
GlyphClass: 2
Flags: W
HStem: 0 146<446.115 869.885> 1170 146<446.115 870.707> 1610 146<1181.34 1506>
VStem: 0 146<446.115 869.885> 1170 146<446.115 870.707> 1610 146<1181.34 1506>
LayerCount: 3
Fore
SplineSet
1172 1068 m 1,0,1
 1316 890 1316 890 1316 658 c 0,2,3
 1316 522 1316 522 1265 402 c 0,4,5
 1162 159 1162 159 914 52 c 0,6,7
 794 0 794 0 658 0 c 256,8,9
 522 0 522 0 402 52 c 0,10,11
 158 158 158 158 52 402 c 0,12,13
 0 522 0 522 0 658 c 256,14,15
 0 794 0 794 52 914 c 0,16,17
 160 1163 160 1163 402 1264 c 0,18,19
 522 1316 522 1316 658 1316 c 0,20,21
 890 1316 890 1316 1068 1172 c 1,22,-1
 1506 1610 l 1,23,-1
 1206 1610 l 2,24,25
 1192 1610 1192 1610 1181 1620 c 128,-1,26
 1170 1630 1170 1630 1170 1646 c 2,27,-1
 1170 1718 l 2,28,29
 1170 1734 1170 1734 1181 1745 c 128,-1,30
 1192 1756 1192 1756 1206 1756 c 2,31,-1
 1682 1756 l 2,32,33
 1712 1756 1712 1756 1734 1734 c 128,-1,34
 1756 1712 1756 1712 1756 1682 c 2,35,-1
 1756 1206 l 2,36,37
 1756 1192 1756 1192 1745 1181 c 128,-1,38
 1734 1170 1734 1170 1718 1170 c 2,39,-1
 1646 1170 l 2,40,41
 1630 1170 1630 1170 1620 1181 c 128,-1,42
 1610 1192 1610 1192 1610 1206 c 2,43,-1
 1610 1506 l 1,44,-1
 1172 1068 l 1,0,1
146 658 m 256,45,46
 146 446 146 446 296 296 c 128,-1,47
 446 146 446 146 658 146 c 128,-1,48
 870 146 870 146 1020 296 c 128,-1,49
 1170 446 1170 446 1170 658 c 256,50,51
 1170 870 1170 870 1020 1020 c 128,-1,52
 870 1170 870 1170 658 1170 c 256,53,54
 446 1170 446 1170 296 1020 c 128,-1,55
 146 870 146 870 146 658 c 256,45,46
EndSplineSet
Validated: 1
EndChar

StartChar: uniE18B
Encoding: 57739 57739 52
Width: 1582
GlyphClass: 2
Flags: W
HStem: 0 146<435.345 572 718 852.656> 298 140<439.694 572 718 850.258> 1462 147<431.938 856.624> 1756 146<1167.34 1346>
VStem: -14 146<737.715 1163.71> 572 146<-135.686 0 146 303.443> 1156 146<738.96 1164.33> 1448 148<1473.34 1652>
LayerCount: 3
Fore
SplineSet
1158 1362 m 1,0,1
 1302 1184 1302 1184 1302 950 c 0,2,3
 1302 697 1302 697 1133 511 c 0,4,5
 1054 424 1054 424 947 367 c 128,-1,6
 840 310 840 310 718 298 c 1,7,-1
 718 146 l 1,8,-1
 828 146 l 2,9,10
 842 146 842 146 853 136 c 128,-1,11
 864 126 864 126 864 110 c 2,12,-1
 864 36 l 2,13,14
 864 22 864 22 853 11 c 128,-1,15
 842 0 842 0 828 0 c 2,16,-1
 718 0 l 1,17,-1
 718 -110 l 2,18,19
 718 -126 718 -126 707 -136 c 128,-1,20
 696 -146 696 -146 680 -146 c 2,21,-1
 608 -146 l 2,22,23
 592 -146 592 -146 582 -136 c 128,-1,24
 572 -126 572 -126 572 -110 c 2,25,-1
 572 0 l 1,26,-1
 462 0 l 2,27,28
 446 0 446 0 435 11 c 128,-1,29
 424 22 424 22 424 36 c 2,30,-1
 424 110 l 2,31,32
 424 126 424 126 435 136 c 128,-1,33
 446 146 446 146 462 146 c 2,34,-1
 572 146 l 1,35,-1
 572 298 l 1,36,37
 311 326 311 326 140 529 c 0,38,39
 -14 712 -14 712 -14 950 c 0,40,41
 -14 1094 -14 1094 46 1224 c 0,42,43
 143 1435 143 1435 350 1540 c 0,44,45
 485 1609 485 1609 649 1609 c 0,46,47
 874 1609 874 1609 1054 1466 c 1,48,-1
 1346 1756 l 1,49,-1
 1192 1756 l 2,50,51
 1178 1756 1178 1756 1167 1766 c 128,-1,52
 1156 1776 1156 1776 1156 1792 c 2,53,-1
 1156 1866 l 2,54,55
 1156 1880 1156 1880 1167 1891 c 128,-1,56
 1178 1902 1178 1902 1192 1902 c 2,57,-1
 1522 1902 l 2,58,59
 1552 1902 1552 1902 1574 1880 c 128,-1,60
 1596 1858 1596 1858 1596 1828 c 2,61,-1
 1596 1500 l 2,62,63
 1596 1484 1596 1484 1585 1473 c 128,-1,64
 1574 1462 1574 1462 1558 1462 c 2,65,-1
 1486 1462 l 2,66,67
 1470 1462 1470 1462 1459 1473 c 128,-1,68
 1448 1484 1448 1484 1448 1500 c 2,69,-1
 1448 1652 l 1,70,-1
 1158 1362 l 1,0,1
132 950 m 0,71,72
 132 737 132 737 282 589 c 0,73,74
 435 438 435 438 644 438 c 128,-1,75
 853 438 853 438 1006 589 c 0,76,77
 1156 737 1156 737 1156 950 c 0,78,79
 1156 1165 1156 1165 1006 1313 c 0,80,81
 855 1462 855 1462 644 1462 c 256,82,83
 433 1462 433 1462 282 1313 c 0,84,85
 132 1165 132 1165 132 950 c 0,71,72
EndSplineSet
Validated: 1
EndChar

StartChar: uniE194
Encoding: 57748 57748 53
Width: 2048
GlyphClass: 2
Flags: W
HStem: 96 140<810.674 1234.98> 419 737<850.379 1198.87> 1310 172<180.539 295.988 296 369.517> 1339 380<811.02 1239.38>
VStem: 0 163<1188.35 1296.47> 655 738<609.457 960.754> 1575 473<572.021 1004.18>
LayerCount: 3
Fore
SplineSet
2048 1288 m 2,0,1
 2048 1288 2048 1288 2048 290 c 0,2,3
 2048 196 2048 196 1997.5 146 c 128,-1,4
 1947 96 1947 96 1852 96 c 2,5,6
 1852 96 1852 96 213 96 c 0,7,8
 102 96 102 96 51.5 146 c 128,-1,9
 1 196 1 196 0 308 c 2,10,11
 0 308 0 308 0 1264 c 0,12,13
 0 1381 0 1381 51 1431.5 c 128,-1,14
 102 1482 102 1482 209 1482 c 0,15,16
 408 1484 408 1484 484.5 1482 c 128,-1,17
 561 1480 561 1480 580.5 1493 c 128,-1,18
 600 1506 600 1506 606.5 1528 c 128,-1,19
 613 1550 613 1550 624 1573 c 128,-1,20
 635 1596 635 1596 639 1606 c 0,21,22
 682 1720 682 1720 813 1720 c 2,23,24
 813 1720 813 1720 868 1719.5 c 128,-1,25
 923 1719 923 1719 1030 1719 c 128,-1,26
 1137 1719 1137 1719 1185 1719.5 c 128,-1,27
 1233 1720 1233 1720 1235 1720 c 0,28,29
 1376 1720 1376 1720 1409 1602 c 0,30,31
 1429 1529 1429 1529 1467.5 1503.5 c 128,-1,32
 1506 1478 1506 1478 1540 1478.5 c 128,-1,33
 1574 1479 1574 1479 1598 1482 c 128,-1,34
 1622 1485 1622 1485 1658.5 1486 c 128,-1,35
 1695 1487 1695 1487 1720 1486.5 c 128,-1,36
 1745 1486 1745 1486 1788 1484.5 c 128,-1,37
 1831 1483 1831 1483 1852 1482 c 0,38,39
 1947 1480 1947 1480 1997.5 1430.5 c 128,-1,40
 2048 1381 2048 1381 2048 1288 c 2,0,1
180 1297 m 128,-1,42
 163 1280 163 1280 163 1261.5 c 128,-1,43
 163 1243 163 1243 165 1221 c 128,-1,44
 167 1199 167 1199 173 1188 c 0,45,46
 184 1165 184 1165 264 1165 c 2,47,48
 264 1165 264 1165 282.5 1164.5 c 128,-1,49
 301 1164 301 1164 315 1166 c 0,50,51
 352 1170 352 1170 361.5 1191 c 128,-1,52
 371 1212 371 1212 371 1249 c 0,53,54
 371 1314 371 1314 296 1312 c 1,55,56
 296 1307 296 1307 246.5 1310.5 c 128,-1,41
 197 1314 197 1314 180 1297 c 128,-1,42
1021 236 m 2,57,58
 1021 236 1021 236 1025 236 c 0,59,60
 1134 236 1134 236 1235 279 c 0,61,62
 1440 366 1440 366 1531 572 c 0,63,64
 1576 675 1576 675 1575 787 c 0,65,66
 1575 899 1575 899 1532 1001 c 128,-1,67
 1489 1103 1489 1103 1415.5 1177 c 128,-1,68
 1342 1251 1342 1251 1240.5 1294.5 c 128,-1,69
 1139 1338 1139 1338 1027 1339 c 2,70,71
 1027 1339 1027 1339 1025 1339 c 0,72,73
 913 1339 913 1339 811 1296 c 0,74,75
 606 1209 606 1209 517 1005 c 0,76,77
 473 902 473 902 473 789.5 c 128,-1,78
 473 677 473 677 515.5 576 c 128,-1,79
 558 475 558 475 632 400.5 c 128,-1,80
 706 326 706 326 807.5 281.5 c 128,-1,81
 909 237 909 237 1021 236 c 2,57,58
1023 419 m 0,82,83
 922 419 922 419 837 468 c 128,-1,84
 752 517 752 517 703.5 601.5 c 128,-1,85
 655 686 655 686 655 786.5 c 128,-1,86
 655 887 655 887 705 972 c 128,-1,87
 755 1057 755 1057 840 1106.5 c 128,-1,88
 925 1156 925 1156 1024.5 1156 c 128,-1,89
 1124 1156 1124 1156 1209 1106.5 c 128,-1,90
 1294 1057 1294 1057 1343.5 971.5 c 128,-1,91
 1393 886 1393 886 1393 785.5 c 128,-1,92
 1393 685 1393 685 1343.5 600 c 128,-1,93
 1294 515 1294 515 1209.5 467 c 128,-1,94
 1125 419 1125 419 1024 419 c 2,95,96
 1024 419 1024 419 1023 419 c 0,82,83
EndSplineSet
Validated: 8388641
EndChar

StartChar: uniE195
Encoding: 57749 57749 54
Width: 2048
GlyphClass: 2
Flags: W
HStem: 207 626<-0.125 182.48> 375 346<467.367 660.59> 442 156<221.125 436.115>
VStem: -0 214<239.942 439.633 598.698 787.775> 1892 93<871.982 1026.59>
LayerCount: 3
Fore
SplineSet
399 1220 m 1,0,1
 494 1587 494 1587 505.5 1629.5 c 128,-1,2
 517 1672 517 1672 556 1673 c 0,3,4
 570 1673 570 1673 638 1655 c 0,5,6
 870 1593 870 1593 1321.5 1478 c 128,-1,7
 1773 1363 1773 1363 1981 1308 c 0,8,9
 2042 1292 2042 1292 2048 1249 c 0,10,11
 2051 1225 2051 1225 2018 1203 c 0,12,13
 2015 1201 2015 1201 1998 1188 c 0,14,15
 1900 1111 1900 1111 1651 929 c 0,16,17
 1618 904 1618 904 1590 911 c 0,18,19
 456 1197 456 1197 399 1220 c 1,0,1
-0 830 m 1,20,21
 0 830 -0 830 104 833 c 0,22,23
 159 833 159 833 184 789 c 0,24,25
 206 750 206 750 215 685 c 128,-1,26
 224 620 224 620 229 598 c 1,27,28
 368 598 368 598 402 599 c 0,29,30
 412 599 412 599 424 622 c 0,31,32
 477 721 477 721 584 721 c 2,33,34
 584 721 584 721 602 720.5 c 128,-1,35
 620 720 620 720 631 731 c 0,36,37
 654 756 654 756 771 887 c 1,38,39
 471 965 471 965 453 970 c 2,40,41
 453 970 453 970 427 976 c 0,42,43
 361 996 361 996 361 1055 c 0,44,45
 361 1071 361 1071 387 1167 c 1,46,47
 552 1123 552 1123 951 1021 c 128,-1,48
 1350 919 1350 919 1474 886.5 c 128,-1,49
 1598 854 1598 854 1621 854 c 128,-1,50
 1644 854 1644 854 1683.5 888.5 c 128,-1,51
 1723 923 1723 923 1795 958 c 1,52,53
 1789 935 1789 935 1774 878 c 0,54,55
 1747 771 1747 771 1723 703 c 0,56,57
 1713 675 1713 675 1685.5 666 c 128,-1,58
 1658 657 1658 657 1627 667 c 0,59,60
 1301 752 1301 752 1094 802 c 0,61,62
 1056 811 1056 811 1023 790 c 0,63,64
 917 714 917 714 782 604 c 0,65,66
 757 584 757 584 755 552 c 0,67,68
 747 435 747 435 652 392 c 0,69,70
 615 375 615 375 567.5 375 c 128,-1,71
 520 375 520 375 464 422 c 0,72,73
 443 440 443 440 409 441 c 128,-1,74
 375 442 375 442 331.5 442 c 128,-1,75
 288 442 288 442 264 440 c 0,76,77
 222 438 222 438 216 406 c 0,78,79
 213 401 213 401 213.5 362 c 128,-1,80
 214 323 214 323 214 318 c 0,81,82
 212 269 212 269 183.5 239 c 128,-1,83
 155 209 155 209 107 207 c 0,84,85
 101 207 101 207 -0 206 c 1,86,-1
 -0 830 l 1,20,21
1818 757 m 1,87,88
 1881 1000 1881 1000 1892 1043 c 1,89,90
 1964 1040 1964 1040 1974.5 1027 c 128,-1,91
 1985 1014 1985 1014 1985 994.5 c 128,-1,92
 1985 975 1985 975 1978 948.5 c 128,-1,93
 1971 922 1971 922 1959.5 875 c 128,-1,94
 1948 828 1948 828 1936.5 784.5 c 128,-1,95
 1925 741 1925 741 1904 732 c 0,96,97
 1900 730 1900 730 1884.5 730 c 128,-1,98
 1869 730 1869 730 1818 757 c 1,87,88
EndSplineSet
Validated: 8388641
EndChar

StartChar: uniE1A1
Encoding: 57761 57761 55
Width: 2048
GlyphClass: 2
Flags: W
HStem: -128 711<716.649 976.149>
VStem: 662 138<691.173 768.732> 871 136<824.486 895.264> 1093 187<1314.2 1906.27> 1392 227<593.441 782.004>
LayerCount: 3
Fore
SplineSet
465 840 m 1,0,1
 561 693 561 693 562 690 c 0,2,3
 629 589 629 589 709 583 c 1,4,5
 709 583 709 583 717 583 c 0,6,7
 792 583 792 583 866 670 c 0,8,9
 894 703 894 703 929 713 c 0,10,11
 1022 741 1022 741 1056 781.5 c 128,-1,12
 1090 822 1090 822 1104 920 c 1,13,14
 1132 812 1132 812 1259 731 c 0,15,16
 1300 704 1300 704 1300 683.5 c 128,-1,17
 1300 663 1300 663 1254 632 c 0,18,19
 1244 625 1244 625 1212 603.5 c 128,-1,20
 1180 582 1180 582 1165 571.5 c 128,-1,21
 1150 561 1150 561 1125 543 c 0,22,23
 1060 496 1060 496 1043 474.5 c 128,-1,24
 1026 453 1026 453 1020 443.5 c 128,-1,25
 1014 434 1014 434 1010 427.5 c 128,-1,26
 1006 421 1006 421 1000.5 409 c 128,-1,27
 995 397 995 397 992.5 391 c 128,-1,28
 990 385 990 385 984.5 371 c 128,-1,29
 979 357 979 357 977.5 352.5 c 128,-1,30
 976 348 976 348 970.5 332.5 c 128,-1,31
 965 317 965 317 963 312 c 128,-1,32
 961 307 961 307 966 296 c 128,-1,33
 971 285 971 285 980.5 270 c 128,-1,34
 990 255 990 255 994 248 c 1,35,36
 1000 253 1000 253 1014 262 c 0,37,38
 1045 284 1045 284 1048 296 c 0,39,40
 1070 389 1070 389 1132 447 c 128,-1,41
 1194 505 1194 505 1263.5 536 c 128,-1,42
 1333 567 1333 567 1355 592 c 0,43,44
 1395 638 1395 638 1392 700 c 0,45,46
 1392 756 1392 756 1339.5 787 c 128,-1,47
 1287 818 1287 818 1246 851.5 c 128,-1,48
 1205 885 1205 885 1205.5 915.5 c 128,-1,49
 1206 946 1206 946 1215.5 966.5 c 128,-1,50
 1225 987 1225 987 1233 994 c 128,-1,51
 1241 1001 1241 1001 1251 1001 c 128,-1,52
 1261 1001 1261 1001 1268.5 999 c 128,-1,53
 1276 997 1276 997 1288 992.5 c 128,-1,54
 1300 988 1300 988 1324.5 981.5 c 128,-1,55
 1349 975 1349 975 1427.5 952 c 128,-1,56
 1506 929 1506 929 1526 924 c 0,57,58
 1617 898 1617 898 1619 794 c 2,59,60
 1619 794 1619 794 1619 783 c 0,61,62
 1619 623 1619 623 1540 459 c 0,63,64
 1507 391 1507 391 1444 264 c 128,-1,65
 1381 137 1381 137 1374.5 123 c 128,-1,66
 1368 109 1368 109 1362.5 99.5 c 128,-1,67
 1357 90 1357 90 1354 84 c 0,68,69
 1346 70 1346 70 1346 46.5 c 128,-1,70
 1346 23 1346 23 1336.5 -2 c 128,-1,71
 1327 -27 1327 -27 1313 -42.5 c 128,-1,72
 1299 -58 1299 -58 1275 -71 c 0,73,74
 1243 -89 1243 -89 1168 -108.5 c 128,-1,75
 1093 -128 1093 -128 976.5 -128 c 128,-1,76
 860 -128 860 -128 715 -68 c 0,77,78
 682 -54 682 -54 666 -36 c 0,79,80
 646 -12 646 -12 654 29 c 1,81,82
 654 70 654 70 610 178.5 c 128,-1,83
 566 287 566 287 537 337.5 c 128,-1,84
 508 388 508 388 495 421 c 128,-1,85
 482 454 482 454 475 491 c 0,86,87
 460 570 460 570 460 611.5 c 128,-1,88
 460 653 460 653 459.5 669 c 128,-1,89
 459 685 459 685 459 702 c 0,90,91
 462 778 462 778 465 840 c 1,0,1
1093 1461 m 2,92,93
 1093 1461 1093 1461 1094 1560 c 128,-1,94
 1095 1659 1095 1659 1095 1816 c 0,95,96
 1095 1897 1095 1897 1156 1915 c 0,97,98
 1205 1930 1205 1930 1238 1907 c 128,-1,99
 1271 1884 1271 1884 1277 1831 c 0,100,101
 1278 1823 1278 1823 1280 1596 c 0,102,103
 1283 1254 1283 1254 1283 1096 c 1,104,105
 1272 1099 1272 1099 1269 1100 c 0,106,107
 1257 1120 1257 1120 1231 1166 c 0,108,109
 1186 1243 1186 1243 1140 1310 c 128,-1,110
 1094 1377 1094 1377 1093 1461 c 2,92,93
1007 871 m 1,111,112
 1003 867 1003 867 992 854 c 0,113,114
 968 824 968 824 950.5 818.5 c 128,-1,115
 933 813 933 813 906 818 c 128,-1,116
 879 823 879 823 871 835 c 0,117,118
 747 1011 747 1011 648 1179 c 0,119,120
 640 1192 640 1192 647.5 1220 c 128,-1,121
 655 1248 655 1248 672 1268 c 128,-1,122
 689 1288 689 1288 717 1291 c 128,-1,123
 745 1294 745 1294 765 1269 c 0,124,125
 855 1137 855 1137 918 1036.5 c 128,-1,126
 981 936 981 936 990.5 921.5 c 128,-1,127
 1000 907 1000 907 1001.5 902.5 c 128,-1,128
 1003 898 1003 898 1004 888.5 c 128,-1,129
 1005 879 1005 879 1007 871 c 1,111,112
800 744 m 0,130,131
 797 740 797 740 787 726 c 0,132,133
 767 694 767 694 749 688.5 c 128,-1,134
 731 683 731 683 701 687.5 c 128,-1,135
 671 692 671 692 662 705 c 0,136,137
 572 831 572 831 442 1042 c 0,138,139
 408 1099 408 1099 468 1137 c 0,140,141
 492 1155 492 1155 520.5 1155 c 128,-1,142
 549 1155 549 1155 567 1129 c 0,143,144
 616 1058 616 1058 704.5 919.5 c 128,-1,145
 793 781 793 781 794 776.5 c 128,-1,146
 795 772 795 772 796.5 762 c 128,-1,147
 798 752 798 752 800 744 c 0,130,131
941 1420 m 0,148,149
 951 1420 951 1420 969.5 1402.5 c 128,-1,150
 988 1385 988 1385 998.5 1368.5 c 128,-1,151
 1009 1352 1009 1352 1138 1154 c 0,152,153
 1160 1120 1160 1120 1160 1089.5 c 128,-1,154
 1160 1059 1160 1059 1131.5 1039 c 128,-1,155
 1103 1019 1103 1019 1072 1018.5 c 128,-1,156
 1041 1018 1041 1018 1005 1072 c 0,157,158
 904 1223 904 1223 874.5 1273 c 128,-1,159
 845 1323 845 1323 845 1343 c 128,-1,160
 845 1363 845 1363 865.5 1391.5 c 128,-1,161
 886 1420 886 1420 941 1420 c 0,148,149
EndSplineSet
Validated: 33
EndChar

StartChar: uniE1A2
Encoding: 57762 57762 56
Width: 2048
GlyphClass: 2
Flags: W
VStem: 429 16<841.523 848> 1085 31<855.067 949.915> 1391 238<581.439 837>
LayerCount: 3
Fore
SplineSet
441 665 m 2,0,1
 441 665 441 665 441 702.5 c 128,-1,2
 441 740 441 740 429 848 c 1,3,4
 434 848 434 848 445 850 c 1,5,6
 532 713 532 713 566 664 c 0,7,8
 626 578 626 578 706 576 c 2,9,10
 706 576 706 576 710 576 c 0,11,12
 787 576 787 576 849 657 c 0,13,14
 882 702 882 702 937 713 c 0,15,16
 1043 736 1043 736 1074 814 c 0,17,18
 1085 841 1085 841 1085 861.5 c 128,-1,19
 1085 882 1085 882 1082 909 c 128,-1,20
 1079 936 1079 936 1064 961 c 128,-1,21
 1049 986 1049 986 1025.5 1024 c 128,-1,22
 1002 1062 1002 1062 993.5 1075.5 c 128,-1,23
 985 1089 985 1089 967 1118 c 0,24,25
 930 1175 930 1175 892 1223 c 128,-1,26
 854 1271 854 1271 817.5 1350 c 128,-1,27
 781 1429 781 1429 762.5 1488.5 c 128,-1,28
 744 1548 744 1548 717 1645.5 c 128,-1,29
 690 1743 690 1743 678 1780 c 0,30,31
 657 1843 657 1843 673.5 1871.5 c 128,-1,32
 690 1900 690 1900 723.5 1909.5 c 128,-1,33
 757 1919 757 1919 777 1919 c 128,-1,34
 797 1919 797 1919 819 1905.5 c 128,-1,35
 841 1892 841 1892 867 1810 c 128,-1,36
 893 1728 893 1728 957 1518 c 128,-1,37
 1021 1308 1021 1308 1038 1255 c 128,-1,38
 1055 1202 1055 1202 1058 1185.5 c 128,-1,39
 1061 1169 1061 1169 1064 1158 c 128,-1,40
 1067 1147 1067 1147 1072.5 1135 c 128,-1,41
 1078 1123 1078 1123 1088.5 1116.5 c 128,-1,42
 1099 1110 1099 1110 1115 1110 c 128,-1,43
 1131 1110 1131 1110 1142 1116.5 c 128,-1,44
 1153 1123 1153 1123 1158.5 1135 c 128,-1,45
 1164 1147 1164 1147 1167 1158 c 128,-1,46
 1170 1169 1170 1169 1173 1185.5 c 128,-1,47
 1176 1202 1176 1202 1213 1326 c 128,-1,48
 1250 1450 1250 1450 1358 1822 c 0,49,50
 1371 1869 1371 1869 1390.5 1894 c 128,-1,51
 1410 1919 1410 1919 1452 1920 c 2,52,53
 1452 1920 1452 1920 1458 1920 c 0,54,55
 1513 1920 1513 1920 1534 1890 c 128,-1,56
 1555 1860 1555 1860 1555 1833 c 128,-1,57
 1555 1806 1555 1806 1531 1712 c 128,-1,58
 1507 1618 1507 1618 1377 1119 c 0,59,60
 1377 1117 1377 1117 1358 1067 c 1,61,62
 1320 1069 1320 1069 1298 1073 c 0,63,64
 1237 1084 1237 1084 1199.5 1071.5 c 128,-1,65
 1162 1059 1162 1059 1139 1012.5 c 128,-1,66
 1116 966 1116 966 1116 936 c 0,67,68
 1116 841 1116 841 1183 783 c 0,69,70
 1197 771 1197 771 1225 751.5 c 128,-1,71
 1253 732 1253 732 1277 712 c 0,72,73
 1328 670 1328 670 1259 624 c 0,74,75
 1243 613 1243 613 1198 586 c 0,76,77
 1111 534 1111 534 1086 507.5 c 128,-1,78
 1061 481 1061 481 1051.5 469 c 128,-1,79
 1042 457 1042 457 1033 442 c 2,80,81
 1033 442 1033 442 1022.5 424.5 c 128,-1,82
 1012 407 1012 407 1003 388 c 128,-1,83
 994 369 994 369 990 361 c 0,84,85
 960 300 960 300 965.5 287.5 c 128,-1,86
 971 275 971 275 981 260 c 128,-1,87
 991 245 991 245 994 238 c 1,88,89
 999 243 999 243 1011 252 c 0,90,91
 1037 273 1037 273 1040 286 c 0,92,93
 1066 387 1066 387 1138 449 c 0,94,95
 1204 506 1204 506 1267.5 534.5 c 128,-1,96
 1331 563 1331 563 1351 582 c 0,97,98
 1391 620 1391 620 1391 688 c 0,99,100
 1391 748 1391 748 1329 781 c 0,101,102
 1306 792 1306 792 1252 833 c 1,103,104
 1204 863 1204 863 1204 912 c 0,105,106
 1204 959 1204 959 1230 977 c 128,-1,107
 1256 995 1256 995 1268 992 c 0,108,109
 1455 946 1455 946 1560 906 c 0,110,111
 1626 881 1626 881 1629 793 c 0,112,113
 1629 771 1629 771 1624 747 c 0,114,115
 1586 564 1586 564 1546 461.5 c 128,-1,116
 1506 359 1506 359 1447.5 245.5 c 128,-1,117
 1389 132 1389 132 1368.5 89 c 128,-1,118
 1348 46 1348 46 1345 4 c 0,119,120
 1338 -74 1338 -74 1250 -97 c 0,121,122
 1130 -128 1130 -128 982.5 -128 c 128,-1,123
 835 -128 835 -128 657 -67 c 1,124,125
 657 -67 657 -67 657 -44 c 128,-1,126
 657 -21 657 -21 651.5 15 c 128,-1,127
 646 51 646 51 630 92.5 c 128,-1,128
 614 134 614 134 602 160 c 128,-1,129
 590 186 590 186 565 234 c 128,-1,130
 540 282 540 282 531 300 c 0,131,132
 441 485 441 485 441 665 c 2,0,1
520 1153 m 0,133,134
 522 1151 522 1151 533 1144 c 0,135,136
 558 1130 558 1130 570 1113 c 0,137,138
 679 952 679 952 776 795 c 0,139,140
 823 719 823 719 751 677 c 0,141,142
 726 662 726 662 696.5 662 c 128,-1,143
 667 662 667 662 640 704 c 0,144,145
 495 924 495 924 456.5 986 c 128,-1,146
 418 1048 418 1048 418.5 1070 c 128,-1,147
 419 1092 419 1092 431 1111 c 0,148,149
 457 1152 457 1152 520 1153 c 0,133,134
901 801 m 0,150,151
 894 801 894 801 876 814 c 128,-1,152
 858 827 858 827 853 835 c 0,153,154
 761 971 761 971 641 1161 c 0,155,156
 624 1189 624 1189 624 1218.5 c 128,-1,157
 624 1248 624 1248 659 1267.5 c 128,-1,158
 694 1287 694 1287 723.5 1287 c 128,-1,159
 753 1287 753 1287 779 1249 c 0,160,161
 940 1004 940 1004 970.5 953.5 c 128,-1,162
 1001 903 1001 903 1001 881 c 128,-1,163
 1001 859 1001 859 989 841 c 0,164,165
 964 802 964 802 901 801 c 0,150,151
EndSplineSet
Validated: 33
EndChar

StartChar: uniE1A3
Encoding: 57763 57763 57
Width: 2048
GlyphClass: 2
Flags: W
VStem: 861 210<1273.37 1891.12>
LayerCount: 3
Fore
SplineSet
881 1102 m 128,-1,1
 882 1117 882 1117 871.5 1449.5 c 128,-1,2
 861 1782 861 1782 861 1802 c 0,3,4
 861 1864 861 1864 894 1892 c 128,-1,5
 927 1920 927 1920 969 1920 c 128,-1,6
 1011 1920 1011 1920 1039.5 1893.5 c 128,-1,7
 1068 1867 1068 1867 1071 1822 c 0,8,9
 1078 1713 1078 1713 1089.5 1501.5 c 128,-1,10
 1101 1290 1101 1290 1105 1231.5 c 128,-1,11
 1109 1173 1109 1173 1111.5 1157 c 128,-1,12
 1114 1141 1114 1141 1118 1121 c 2,13,14
 1118 1121 1118 1121 1124 1091 c 1,15,16
 1129 1090 1129 1090 1139 1088.5 c 128,-1,17
 1149 1087 1149 1087 1153 1086 c 1,18,19
 1157 1097 1157 1097 1167 1119 c 0,20,21
 1189 1168 1189 1168 1202 1215 c 0,22,23
 1246 1375 1246 1375 1336 1694 c 0,24,25
 1353 1754 1353 1754 1380.5 1763.5 c 128,-1,26
 1408 1773 1408 1773 1437 1773 c 128,-1,27
 1466 1773 1466 1773 1486.5 1763 c 128,-1,28
 1507 1753 1507 1753 1521.5 1726 c 128,-1,29
 1536 1699 1536 1699 1534 1678 c 0,30,31
 1524 1600 1524 1600 1498 1487.5 c 128,-1,32
 1472 1375 1472 1375 1389 1038 c 1,33,34
 1344 1042 1344 1042 1319.5 1047.5 c 128,-1,35
 1295 1053 1295 1053 1271.5 1053 c 128,-1,36
 1248 1053 1248 1053 1237 1050 c 0,37,38
 1204 1041 1204 1041 1180.5 1000.5 c 128,-1,39
 1157 960 1157 960 1157.5 931 c 128,-1,40
 1158 902 1158 902 1159 888 c 0,41,42
 1168 827 1168 827 1211 788 c 0,43,44
 1235 767 1235 767 1277 737 c 128,-1,45
 1319 707 1319 707 1331 698 c 1,46,47
 1339 662 1339 662 1323 646 c 0,48,49
 1302 626 1302 626 1238 593.5 c 128,-1,50
 1174 561 1174 561 1111 500.5 c 128,-1,51
 1048 440 1048 440 1017 355 c 1,52,53
 992 305 992 305 1012 280 c 0,54,55
 1020 269 1020 269 1036 259 c 1,56,57
 1039 262 1039 262 1046 267 c 0,58,59
 1062 277 1062 277 1064 286 c 0,60,61
 1086 391 1086 391 1158 456 c 0,62,63
 1221 512 1221 512 1318 561 c 0,64,65
 1371 588 1371 588 1386 623 c 128,-1,66
 1401 658 1401 658 1405.5 674.5 c 128,-1,67
 1410 691 1410 691 1404 709 c 128,-1,68
 1398 727 1398 727 1385 738.5 c 128,-1,69
 1372 750 1372 750 1349.5 767 c 128,-1,70
 1327 784 1327 784 1299.5 801 c 128,-1,71
 1272 818 1272 818 1259 829 c 0,72,73
 1224 856 1224 856 1224 891 c 128,-1,74
 1224 926 1224 926 1233 949.5 c 128,-1,75
 1242 973 1242 973 1251 981 c 128,-1,76
 1260 989 1260 989 1274 989 c 0,77,78
 1296 989 1296 989 1311 984.5 c 128,-1,79
 1326 980 1326 980 1394.5 961.5 c 128,-1,80
 1463 943 1463 943 1533 919.5 c 128,-1,81
 1603 896 1603 896 1622 870 c 128,-1,82
 1641 844 1641 844 1642 804 c 128,-1,83
 1643 764 1643 764 1643 753 c 0,84,85
 1643 603 1643 603 1571 459 c 0,86,87
 1563 442 1563 442 1499 313.5 c 128,-1,88
 1435 185 1435 185 1406 125.5 c 128,-1,89
 1377 66 1377 66 1372 22 c 0,90,91
 1363 -72 1363 -72 1251 -102 c 0,92,93
 1152 -128 1152 -128 1076 -128 c 128,-1,94
 1000 -128 1000 -128 939 -122 c 0,95,96
 830 -111 830 -111 667 -69 c 0,97,98
 644 -63 644 -63 631 -21.5 c 128,-1,99
 618 20 618 20 602 84.5 c 128,-1,100
 586 149 586 149 573.5 188 c 128,-1,101
 561 227 561 227 525 286 c 0,102,103
 457 399 457 399 443 504 c 128,-1,104
 429 609 429 609 429 689 c 128,-1,105
 429 769 429 769 433 835 c 1,106,107
 450 809 450 809 478 764 c 0,108,109
 532 681 532 681 575 622 c 128,-1,110
 618 563 618 563 685 557 c 1,111,112
 685 557 685 557 696 557 c 0,113,114
 758 557 758 557 804.5 605.5 c 128,-1,115
 851 654 851 654 854 696 c 2,116,117
 854 696 854 696 854 702 c 0,118,119
 854 742 854 742 824.5 789.5 c 128,-1,120
 795 837 795 837 742 916 c 128,-1,121
 689 995 689 995 660 1040 c 0,122,123
 595 1146 595 1146 580 1219 c 0,124,125
 564 1299 564 1299 482 1571 c 0,126,127
 475 1597 475 1597 475 1617 c 0,128,129
 475 1675 475 1675 532 1692 c 0,130,131
 555 1699 555 1699 576 1699 c 0,132,133
 634 1699 634 1699 660 1620 c 0,134,135
 696 1507 696 1507 757.5 1300 c 128,-1,136
 819 1093 819 1093 825 1082 c 128,-1,137
 831 1071 831 1071 839 1056.5 c 128,-1,138
 847 1042 847 1042 850 1035 c 1,139,140
 854 1036 854 1036 862.5 1037.5 c 128,-1,141
 871 1039 871 1039 875 1040 c 0,142,143
 876 1050 876 1050 878 1068.5 c 128,-1,0
 880 1087 880 1087 881 1102 c 128,-1,1
766 761 m 0,144,145
 785 731 785 731 785 699 c 128,-1,146
 785 667 785 667 749.5 645.5 c 128,-1,147
 714 624 714 624 681.5 624 c 128,-1,148
 649 624 649 624 623.5 661 c 128,-1,149
 598 698 598 698 540.5 788.5 c 128,-1,150
 483 879 483 879 464 906 c 0,151,152
 406 989 406 989 405 1020.5 c 128,-1,153
 404 1052 404 1052 428 1080 c 128,-1,154
 452 1108 452 1108 510 1108 c 2,155,156
 510 1108 510 1108 516 1108 c 0,157,158
 519 1105 519 1105 532 1096 c 0,159,160
 561 1076 561 1076 574 1057 c 0,161,162
 666 922 666 922 766 761 c 0,144,145
EndSplineSet
Validated: 33
EndChar

StartChar: uniE1A4
Encoding: 57764 57764 58
Width: 2048
GlyphClass: 2
Flags: W
VStem: 662 178<1493.32 1797.46> 1088 196<1228.11 1904.32> 1398 233<555.039 702.168> 1541 187<1507.49 1655.47>
LayerCount: 3
Fore
SplineSet
1543 971 m 1,0,1
 1200 1018 1200 1018 1159 1018 c 0,2,3
 1027 1018 1027 1018 1021 867 c 1,4,5
 1021 747 1021 747 1156 694 c 0,6,7
 1164 691 1164 691 1320 633 c 1,8,9
 1213 555 1213 555 1209 551 c 0,10,11
 1069 443 1069 443 1033 311 c 0,12,13
 1025 280 1025 280 1025 260 c 128,-1,14
 1025 240 1025 240 1026 229.5 c 128,-1,15
 1027 219 1027 219 1038.5 204.5 c 128,-1,16
 1050 190 1050 190 1060 192 c 128,-1,17
 1070 194 1070 194 1085 204 c 128,-1,18
 1100 214 1100 214 1101 223 c 0,19,20
 1115 380 1115 380 1274 498 c 0,21,22
 1303 519 1303 519 1335 540 c 0,23,24
 1395 581 1395 581 1398 654 c 0,25,26
 1401 698 1401 698 1252 749 c 0,27,28
 1199 767 1199 767 1176 780 c 0,29,30
 1122 809 1122 809 1111 851.5 c 128,-1,31
 1100 894 1100 894 1117 916.5 c 128,-1,32
 1134 939 1134 939 1173 933 c 0,33,34
 1343 910 1343 910 1536 879 c 0,35,36
 1634 863 1634 863 1631 667 c 0,37,38
 1631 548 1631 548 1597 457 c 128,-1,39
 1563 366 1563 366 1520 265.5 c 128,-1,40
 1477 165 1477 165 1463 130.5 c 128,-1,41
 1449 96 1449 96 1438.5 65 c 128,-1,42
 1428 34 1428 34 1413.5 -10.5 c 128,-1,43
 1399 -55 1399 -55 1390 -80 c 1,44,45
 1259 -130 1259 -130 1122 -128 c 0,46,47
 971 -128 971 -128 761 -78 c 1,48,49
 750 -44 750 -44 728 20 c 0,50,51
 680 154 680 154 631 346 c 128,-1,52
 582 538 582 538 565.5 649.5 c 128,-1,53
 549 761 549 761 526.5 827.5 c 128,-1,54
 504 894 504 894 466 982.5 c 128,-1,55
 428 1071 428 1071 410 1118 c 128,-1,56
 392 1165 392 1165 358.5 1241.5 c 128,-1,57
 325 1318 325 1318 322.5 1330.5 c 128,-1,58
 320 1343 320 1343 321 1356 c 0,59,60
 323 1383 323 1383 348.5 1395 c 128,-1,61
 374 1407 374 1407 400.5 1407.5 c 128,-1,62
 427 1408 427 1408 455.5 1360.5 c 128,-1,63
 484 1313 484 1313 583 1152 c 128,-1,64
 682 991 682 991 688 978 c 0,65,66
 706 946 706 946 724 934 c 0,67,68
 754 914 754 914 778 904 c 1,69,70
 780 912 780 912 786 927 c 0,71,72
 800 958 800 958 798 976 c 0,73,74
 776 1101 776 1101 720 1396 c 0,75,76
 662 1703 662 1703 662 1732 c 0,77,78
 662 1801 662 1801 737 1811 c 0,79,80
 785 1815 785 1815 807.5 1798 c 128,-1,81
 830 1781 830 1781 840.5 1726.5 c 128,-1,82
 851 1672 851 1672 894.5 1438 c 128,-1,83
 938 1204 938 1204 942 1172 c 0,84,85
 956 1076 956 1076 968.5 1061 c 128,-1,86
 981 1046 981 1046 993.5 1035 c 128,-1,87
 1006 1024 1006 1024 1011 1018 c 1,88,89
 1015 1025 1015 1025 1026 1038 c 0,90,91
 1048 1065 1048 1065 1050 1080 c 0,92,93
 1060 1224 1060 1224 1074 1483.5 c 128,-1,94
 1088 1743 1088 1743 1088 1764 c 0,95,96
 1088 1804 1088 1804 1093.5 1841.5 c 128,-1,97
 1099 1879 1099 1879 1125 1899.5 c 128,-1,98
 1151 1920 1151 1920 1184 1920 c 0,99,100
 1284 1920 1284 1920 1284 1825 c 2,101,102
 1284 1825 1284 1825 1279.5 1680.5 c 128,-1,103
 1275 1536 1275 1536 1271 1402 c 0,104,105
 1263 1139 1263 1139 1265 1121 c 128,-1,106
 1267 1103 1267 1103 1272.5 1092.5 c 128,-1,107
 1278 1082 1278 1082 1288 1068.5 c 128,-1,108
 1298 1055 1298 1055 1302 1049 c 1,109,110
 1307 1054 1307 1054 1319 1062 c 0,111,112
 1345 1081 1345 1081 1357 1113.5 c 128,-1,113
 1369 1146 1369 1146 1424.5 1304 c 128,-1,114
 1480 1462 1480 1462 1494 1501 c 0,115,116
 1520 1568 1520 1568 1541 1634 c 128,-1,117
 1562 1700 1562 1700 1624 1700 c 0,118,119
 1692 1700 1692 1700 1718 1656 c 0,120,121
 1728 1639 1728 1639 1728 1619 c 128,-1,122
 1728 1599 1728 1599 1714.5 1551.5 c 128,-1,123
 1701 1504 1701 1504 1543 971 c 1,0,1
EndSplineSet
Validated: 8388641
EndChar

StartChar: uniE1A5
Encoding: 57765 57765 59
Width: 2048
GlyphClass: 2
Flags: W
VStem: 884 207<1108.15 1718.86> 912 196<1446.98 1893.19> 1352 200<1473.8 1684.15>
LayerCount: 3
Fore
SplineSet
898 1441 m 128,-1,1
 906 1633 906 1633 912 1753 c 128,-1,2
 918 1873 918 1873 945 1896.5 c 128,-1,3
 972 1920 972 1920 1021 1920 c 128,-1,4
 1070 1920 1070 1920 1089 1894 c 128,-1,5
 1108 1868 1108 1868 1108 1841 c 2,6,7
 1108 1841 1108 1841 1108 1825.5 c 128,-1,8
 1108 1810 1108 1810 1091 1175 c 0,9,10
 1091 1128 1091 1128 1092.5 1107.5 c 128,-1,11
 1094 1087 1094 1087 1105 1074.5 c 128,-1,12
 1116 1062 1116 1062 1126 1060 c 0,13,14
 1145 1056 1145 1056 1159.5 1072.5 c 128,-1,15
 1174 1089 1174 1089 1177 1097 c 128,-1,16
 1180 1105 1180 1105 1183 1111 c 128,-1,17
 1186 1117 1186 1117 1189 1127.5 c 128,-1,18
 1192 1138 1192 1138 1197 1153.5 c 128,-1,19
 1202 1169 1202 1169 1264 1346.5 c 128,-1,20
 1326 1524 1326 1524 1352 1599 c 128,-1,21
 1378 1674 1378 1674 1402 1688.5 c 128,-1,22
 1426 1703 1426 1703 1446 1703 c 128,-1,23
 1466 1703 1466 1703 1500 1692 c 0,24,25
 1555 1675 1555 1675 1552 1616 c 0,26,27
 1552 1591 1552 1591 1538 1542 c 128,-1,28
 1524 1493 1524 1493 1464 1294.5 c 128,-1,29
 1404 1096 1404 1096 1374 994 c 0,30,31
 1329 840 1329 840 1328.5 781 c 128,-1,32
 1328 722 1328 722 1343 671.5 c 128,-1,33
 1358 621 1358 621 1386 620.5 c 128,-1,34
 1414 620 1414 620 1452 662 c 0,35,36
 1522 740 1522 740 1600 829.5 c 128,-1,37
 1678 919 1678 919 1682 921 c 0,38,39
 1720 965 1720 965 1738 965 c 2,40,41
 1738 965 1738 965 1740 965 c 0,42,43
 1810 959 1810 959 1841 933 c 128,-1,44
 1872 907 1872 907 1872 881 c 128,-1,45
 1872 855 1872 855 1844 817 c 0,46,47
 1486 306 1486 306 1405 182.5 c 128,-1,48
 1324 59 1324 59 1314 46 c 0,49,50
 1296 22 1296 22 1296 2.5 c 128,-1,51
 1296 -17 1296 -17 1289 -36 c 128,-1,52
 1282 -55 1282 -55 1272 -66 c 128,-1,53
 1262 -77 1262 -77 1244 -86 c 0,54,55
 1219 -97 1219 -97 1143.5 -112 c 128,-1,56
 1068 -127 1068 -127 934 -127.5 c 128,-1,57
 800 -128 800 -128 632 -86 c 1,58,59
 566 89 566 89 540 143 c 0,60,61
 424 384 424 384 406 587 c 0,62,63
 390 754 390 754 326 939 c 0,64,65
 303 1008 303 1008 263.5 1119 c 128,-1,66
 224 1230 224 1230 213 1263 c 128,-1,67
 202 1296 202 1296 194 1316 c 0,68,69
 176 1364 176 1364 176 1383 c 0,70,71
 176 1423 176 1423 216 1439 c 0,72,73
 234 1446 234 1446 248 1445 c 0,74,75
 286 1445 286 1445 308 1402 c 0,76,77
 373 1277 373 1277 445.5 1136.5 c 128,-1,78
 518 996 518 996 532 972 c 128,-1,79
 546 948 546 948 556 940 c 0,80,81
 568 931 568 931 602 912 c 1,82,83
 604 920 604 920 612 936 c 0,84,85
 628 973 628 973 621 1013 c 128,-1,86
 614 1053 614 1053 552 1380 c 128,-1,87
 490 1707 490 1707 490 1728 c 0,88,89
 490 1813 490 1813 582 1813 c 2,90,91
 582 1813 582 1813 584 1813 c 0,92,93
 623 1813 623 1813 642.5 1791.5 c 128,-1,94
 662 1770 662 1770 668 1728 c 0,95,96
 784 1093 784 1093 794 1069 c 0,97,98
 810 1024 810 1024 838 1027 c 0,99,100
 846 1028 846 1028 858 1039 c 0,101,102
 879 1059 879 1059 884.5 1154 c 128,-1,0
 890 1249 890 1249 898 1441 c 128,-1,1
1206 619 m 1,103,104
 1206 619 1206 619 1177 623 c 128,-1,105
 1148 627 1148 627 1134 623 c 0,106,107
 940 519 940 519 874 357 c 0,108,109
 866 336 866 336 857 306.5 c 128,-1,110
 848 277 848 277 840 261 c 1,111,112
 872 216 872 216 884 200 c 1,113,114
 888 206 888 206 902 216 c 0,115,116
 928 239 928 239 930 253 c 0,117,118
 942 338 942 338 990 400 c 0,119,120
 1056 487 1056 487 1144 535 c 0,121,122
 1173 551 1173 551 1181.5 567.5 c 128,-1,123
 1190 584 1190 584 1196.5 598.5 c 128,-1,124
 1203 613 1203 613 1206 619 c 1,103,104
EndSplineSet
Validated: 8388641
EndChar

StartChar: uniE1A6
Encoding: 57766 57766 60
Width: 2048
GlyphClass: 2
Flags: W
HStem: 139 578<1429.5 1597.5>
VStem: 606 203<1677.23 1847.27>
LayerCount: 3
Fore
SplineSet
718 1170 m 0,0,1
 790 1177 790 1177 790 1232 c 0,2,3
 790 1250 790 1250 776 1277.5 c 128,-1,4
 762 1305 762 1305 716 1390.5 c 128,-1,5
 670 1476 670 1476 630 1575 c 0,6,7
 607 1632 607 1632 606.5 1708 c 128,-1,8
 606 1784 606 1784 653 1851.5 c 128,-1,9
 700 1919 700 1919 740 1919 c 0,10,11
 796 1914 796 1914 808 1855 c 0,12,13
 810 1848 810 1848 809 1837 c 0,14,15
 824 1645 824 1645 998 1496 c 0,16,17
 1196 1327 1196 1327 1240 1142 c 0,18,19
 1265 1041 1265 1041 1307.5 945.5 c 128,-1,20
 1350 850 1350 850 1388 806.5 c 128,-1,21
 1426 763 1426 763 1438 746 c 0,22,23
 1448 730 1448 730 1430 694 c 0,24,25
 1420 678 1420 678 1320 482 c 0,26,27
 1247 342 1247 342 1216.5 282.5 c 128,-1,28
 1186 223 1186 223 1176 201.5 c 128,-1,29
 1166 180 1166 180 1152 173.5 c 128,-1,30
 1138 167 1138 167 1086 175.5 c 128,-1,31
 1034 184 1034 184 970 184.5 c 128,-1,32
 906 185 906 185 906 185 c 2,33,34
 867 185 867 185 753.5 184.5 c 128,-1,35
 640 184 640 184 640 184 c 2,36,37
 582 184 582 184 548 185 c 0,38,39
 318 190 318 190 272 268 c 0,40,41
 256 294 256 294 256 323 c 128,-1,42
 256 352 256 352 262 377 c 128,-1,43
 268 402 268 402 261 415 c 128,-1,44
 254 428 254 428 230 440 c 0,45,46
 154 478 154 478 154 555 c 0,47,48
 154 579 154 579 167 607 c 128,-1,49
 180 635 180 635 177 658.5 c 128,-1,50
 174 682 174 682 142 712.5 c 128,-1,51
 110 743 110 743 110 798 c 0,52,53
 110 806 110 806 110 806 c 2,54,55
 112 865 112 865 158 904 c 0,56,57
 182 925 182 925 184 943 c 128,-1,58
 186 961 186 961 170 987 c 0,59,60
 126 1061 126 1061 162 1124 c 0,61,62
 202 1196 202 1196 346 1196 c 0,63,64
 375 1196 375 1196 483 1177.5 c 128,-1,65
 591 1159 591 1159 718 1170 c 0,0,1
1232 144 m 0,66,67
 1233 153 1233 153 1236.5 162 c 128,-1,68
 1240 171 1240 171 1242 176 c 0,69,70
 1260 221 1260 221 1498 653 c 0,71,72
 1534 717 1534 717 1582 717 c 0,73,74
 1614 717 1614 717 1850 636 c 0,75,76
 1934 607 1934 607 1938 541 c 0,77,78
 1938 508 1938 508 1914 460 c 0,79,80
 1856 347 1856 347 1644 -59 c 0,81,82
 1608 -130 1608 -130 1552 -129 c 0,83,84
 1520 -129 1520 -129 1480 -103 c 0,85,86
 1300 17 1300 17 1252 68 c 0,87,88
 1226 96 1226 96 1232 144 c 0,66,67
1522 64.5 m 128,-1,90
 1522 96 1522 96 1500 117.5 c 128,-1,91
 1478 139 1478 139 1446 139 c 128,-1,92
 1414 139 1414 139 1390 114.5 c 128,-1,93
 1366 90 1366 90 1367 58 c 128,-1,94
 1368 26 1368 26 1392 4.5 c 128,-1,95
 1416 -17 1416 -17 1449 -15 c 128,-1,96
 1482 -13 1482 -13 1502 10 c 128,-1,89
 1522 33 1522 33 1522 64.5 c 128,-1,90
EndSplineSet
Validated: 33
EndChar

StartChar: uniE1AD
Encoding: 57773 57773 61
Width: 1828
GlyphClass: 2
Flags: W
HStem: 0 21G<1182 1466> 146 146<167.659 270.341>
VStem: 0 146<313.659 416.341> 292 184<313.659 416.341>
LayerCount: 3
Fore
SplineSet
0 220 m 2,0,-1
 0 950 l 2,1,2
 0 980 0 980 22 1002 c 128,-1,3
 44 1024 44 1024 74 1024 c 2,4,-1
 402 1024 l 2,5,6
 432 1024 432 1024 454 1002 c 128,-1,7
 476 980 476 980 476 950 c 2,8,-1
 476 220 l 2,9,10
 476 190 476 190 454 168 c 128,-1,11
 432 146 432 146 402 146 c 2,12,-1
 74 146 l 2,13,14
 44 146 44 146 22 168 c 128,-1,15
 0 190 0 190 0 220 c 2,0,-1
167 417 m 128,-1,17
 146 396 146 396 146 365 c 128,-1,18
 146 334 146 334 167 313 c 128,-1,19
 188 292 188 292 219 292 c 128,-1,20
 250 292 250 292 271 313 c 128,-1,21
 292 334 292 334 292 365 c 128,-1,22
 292 396 292 396 271 417 c 128,-1,23
 250 438 250 438 219 438 c 128,-1,16
 188 438 188 438 167 417 c 128,-1,17
1782 682 m 0,24,25
 1782 601 1782 601 1734 538 c 1,26,27
 1744 506 1744 506 1744 472 c 128,-1,28
 1744 438 1744 438 1735 405 c 0,29,30
 1716 336 1716 336 1672 296 c 1,31,32
 1674 278 1674 278 1674 248 c 0,33,34
 1674 159 1674 159 1616 90 c 0,35,36
 1542 0 1542 0 1390 0 c 2,37,-1
 1244 0 l 2,38,39
 1120 0 1120 0 1007 32 c 128,-1,40
 894 64 894 64 821 89 c 128,-1,41
 748 114 748 114 700 130 c 128,-1,42
 652 146 652 146 622 147 c 128,-1,43
 592 148 592 148 570 169 c 128,-1,44
 548 190 548 190 548 220 c 2,45,-1
 548 952 l 2,46,47
 548 980 548 980 569 1001 c 128,-1,48
 590 1022 590 1022 620 1025 c 128,-1,49
 650 1028 650 1028 716 1105 c 128,-1,50
 782 1182 782 1182 817 1226 c 0,51,52
 906 1338 906 1338 938 1370 c 128,-1,53
 970 1402 970 1402 983 1450 c 128,-1,54
 996 1498 996 1498 1006 1548 c 256,55,56
 1016 1598 1016 1598 1031 1648 c 128,-1,57
 1046 1698 1046 1698 1069 1721 c 0,58,59
 1104 1756 1104 1756 1134 1756 c 0,60,61
 1326 1756 1326 1756 1358 1642 c 128,-1,62
 1390 1528 1390 1528 1390 1460 c 128,-1,63
 1390 1392 1390 1392 1369 1340 c 128,-1,64
 1348 1288 1348 1288 1332 1256 c 128,-1,65
 1316 1224 1316 1224 1308 1211 c 128,-1,66
 1300 1198 1300 1198 1292 1170 c 1,67,-1
 1610 1170 l 2,68,69
 1698 1170 1698 1170 1763 1105 c 128,-1,70
 1828 1040 1828 1040 1828 947.5 c 128,-1,71
 1828 855 1828 855 1766 780 c 1,72,73
 1782 738 1782 738 1782 713 c 2,74,75
 1782 713 1782 713 1782 682 c 0,24,25
EndSplineSet
Validated: 1
EndChar

StartChar: uniE1C8
Encoding: 57800 57800 62
Width: 1204
GlyphClass: 2
Flags: W
HStem: 0 21G<400 750> 868 338<108 400 750 1040> 1586 316<783.893 1096>
VStem: 400 350<0 868 1206 1553.99>
LayerCount: 3
Fore
SplineSet
432 1646 m 0,0,1
 496 1814 496 1814 658 1873 c 0,2,3
 738 1902 738 1902 875 1902 c 128,-1,4
 1012 1902 1012 1902 1096 1888 c 1,5,-1
 1096 1586 l 1,6,-1
 916 1586 l 2,7,8
 812 1586 812 1586 781 1540 c 128,-1,9
 750 1494 750 1494 750 1422 c 2,10,-1
 750 1206 l 1,11,-1
 1084 1206 l 1,12,-1
 1040 868 l 1,13,-1
 750 868 l 1,14,-1
 750 0 l 1,15,-1
 400 0 l 1,16,-1
 400 868 l 1,17,-1
 108 868 l 1,18,-1
 108 1206 l 1,19,-1
 400 1206 l 1,20,-1
 400 1454 l 2,21,22
 400 1564 400 1564 432 1646 c 0,0,1
EndSplineSet
Validated: 1
EndChar

StartChar: uniE1C9
Encoding: 57801 57801 63
Width: 1756
GlyphClass: 2
Flags: W
HStem: 0 157<344.206 1411.34> 428 158<723.035 1032.22> 1170 158<723.035 1032.22> 1242 210<1272.94 1420.03> 1598 158<340.328 1411.56>
VStem: 0 157<343.255 1411.95> 428 158<723.035 1032.22> 1170 158<723.035 1032.22> 1242 210<1272.94 1420.03> 1598 158<343.953 1414.91>
LayerCount: 3
Fore
SplineSet
5 1248 m 0,0,1
 17 1477 17 1477 148 1608 c 0,2,3
 224 1686 224 1686 317 1715 c 128,-1,4
 410 1744 410 1744 508 1749 c 0,5,6
 645 1756 645 1756 807 1756 c 0,7,8
 1105 1756 1105 1756 1225.5 1750 c 128,-1,9
 1346 1744 1346 1744 1438 1715 c 128,-1,10
 1530 1686 1530 1686 1608 1608 c 256,11,12
 1686 1530 1686 1530 1715 1438 c 128,-1,13
 1744 1346 1744 1346 1749 1248 c 0,14,15
 1756 1111 1756 1111 1756 948 c 0,16,17
 1756 651 1756 651 1750 530.5 c 128,-1,18
 1744 410 1744 410 1715 317 c 128,-1,19
 1686 224 1686 224 1608 147 c 128,-1,20
 1530 70 1530 70 1438 40 c 128,-1,21
 1346 10 1346 10 1248 5 c 128,-1,22
 1150 0 1150 0 1059 0 c 2,23,24
 1059 0 1059 0 832.5 0 c 128,-1,25
 606 0 606 0 508 5 c 0,26,27
 276 17 276 17 148 148 c 0,28,29
 70 224 70 224 40 317 c 128,-1,30
 10 410 10 410 5 508 c 128,-1,31
 0 606 0 606 0 651 c 2,32,33
 0 651 0 651 0 900.5 c 128,-1,34
 0 1150 0 1150 5 1248 c 0,0,1
158 878 m 256,35,36
 158 830 158 830 157 759 c 0,37,38
 153 461 153 461 194 360 c 0,39,40
 219 298 219 298 260 260 c 1,41,42
 329 185 329 185 472 168 c 0,43,44
 574 156 574 156 702 157 c 128,-1,45
 830 158 830 158 878 158 c 256,46,47
 926 158 926 158 997 157 c 0,48,49
 1295 153 1295 153 1396 194 c 0,50,51
 1563 261 1563 261 1588 472 c 0,52,53
 1599 597 1599 597 1599 664 c 128,-1,54
 1599 731 1599 731 1598.5 780.5 c 128,-1,55
 1598 830 1598 830 1598 878 c 2,56,57
 1598 878 1598 878 1598.5 951.5 c 128,-1,58
 1599 1025 1599 1025 1599 1062 c 0,59,60
 1599 1306 1599 1306 1562 1396 c 0,61,62
 1495 1563 1495 1563 1284 1588 c 0,63,64
 1159 1599 1159 1599 1092 1599 c 128,-1,65
 1025 1599 1025 1599 975.5 1598.5 c 128,-1,66
 926 1598 926 1598 878 1598 c 2,67,68
 878 1598 878 1598 804.5 1598.5 c 128,-1,69
 731 1599 731 1599 694 1599 c 0,70,71
 450 1599 450 1599 360 1562 c 0,72,73
 193 1495 193 1495 168 1284 c 0,74,75
 156 1182 156 1182 157 1054 c 128,-1,76
 158 926 158 926 158 878 c 256,35,36
428 878 m 256,77,78
 428 1066 428 1066 559 1197 c 128,-1,79
 690 1328 690 1328 878 1328 c 256,80,81
 1066 1328 1066 1328 1197 1197 c 128,-1,82
 1328 1066 1328 1066 1328 878 c 256,83,84
 1328 690 1328 690 1197 559 c 128,-1,85
 1066 428 1066 428 878 428 c 256,86,87
 690 428 690 428 559 559 c 128,-1,88
 428 690 428 690 428 878 c 256,77,78
671 1084 m 128,-1,90
 586 998 586 998 586 877 c 128,-1,91
 586 756 586 756 671 671 c 128,-1,92
 756 586 756 586 877 586 c 128,-1,93
 998 586 998 586 1084 671 c 128,-1,94
 1170 756 1170 756 1170 877 c 128,-1,95
 1170 998 1170 998 1084 1084 c 128,-1,96
 998 1170 998 1170 877 1170 c 128,-1,89
 756 1170 756 1170 671 1084 c 128,-1,90
1242 1346 m 256,97,98
 1242 1390 1242 1390 1272 1421 c 128,-1,99
 1302 1452 1302 1452 1346 1452 c 256,100,101
 1390 1452 1390 1452 1421 1421 c 128,-1,102
 1452 1390 1452 1390 1452 1346 c 128,-1,103
 1452 1302 1452 1302 1421 1272 c 128,-1,104
 1390 1242 1390 1242 1346 1242 c 256,105,106
 1302 1242 1302 1242 1272 1272 c 128,-1,107
 1242 1302 1242 1302 1242 1346 c 256,97,98
EndSplineSet
Validated: 8388641
EndChar

StartChar: uniE1CA
Encoding: 57802 57802 64
Width: 1902
GlyphClass: 2
Flags: W
LayerCount: 3
Fore
SplineSet
1852 1436 m 1,0,1
 1778 1327 1778 1327 1666 1244 c 1,2,3
 1668 1232 1668 1232 1668 1220 c 2,4,5
 1668 1220 1668 1220 1668 1196 c 0,6,7
 1668 1014 1668 1014 1599 827 c 128,-1,8
 1530 640 1530 640 1397 489 c 128,-1,9
 1264 338 1264 338 1068 242 c 256,10,11
 872 146 872 146 618 146 c 0,12,13
 310 146 310 146 50 312 c 1,14,15
 94 308 94 308 140 308 c 0,16,17
 398 308 398 308 598 466 c 1,18,19
 476 468 476 468 382 540 c 128,-1,20
 288 612 288 612 252 722 c 1,21,22
 279 716 279 716 314 716 c 0,23,24
 372 716 372 716 420 728 c 1,25,26
 292 754 292 754 208 855 c 128,-1,27
 124 956 124 956 124 1090 c 2,28,-1
 124 1094 l 1,29,30
 200 1052 200 1052 290 1048 c 1,31,32
 216 1098 216 1098 171 1179 c 128,-1,33
 126 1260 126 1260 126 1333 c 0,34,35
 126 1454 126 1454 176 1542 c 1,36,37
 392 1276 392 1276 714 1192 c 0,38,39
 822 1162 822 1162 938 1156 c 1,40,41
 928 1189 928 1189 928 1240 c 0,42,43
 928 1392 928 1392 1036 1501 c 128,-1,44
 1144 1610 1144 1610 1300.5 1610 c 128,-1,45
 1457 1610 1457 1610 1566 1492 c 1,46,47
 1689 1515 1689 1515 1802 1582 c 1,48,49
 1756 1447 1756 1447 1638 1378 c 1,50,51
 1747 1390 1747 1390 1852 1436 c 1,0,1
EndSplineSet
Validated: 1
EndChar

StartChar: uniE1CB
Encoding: 57803 57803 65
Width: 2048
GlyphClass: 2
Flags: W
HStem: 64 168<1454 1610> 1568 160<432 600>
LayerCount: 3
Fore
SplineSet
104 1728 m 1,0,-1
 686 1728 l 1,1,-1
 1088 1196 l 1,2,-1
 1552 1728 l 1,3,-1
 1836 1728 l 1,4,-1
 1218 1024 l 1,5,-1
 1944 64 l 1,6,-1
 1376 64 l 1,7,-1
 930 646 l 1,8,-1
 422 64 l 1,9,-1
 140 64 l 1,10,-1
 798 818 l 1,11,-1
 104 1728 l 1,0,-1
432 1568 m 1,12,-1
 1454 232 l 1,13,-1
 1610 232 l 1,14,-1
 600 1568 l 1,15,-1
 432 1568 l 1,12,-1
EndSplineSet
Validated: 1
EndChar

StartChar: uniE1CC
Encoding: 57804 57804 66
Width: 2048
GlyphClass: 2
Flags: W
HStem: 158 1440<480.687 1313.83>
LayerCount: 3
Fore
SplineSet
0 800 m 1,0,-1
 0 956 l 1,1,-1
 2 1059 l 2,2,3
 8 1357 8 1357 68 1442 c 2,4,-1
 102 1490 l 1,5,6
 160 1552 160 1552 219 1563 c 128,-1,7
 278 1574 278 1574 308 1578 c 2,8,-1
 358 1580 l 1,9,10
 592 1598 592 1598 889 1598 c 128,-1,11
 1186 1598 1186 1598 1318 1595 c 0,12,13
 1569 1589 1569 1589 1629.5 1584.5 c 128,-1,14
 1690 1580 1690 1580 1730 1577 c 128,-1,15
 1770 1574 1770 1574 1829 1563 c 128,-1,16
 1888 1552 1888 1552 1946 1490 c 1,17,18
 1946 1490 1946 1490 1980 1442 c 0,19,20
 2040 1357 2040 1357 2046 1059 c 2,21,-1
 2048 956 l 1,22,-1
 2048 800 l 1,23,-1
 2046 696 l 2,24,25
 2040 402 2040 402 1980 315 c 2,26,-1
 1946 266 l 1,27,28
 1888 204 1888 204 1829 193 c 128,-1,29
 1770 182 1770 182 1740 180 c 2,30,-1
 1690 176 l 2,31,32
 1456 158 1456 158 1024 158 c 1,33,34
 624 162 624 162 476 170 c 2,35,-1
 328 178 l 1,36,37
 294 184 294 184 227 194 c 128,-1,38
 160 204 160 204 102 266 c 1,39,40
 102 266 102 266 68 315 c 0,41,42
 8 402 8 402 2 696 c 2,43,-1
 0 800 l 1,0,-1
812 612 m 1,44,-1
 1366 898 l 1,45,-1
 812 1188 l 1,46,-1
 812 612 l 1,44,-1
EndSplineSet
Validated: 1
EndChar

StartChar: uniE1CD
Encoding: 57805 57805 67
Width: 1756
GlyphClass: 2
Flags: W
HStem: -146 224<538.718 1198.47> 162 178<1398.25 1492.74> 274 66<1495 1599> 426 130<1398.12 1493.75> 836 198<347.457 515 913 1006.01> 1128 94<808.789 899.279 1156.57 1262.3> 1620 94<808.299 899.487>
VStem: 31 248<81.882 725.222> 36 123<728 835.089> 305 122<1848.24 1902> 393 138<78.2129 642> 449 114<1136 1493.37> 585 116<1854.63 1902> 631 92<166.688 642> 703 102<1223.82 1618.2> 823 90<78 642> 903 104<1223.41 1618.56> 1015 96<162.464 555.525> 1093 104<1222.68 1706> 1213 80<134.108 585.049> 1287 104<1136 1198 1226.69 1706> 1395 102<162.502 274 426 555.524> 1599 126<131.403 274 340 583.892>
LayerCount: 3
Fore
SplineSet
61 44 m 0,0,1
 31 175 31 175 31 358.5 c 128,-1,2
 31 542 31 542 36 645 c 128,-1,3
 41 748 41 748 59 830 c 128,-1,4
 77 912 77 912 128 957 c 128,-1,5
 179 1002 179 1002 245 1010 c 0,6,7
 456 1034 456 1034 879 1034 c 256,8,9
 1302 1034 1302 1034 1513 1010 c 0,10,11
 1579 1002 1579 1002 1630 957 c 128,-1,12
 1681 912 1681 912 1700 830 c 0,13,14
 1725 722 1725 722 1725 533 c 128,-1,15
 1725 344 1725 344 1721 242 c 128,-1,16
 1717 140 1717 140 1698 58 c 128,-1,17
 1679 -24 1679 -24 1629 -70 c 128,-1,18
 1579 -116 1579 -116 1513 -122 c 0,19,20
 1302 -146 1302 -146 879 -146 c 256,21,22
 456 -146 456 -146 245 -122 c 0,23,24
 179 -116 179 -116 128 -70 c 128,-1,25
 77 -24 77 -24 61 44 c 0,0,1
159 728 m 1,26,-1
 279 728 l 1,27,-1
 279 78 l 1,28,-1
 393 78 l 1,29,-1
 393 728 l 1,30,-1
 515 728 l 1,31,-1
 515 836 l 1,32,-1
 159 836 l 1,33,-1
 159 728 l 1,26,-1
305 1902 m 1,34,-1
 427 1902 l 1,35,-1
 507 1602 l 1,36,-1
 585 1902 l 1,37,-1
 701 1902 l 1,38,-1
 563 1446 l 1,39,-1
 563 1136 l 1,40,-1
 449 1136 l 1,41,-1
 449 1446 l 1,42,43
 428 1554 428 1554 375.5 1701 c 128,-1,44
 323 1848 323 1848 305 1902 c 1,34,-1
633 186 m 2,45,46
 633 186 633 186 631 226 c 2,47,-1
 631 642 l 1,48,-1
 531 642 l 1,49,-1
 531 196 l 2,50,51
 531 99 531 99 564 80 c 0,52,53
 581 70 581 70 605 70 c 0,54,55
 661 70 661 70 723 140 c 1,56,-1
 723 78 l 1,57,-1
 823 78 l 1,58,-1
 823 642 l 1,59,-1
 723 642 l 1,60,-1
 723 210 l 1,61,62
 687 162 687 162 662 162 c 128,-1,63
 637 162 637 162 633 186 c 2,45,46
703 1322 m 2,64,-1
 703 1522 l 2,65,66
 703 1614 703 1614 730 1649 c 0,67,68
 780 1714 780 1714 855 1714 c 0,69,70
 935 1714 935 1714 975 1654 c 1,71,72
 1007 1618 1007 1618 1007 1522 c 2,73,-1
 1007 1322 l 2,74,75
 1007 1225 1007 1225 975 1186 c 0,76,77
 934 1128 934 1128 855 1128 c 0,78,79
 781 1128 781 1128 735 1186 c 0,80,81
 703 1230 703 1230 703 1322 c 2,64,-1
855 1620 m 0,82,83
 805 1620 805 1620 805 1542 c 2,84,-1
 805 1302 l 2,85,86
 805 1222 805 1222 855 1222 c 0,87,88
 903 1222 903 1222 903 1302 c 2,89,-1
 903 1542 l 2,90,91
 903 1620 903 1620 855 1620 c 0,82,83
1015 588 m 1,92,-1
 1015 836 l 1,93,-1
 913 836 l 1,94,-1
 913 78 l 1,95,-1
 1015 78 l 1,96,-1
 1015 132 l 1,97,98
 1065 70 1065 70 1121 70 c 0,99,100
 1203 70 1203 70 1211 179 c 0,101,102
 1213 208 1213 208 1213 246 c 2,103,-1
 1213 472 l 2,104,105
 1213 556 1213 556 1203 586 c 0,106,107
 1182 650 1182 650 1123.5 650 c 128,-1,108
 1065 650 1065 650 1015 588 c 1,92,-1
1067 162 m 0,109,110
 1037 162 1037 162 1015 188 c 1,111,-1
 1015 532 l 1,112,113
 1039 556 1039 556 1067 556 c 0,114,115
 1111 556 1111 556 1111 480 c 2,116,-1
 1111 238 l 2,117,118
 1111 162 1111 162 1067 162 c 0,109,110
1287 1198 m 1,119,120
 1225 1128 1225 1128 1169 1128 c 0,121,122
 1116 1128 1116 1128 1101 1170 c 0,123,124
 1093 1198 1093 1198 1093 1256 c 2,125,-1
 1093 1706 l 1,126,-1
 1197 1706 l 1,127,-1
 1197 1246 l 1,128,129
 1201 1222 1201 1222 1226 1222 c 128,-1,130
 1251 1222 1251 1222 1287 1270 c 1,131,-1
 1287 1706 l 1,132,-1
 1391 1706 l 1,133,-1
 1391 1136 l 1,134,-1
 1287 1136 l 1,135,-1
 1287 1198 l 1,119,120
1447 162 m 0,136,137
 1395 162 1395 162 1395 242 c 2,138,-1
 1395 340 l 1,139,-1
 1599 340 l 1,140,-1
 1599 458 l 2,141,142
 1599 550 1599 550 1572 585 c 0,143,144
 1522 650 1522 650 1447 650 c 0,145,146
 1369 650 1369 650 1325 590 c 0,147,148
 1293 550 1293 550 1293 458 c 2,149,-1
 1293 260 l 2,150,151
 1293 168 1293 168 1320 133 c 0,152,153
 1369 70 1369 70 1449 70 c 256,154,155
 1529 70 1529 70 1573 130 c 1,156,157
 1599 175 1599 175 1599 205 c 2,158,159
 1599 205 1599 205 1599 274 c 1,160,-1
 1495 274 l 1,161,162
 1495 274 1495 274 1493 204 c 1,163,164
 1485 162 1485 162 1447 162 c 0,136,137
1445 556 m 0,165,166
 1497 556 1497 556 1497 478 c 2,167,-1
 1497 426 l 1,168,-1
 1395 426 l 1,169,-1
 1395 478 l 2,170,171
 1395 556 1395 556 1445 556 c 0,165,166
EndSplineSet
Validated: 8388609
EndChar

StartChar: uniE1CE
Encoding: 57806 57806 68
Width: 1750
GlyphClass: 2
Flags: W
HStem: 456 496<130.956 319.847>
LayerCount: 3
Fore
SplineSet
95 628 m 0,0,1
 95 853 95 853 136 916 c 0,2,3
 160 952 160 952 200 952 c 0,4,5
 214 952 214 952 562 810 c 0,6,7
 584 800 584 800 658 772 c 0,8,9
 712 751 712 751 712 682 c 1,10,11
 708 615 708 615 652 602 c 1,12,-1
 514 556 l 2,13,14
 203 456 203 456 173 456 c 128,-1,15
 143 456 143 456 119 497 c 128,-1,16
 95 538 95 538 95 628 c 0,0,1
264 1690 m 1,17,18
 253 1724 253 1724 284 1760 c 0,19,20
 333 1809 333 1809 522 1862 c 0,21,22
 664 1902 664 1902 714 1902 c 128,-1,23
 764 1902 764 1902 782 1898 c 128,-1,24
 800 1894 800 1894 815 1880 c 128,-1,25
 830 1866 830 1866 833 1851 c 0,26,27
 841 1812 841 1812 854 1589 c 0,28,29
 880 1162 880 1162 884.5 1107 c 128,-1,30
 889 1052 889 1052 889 1042 c 0,31,32
 889 971 889 971 863.5 949.5 c 128,-1,33
 838 928 838 928 826 925 c 128,-1,34
 814 922 814 922 779 926 c 128,-1,35
 744 930 744 930 696 1006 c 0,36,37
 380 1504 380 1504 322 1597 c 2,38,-1
 264 1690 l 1,17,18
424 0 m 0,39,40
 394 30 394 30 408 70 c 0,41,42
 414 87 414 87 534 229.5 c 128,-1,43
 654 372 654 372 663 382 c 256,44,45
 672 392 672 392 722 452 c 0,46,47
 763 498 763 498 824 476 c 0,48,49
 882 451 882 451 882 394 c 2,50,-1
 882 250 l 2,51,52
 879 -84 879 -84 874 -101 c 0,53,54
 863 -133 863 -133 816 -146 c 0,55,56
 806 -148 806 -148 795 -148 c 0,57,58
 732 -148 732 -148 598 -98 c 128,-1,59
 464 -48 464 -48 424 0 c 0,39,40
1024 844 m 128,-1,61
 1024 870 1024 870 1043 896 c 128,-1,62
 1062 922 1062 922 1164 1061 c 0,63,64
 1319 1273 1319 1273 1336 1284 c 0,65,66
 1369 1308 1369 1308 1410 1288 c 0,67,68
 1466 1262 1466 1262 1551 1135 c 128,-1,69
 1636 1008 1636 1008 1644 944 c 1,70,-1
 1644 940 l 1,71,72
 1648 896 1648 896 1614 874 c 0,73,74
 1599 862 1599 862 1398 814 c 0,75,76
 1168 759 1168 759 1134 748 c 1,77,-1
 1136 750 l 1,78,79
 1110 744 1110 744 1083 755 c 128,-1,80
 1056 766 1056 766 1040 792 c 256,81,60
 1024 818 1024 818 1024 844 c 128,-1,61
1060 436 m 2,82,83
 1026 486 1026 486 1068 542 c 1,84,85
 1110 589 1110 589 1164 572 c 0,86,87
 1198 560 1198 560 1364 505 c 0,88,89
 1620 420 1620 420 1633 410 c 0,90,91
 1705 355 1705 355 1550 158 c 0,92,93
 1394 -40 1394 -40 1324 20 c 0,94,95
 1306 34 1306 34 1114 348 c 2,96,-1
 1060 436 l 2,82,83
EndSplineSet
Validated: 33
EndChar

StartChar: uniE1CF
Encoding: 57807 57807 69
Width: 2048
GlyphClass: 2
Flags: W
HStem: -129 332<625.396 930.5> 780 376<620.115 793.442 795.566 877.5> 1068 344<1725.58 1913.5>
VStem: 135 354<333.712 647.142> 1068 350<337.432 1230> 1070 332<1719.5 1918>
LayerCount: 3
Fore
SplineSet
1914 1068 m 1,0,1
 1645 1074 1645 1074 1418 1230 c 1,2,3
 1418 1230 1418 1230 1418 996 c 128,-1,4
 1418 762 1418 762 1417 669 c 128,-1,5
 1416 576 1416 576 1416 482 c 1,6,7
 1403 293 1403 293 1309.5 158.5 c 128,-1,8
 1216 24 1216 24 1080 -50 c 0,9,10
 936 -129 936 -129 768 -129 c 0,11,12
 598 -129 598 -129 458 -46.5 c 128,-1,13
 318 36 318 36 234 167 c 128,-1,14
 150 298 150 298 136 448 c 0,15,16
 136 480 136 480 135 501.5 c 128,-1,17
 134 523 134 523 134 538 c 0,18,19
 134 670 134 670 198 795 c 0,20,21
 330 1051 330 1051 602 1131 c 0,22,23
 688 1156 688 1156 757 1156 c 128,-1,24
 826 1156 826 1156 880 1146 c 1,25,26
 881 1098 881 1098 880.5 1050.5 c 128,-1,27
 880 1003 880 1003 879 932.5 c 128,-1,28
 878 862 878 862 878 766 c 1,29,30
 829 781 829 781 794.5 781 c 128,-1,31
 760 781 760 781 744 780 c 0,32,33
 628 770 628 770 550 669 c 0,34,35
 490 591 490 591 489 517 c 0,36,37
 490 482 490 482 492 448 c 0,38,39
 506 344 506 344 589 273.5 c 128,-1,40
 672 203 672 203 764 203 c 0,41,42
 776 203 776 203 790 204 c 0,43,44
 862 204 862 204 926 242 c 128,-1,45
 990 280 990 280 1026 340 c 0,46,47
 1060 402 1060 402 1062 430 c 0,48,49
 1066 529 1066 529 1066 586 c 2,50,51
 1066 586 1066 586 1066 699 c 128,-1,52
 1066 812 1066 812 1067 915 c 128,-1,53
 1068 1018 1068 1018 1068 1146 c 2,54,55
 1068 1146 1068 1146 1068 1468 c 128,-1,56
 1068 1790 1068 1790 1070 1918 c 1,57,58
 1154 1920 1154 1920 1236 1920 c 2,59,60
 1236 1920 1236 1920 1402 1920 c 1,61,62
 1416 1697 1416 1697 1552 1564 c 0,63,64
 1684 1435 1684 1435 1914 1412 c 1,65,-1
 1914 1068 l 1,0,1
EndSplineSet
Validated: 8388641
EndChar

StartChar: uniE1D0
Encoding: 57808 57808 70
Width: 1462
GlyphClass: 2
Flags: W
HStem: 0 21G<314 340> 526 190<732.466 996.932> 1716 186<524.345 968.025>
VStem: 0 212<1022.65 1411.15> 420 358<1109.19 1367.78> 1198 264<1008.95 1496.06>
LayerCount: 3
Fore
SplineSet
242 798 m 1,0,1
 242 798 242 798 222 802 c 0,2,3
 100 840 100 840 50 974 c 128,-1,4
 0 1108 0 1108 0 1243 c 128,-1,5
 0 1378 0 1378 66 1504 c 0,6,7
 198 1757 198 1757 490 1854 c 0,8,9
 630 1902 630 1902 771 1902 c 128,-1,10
 912 1902 912 1902 1036 1857 c 0,11,12
 1296 1763 1296 1763 1406 1534 c 0,13,14
 1462 1418 1462 1418 1462 1281 c 0,15,16
 1462 977 1462 977 1322 769 c 0,17,18
 1250 662 1250 662 1139 594 c 128,-1,19
 1028 526 1028 526 876 526 c 0,20,21
 804 526 804 526 726 562 c 128,-1,22
 648 598 648 598 612 664 c 1,23,24
 548 406 548 406 516 304 c 128,-1,25
 484 202 484 202 340 6 c 1,26,-1
 324 0 l 1,27,-1
 314 12 l 1,28,29
 310 66 310 66 304 119 c 128,-1,30
 298 172 298 172 298 243 c 128,-1,31
 298 314 298 314 315 417 c 0,32,33
 345 600 345 600 410 836 c 0,34,35
 438 938 438 938 458 1022 c 1,36,37
 420 1098 420 1098 420 1200 c 128,-1,38
 420 1302 420 1302 477 1390 c 128,-1,39
 534 1478 534 1478 618 1478 c 128,-1,40
 702 1478 702 1478 740 1430 c 128,-1,41
 778 1382 778 1382 778 1292 c 128,-1,42
 778 1202 778 1202 728 1096 c 128,-1,43
 678 990 678 990 678 899 c 128,-1,44
 678 808 678 808 730 762 c 128,-1,45
 782 716 782 716 867 716 c 128,-1,46
 952 716 952 716 1018 778 c 0,47,48
 1144 897 1144 897 1180 1120 c 0,49,50
 1198 1222 1198 1222 1198 1310 c 128,-1,51
 1198 1398 1198 1398 1164 1476 c 0,52,53
 1097 1630 1097 1630 926 1688 c 0,54,55
 844 1716 844 1716 739 1716 c 128,-1,56
 634 1716 634 1716 536 1677 c 0,57,58
 337 1598 337 1598 252 1404 c 0,59,60
 212 1306 212 1306 212 1194 c 128,-1,61
 212 1082 212 1082 257 1021 c 128,-1,62
 302 960 302 960 302 936 c 128,-1,63
 302 912 302 912 286 855 c 128,-1,64
 270 798 270 798 242 798 c 1,0,1
EndSplineSet
Validated: 1
EndChar

StartChar: uniE1D1
Encoding: 57809 57809 71
Width: 1756
GlyphClass: 2
Flags: W
HStem: 916 298<1124.04 1419.5> 1342 390<71.1541 351.359>
VStem: 0 422<1412.96 1661.59> 22 376<54 1188> 608 374<54 834.445 1022 1188> 1380 376<54 842.302>
LayerCount: 3
Fore
SplineSet
0 1538 m 256,0,1
 0 1620 0 1620 58 1676 c 128,-1,2
 116 1732 116 1732 213 1732 c 128,-1,3
 310 1732 310 1732 366 1676 c 128,-1,4
 422 1620 422 1620 422 1538 c 2,5,6
 422 1538 422 1538 422 1533 c 0,7,8
 422 1455 422 1455 365 1398.5 c 128,-1,9
 308 1342 308 1342 210 1342 c 2,10,-1
 208 1342 l 2,11,12
 112 1342 112 1342 56 1399 c 128,-1,13
 0 1456 0 1456 0 1538 c 256,0,1
22 54 m 1,14,-1
 22 1188 l 1,15,-1
 398 1188 l 1,16,-1
 398 54 l 1,17,-1
 22 54 l 1,14,-1
606 54 m 1,18,19
 608 440 608 440 608 665 c 2,20,21
 608 665 608 665 608 909.5 c 128,-1,22
 608 1154 608 1154 606 1188 c 1,23,-1
 982 1188 l 1,24,-1
 982 1022 l 1,25,-1
 980 1022 l 1,26,27
 1018 1082 1018 1082 1094 1148 c 128,-1,28
 1170 1214 1170 1214 1322 1214 c 0,29,30
 1517 1214 1517 1214 1632 1089 c 0,31,32
 1756 954 1756 954 1756 704 c 2,33,-1
 1756 54 l 1,34,-1
 1380 54 l 1,35,-1
 1380 660 l 2,36,37
 1380 774 1380 774 1335 845 c 128,-1,38
 1290 916 1290 916 1200 916 c 128,-1,39
 1110 916 1110 916 1063 873 c 128,-1,40
 1016 830 1016 830 1002 795 c 0,41,42
 982 745 982 745 982 686 c 2,43,-1
 982 54 l 1,44,-1
 606 54 l 1,18,19
EndSplineSet
Validated: 8388613
EndChar

StartChar: uniE1D2
Encoding: 57810 57810 72
Width: 1902
GlyphClass: 2
Flags: W
HStem: 0 21G<870 1034> 886 172<223.548 406.156 1489.78 1676.6>
LayerCount: 3
Fore
SplineSet
1568 160 m 1,0,1
 1568 160 1568 160 1424 174 c 1,2,3
 1272 174 1272 174 1184 76 c 0,4,5
 1116 0 1116 0 952 0 c 128,-1,6
 788 0 788 0 719 76 c 0,7,8
 630 174 630 174 478 174 c 0,9,10
 440 174 440 174 403 166 c 128,-1,11
 366 158 366 158 336 158 c 0,12,13
 288 158 288 158 287 205 c 128,-1,14
 286 252 286 252 268 278 c 1,15,16
 228 284 228 284 123 311 c 128,-1,17
 18 338 18 338 18 396 c 0,18,19
 18 432 18 432 50 436 c 1,20,21
 109 451 109 451 140 462 c 0,22,23
 232 500 232 500 307 580 c 0,24,25
 401 680 401 680 432 774 c 0,26,27
 436 786 436 786 436 798 c 0,28,29
 436 870 436 870 321 887 c 128,-1,30
 206 904 206 904 206 982 c 0,31,32
 206 1016 206 1016 237 1036 c 128,-1,33
 268 1056 268 1056 296 1056 c 128,-1,34
 324 1056 324 1056 352 1041 c 128,-1,35
 380 1026 380 1026 407 1026 c 128,-1,36
 434 1026 434 1026 450 1034 c 1,37,38
 440 1169 440 1169 440 1234 c 0,39,40
 440 1388 440 1388 470 1458 c 0,41,42
 546 1620 546 1620 672 1687 c 128,-1,43
 798 1754 798 1754 970 1756 c 2,44,45
 970 1756 970 1756 977 1756 c 0,46,47
 1127 1756 1127 1756 1246.5 1676 c 128,-1,48
 1366 1596 1366 1596 1430 1458 c 0,49,50
 1462 1391 1462 1391 1462 1252 c 1,51,52
 1462 1252 1462 1252 1452 1034 c 1,53,54
 1464 1026 1464 1026 1489 1026 c 128,-1,55
 1514 1026 1514 1026 1542 1042 c 128,-1,56
 1570 1058 1570 1058 1600 1058 c 256,57,58
 1630 1058 1630 1058 1662 1038 c 128,-1,59
 1694 1018 1694 1018 1694 984 c 0,60,61
 1694 902 1694 902 1580 886 c 128,-1,62
 1466 870 1466 870 1466 798 c 0,63,64
 1466 786 1466 786 1470 774 c 2,65,66
 1470 774 1470 774 1478 750 c 0,67,68
 1520 660 1520 660 1594 581 c 0,69,70
 1689 480 1689 480 1806 448 c 0,71,72
 1828 442 1828 442 1848 438 c 0,73,74
 1884 431 1884 431 1884 396 c 0,75,76
 1884 338 1884 338 1779 311 c 128,-1,77
 1674 284 1674 284 1634 278 c 1,78,79
 1618 252 1618 252 1616 206 c 128,-1,80
 1614 160 1614 160 1568 160 c 1,0,1
EndSplineSet
Validated: 1
EndChar

StartChar: uniE1D3
Encoding: 57811 57811 73
Width: 2158
GlyphClass: 2
Flags: W
HStem: -147 519<993.359 1253.62> 532 690<908.519 1249.48> 1385 517<890.484 1375.53>
VStem: 1579 524<661.32 1097.76>
LayerCount: 3
Fore
SplineSet
121 514 m 0,0,1
 55 686 55 686 55 859 c 0,2,3
 55 1183 55 1183 221 1438 c 1,4,-1
 607 682 l 2,5,6
 687 518 687 518 847 434 c 0,7,8
 965 372 965 372 1089 372 c 0,9,10
 1136 372 1136 372 1183 382 c 1,11,-1
 921 -134 l 1,12,13
 737 -106 737 -106 578 -16 c 0,14,15
 254 167 254 167 121 514 c 0,0,1
283 1522 m 1,16,17
 514 1803 514 1803 853 1876 c 0,18,19
 963 1902 963 1902 1085 1902 c 0,20,21
 1350 1902 1350 1902 1591 1764 c 0,22,23
 1859 1608 1859 1608 1993 1340 c 1,24,-1
 1145 1384 l 2,25,26
 1126 1385 1126 1385 1081.5 1385 c 128,-1,27
 1037 1385 1037 1385 969 1368 c 0,28,29
 794 1323 794 1323 683 1188 c 0,30,31
 627 1122 627 1122 597 1036 c 1,32,-1
 283 1522 l 1,16,17
834 633 m 128,-1,34
 733 734 733 734 733 877 c 128,-1,35
 733 1020 733 1020 834 1121 c 128,-1,36
 935 1222 935 1222 1079 1222 c 256,37,38
 1223 1222 1223 1222 1324 1121 c 128,-1,39
 1425 1020 1425 1020 1425 877 c 128,-1,40
 1425 734 1425 734 1324 633 c 128,-1,41
 1223 532 1223 532 1079 532 c 256,42,33
 935 532 935 532 834 633 c 128,-1,34
1579 899 m 0,43,44
 1575 1083 1575 1083 1457 1216 c 1,45,-1
 2035 1246 l 1,46,47
 2101 1072 2101 1072 2103 890 c 2,48,49
 2103 890 2103 890 2103 878 c 0,50,51
 2103 521 2103 521 1873 230 c 0,52,53
 1757 86 1757 86 1607 -1 c 0,54,55
 1355 -147 1355 -147 1067 -147 c 0,56,57
 1044 -147 1044 -147 1021 -146 c 1,58,-1
 1485 566 l 2,59,60
 1579 709 1579 709 1579 886 c 2,61,62
 1579 886 1579 886 1579 899 c 0,43,44
EndSplineSet
Validated: 1
EndChar

StartChar: uniE1F9
Encoding: 57849 57849 74
Width: 2048
GlyphClass: 2
Flags: W
HStem: -128 256<763.489 1286.23> 1664 256<763.489 1284.37>
VStem: 0 256<635.489 1156.51>
LayerCount: 3
Fore
SplineSet
1568 1440 m 1,0,1
 1340 1664 1340 1664 1024 1664 c 256,2,3
 708 1664 708 1664 480 1440 c 1,4,5
 256 1212 256 1212 256 896 c 256,6,7
 256 580 256 580 480 352 c 1,8,9
 708 128 708 128 1024 128 c 256,10,11
 1340 128 1340 128 1568 352 c 0,12,13
 1576 362 1576 362 1585 371 c 128,-1,14
 1594 380 1594 380 1602 390 c 1,15,-1
 1794 222 l 1,16,17
 1578 -24 1578 -24 1248 -104 c 0,18,19
 1140 -128 1140 -128 1024 -128 c 0,20,21
 812 -128 812 -128 625 -48 c 128,-1,22
 438 32 438 32 299 171 c 128,-1,23
 160 310 160 310 80 497 c 128,-1,24
 0 684 0 684 0 896 c 256,25,26
 0 1108 0 1108 80 1295 c 128,-1,27
 160 1482 160 1482 299 1621 c 128,-1,28
 438 1760 438 1760 625 1840 c 128,-1,29
 812 1920 812 1920 1024 1920 c 0,30,31
 1332 1920 1332 1920 1596 1746 c 0,32,33
 1678 1690 1678 1690 1748 1620 c 1,34,-1
 2048 1920 l 1,35,-1
 2048 1152 l 1,36,-1
 1280 1152 l 1,37,-1
 1568 1440 l 1,0,1
EndSplineSet
Validated: 1
EndChar

StartChar: uniE218
Encoding: 57880 57880 75
Width: 1390
GlyphClass: 2
Flags: W
LayerCount: 3
Fore
SplineSet
104 242 m 132,-1,1
 104 272 104 272 124 294 c 6,2,-1
 732 900 l 5,3,-1
 124 1508 l 6,4,5
 104 1530 104 1530 104 1560 c 132,-1,6
 104 1590 104 1590 124 1610 c 6,7,-1
 314 1800 l 6,8,9
 336 1822 336 1822 366 1822 c 132,-1,10
 396 1822 396 1822 418 1800 c 6,11,-1
 1266 952 l 6,12,13
 1286 930 1286 930 1286 900 c 132,-1,14
 1286 870 1286 870 1266 850 c 6,15,-1
 418 2 l 6,16,17
 396 -20 396 -20 366 -20 c 132,-1,18
 336 -20 336 -20 314 2 c 6,19,-1
 124 192 l 6,20,0
 104 212 104 212 104 242 c 132,-1,1
EndSplineSet
Validated: 1
EndChar

StartChar: uniE21C
Encoding: 57884 57884 76
Width: 1682
GlyphClass: 2
Flags: W
HStem: 586 438<37.1313 938>
LayerCount: 3
Fore
SplineSet
0 732 m 2,0,-1
 0 878 l 2,1,2
 0 936 0 936 36 980 c 128,-1,3
 72 1024 72 1024 134 1024 c 2,4,-1
 938 1024 l 1,5,-1
 604 1360 l 2,6,7
 560 1400 560 1400 560 1462 c 0,8,9
 560 1526 560 1526 604 1566 c 2,10,-1
 690 1652 l 2,11,12
 732 1694 732 1694 792 1694 c 0,13,14
 854 1694 854 1694 896 1652 c 2,15,-1
 1640 908 l 2,16,17
 1682 866 1682 866 1682 804 c 0,18,19
 1682 746 1682 746 1640 700 c 2,20,-1
 896 -44 l 2,21,22
 854 -86 854 -86 792 -86 c 0,23,24
 732 -86 732 -86 690 -44 c 2,25,-1
 604 42 l 2,26,27
 560 82 560 82 560 146 c 128,-1,28
 560 210 560 210 604 250 c 2,29,-1
 938 586 l 1,30,-1
 134 586 l 2,31,32
 72 586 72 586 36 630 c 128,-1,33
 0 674 0 674 0 732 c 2,0,-1
EndSplineSet
Validated: 1
EndChar

StartChar: uniE22C
Encoding: 57900 57900 77
Width: 658
GlyphClass: 2
Flags: W
VStem: 0 658<810 946>
LayerCount: 3
Fore
SplineSet
0 366 m 2,0,-1
 0 1390 l 2,1,2
 0 1420 0 1420 22 1441 c 128,-1,3
 44 1462 44 1462 66 1462 c 0,4,5
 104 1462 104 1462 124 1442 c 2,6,-1
 636 930 l 2,7,8
 658 904 658 904 658 884 c 0,9,10
 658 848 658 848 636 826 c 2,11,-1
 124 314 l 2,12,13
 102 292 102 292 73 292 c 128,-1,14
 44 292 44 292 22 314 c 128,-1,15
 0 336 0 336 0 366 c 2,0,-1
EndSplineSet
Validated: 1
EndChar

StartChar: uniE22E
Encoding: 57902 57902 78
Width: 2048
HStem: -1 769<933.894 1114.88>
LayerCount: 3
Fore
SplineSet
934 1754 m 5,0,1
 972 1792 972 1792 1024.5 1792 c 132,-1,2
 1077 1792 1077 1792 1115 1754 c 6,3,-1
 1627 1242 l 6,4,5
 1655 1214 1655 1214 1662 1176.5 c 132,-1,6
 1669 1139 1669 1139 1654 1103 c 132,-1,7
 1639 1067 1639 1067 1607 1045.5 c 132,-1,8
 1575 1024 1575 1024 1536 1024 c 6,9,-1
 512 1024 l 6,10,11
 473 1024 473 1024 441 1045.5 c 132,-1,12
 409 1067 409 1067 394 1103 c 132,-1,13
 379 1139 379 1139 386.5 1177 c 132,-1,14
 394 1215 394 1215 421 1242 c 6,15,-1
 933 1754 l 5,16,-1
 934 1754 l 5,0,1
934 37 m 6,17,-1
 422 549 l 6,18,19
 394 577 394 577 386.5 615 c 132,-1,20
 379 653 379 653 394 689 c 132,-1,21
 409 725 409 725 441 746.5 c 132,-1,22
 473 768 473 768 512 768 c 6,23,-1
 1536 768 l 6,24,25
 1575 768 1575 768 1607 746.5 c 132,-1,26
 1639 725 1639 725 1654 689 c 132,-1,27
 1669 653 1669 653 1661.5 615 c 132,-1,28
 1654 577 1654 577 1627 549 c 6,29,-1
 1115 37 l 6,30,31
 1077 -1 1077 -1 1024.5 -1 c 132,-1,32
 972 -1 972 -1 934 37 c 6,17,-1
EndSplineSet
Validated: 33
EndChar

StartChar: uniE0CE
Encoding: 57550 57550 79
Width: 2048
Flags: W
HStem: 399 249<568.35 981.845> 1641 248<568.018 983.253>
VStem: 31 248<936.425 1351.65> 1272 249<938.478 1351.98>
LayerCount: 3
Fore
SplineSet
1342 661 m 5,0,1
 1349 661 1349 661 1349 661 c 6,2,3
 1416 661 1416 661 1486 599 c 6,4,5
 1486 599 1486 599 1955 200 c 6,6,7
 2013 148 2013 148 2017 74 c 4,8,9
 2017 63 2017 63 2017 64 c 6,10,11
 2017 -2 2017 -2 1971 -51 c 4,12,13
 1923 -98 1923 -98 1856 -97 c 4,14,15
 1845 -97 1845 -97 1846 -97 c 5,16,17
 1773 -93 1773 -93 1720 -35 c 6,18,19
 1720 -35 1720 -35 1321 434 c 6,20,21
 1288 471 1288 471 1273.5 507 c 132,-1,22
 1259 543 1259 543 1259 560.5 c 132,-1,23
 1259 578 1259 578 1259 578 c 5,24,25
 1051 400 1051 400 776 399 c 4,26,27
 621 399 621 399 486 457.5 c 132,-1,28
 351 516 351 516 249 617.5 c 132,-1,29
 147 719 147 719 89 854 c 132,-1,30
 31 989 31 989 31 1144 c 260,31,32
 31 1299 31 1299 89 1434 c 132,-1,33
 147 1569 147 1569 249 1671 c 132,-1,34
 351 1773 351 1773 485.5 1831 c 132,-1,35
 620 1889 620 1889 776 1889 c 260,36,37
 931 1889 931 1889 1066 1831 c 132,-1,38
 1201 1773 1201 1773 1302.5 1671 c 132,-1,39
 1404 1569 1404 1569 1462.5 1434.5 c 132,-1,40
 1521 1300 1521 1300 1521 1144 c 4,41,42
 1520 869 1520 869 1342 661 c 5,0,1
279 1144 m 260,43,44
 279 938 279 938 424.5 793 c 132,-1,45
 570 648 570 648 776 648 c 260,46,47
 982 648 982 648 1127 793.5 c 132,-1,48
 1272 939 1272 939 1272 1144 c 260,49,50
 1272 1350 1272 1350 1126.5 1495.5 c 132,-1,51
 981 1641 981 1641 776 1641 c 260,52,53
 570 1641 570 1641 424.5 1495.5 c 132,-1,54
 279 1350 279 1350 279 1144 c 260,43,44
EndSplineSet
Validated: 37
EndChar

StartChar: uniE0CF
Encoding: 57551 57551 80
Width: 2048
HStem: 275 373<768.27 907.188> 1517 372<768.27 907.722>
VStem: 31 372<1012.28 1151.73> 1272 373<1012.93 1151.73>
LayerCount: 3
Fore
SplineSet
1645 1082 m 4,0,1
 1645 819 1645 819 1490 606 c 5,2,-1
 1981 115 l 6,3,4
 2017 79 2017 79 2017 27 c 132,-1,5
 2017 -25 2017 -25 1980.5 -61.5 c 132,-1,6
 1944 -98 1944 -98 1892.5 -98 c 132,-1,7
 1841 -98 1841 -98 1805 -61 c 6,8,-1
 1314 430 l 5,9,10
 1102 275 1102 275 838 275 c 4,11,12
 619 275 619 275 433 383.5 c 132,-1,13
 247 492 247 492 139 677.5 c 132,-1,14
 31 863 31 863 31 1082 c 132,-1,15
 31 1301 31 1301 139 1487 c 132,-1,16
 247 1673 247 1673 433 1781 c 132,-1,17
 619 1889 619 1889 838 1889 c 132,-1,18
 1057 1889 1057 1889 1242.5 1781 c 132,-1,19
 1428 1673 1428 1673 1536.5 1487 c 132,-1,20
 1645 1301 1645 1301 1645 1082 c 4,0,1
745 741 m 6,21,22
 745 702 745 702 772 675 c 132,-1,23
 799 648 799 648 838 648 c 132,-1,24
 877 648 877 648 904 675 c 132,-1,25
 931 702 931 702 931 741 c 6,26,-1
 931 989 l 5,27,-1
 1179 989 l 6,28,29
 1218 989 1218 989 1245 1016 c 132,-1,30
 1272 1043 1272 1043 1272 1082 c 132,-1,31
 1272 1121 1272 1121 1245 1148 c 132,-1,32
 1218 1175 1218 1175 1179 1175 c 6,33,-1
 931 1175 l 5,34,-1
 931 1424 l 6,35,36
 931 1463 931 1463 904 1490 c 132,-1,37
 877 1517 877 1517 838 1517 c 132,-1,38
 799 1517 799 1517 772 1489.5 c 132,-1,39
 745 1462 745 1462 745 1424 c 6,40,-1
 745 1175 l 5,41,-1
 496 1175 l 6,42,43
 457 1175 457 1175 430 1148 c 132,-1,44
 403 1121 403 1121 403 1082 c 132,-1,45
 403 1043 403 1043 430.5 1016 c 132,-1,46
 458 989 458 989 496 989 c 6,47,-1
 745 989 l 5,48,-1
 745 741 l 6,21,22
EndSplineSet
Validated: 1
EndChar

StartChar: uniE23E
Encoding: 57918 57918 81
Width: 1750
Flags: W
LayerCount: 3
Fore
SplineSet
395 200 m 5,0,1
 377 226 377 226 377 240 c 132,-1,2
 377 254 377 254 395 282 c 5,3,-1
 539 979 l 5,4,-1
 395 1628 l 6,5,6
 391 1647 391 1647 377 1668 c 260,7,8
 369 1681 369 1681 395 1708 c 6,9,-1
 481 1794 l 6,10,11
 495 1808 495 1808 512 1808 c 4,12,13
 544 1808 544 1808 559 1794 c 6,14,-1
 1357 992 l 6,15,16
 1375 974 1375 974 1375 964 c 4,17,18
 1375 934 1375 934 1357 916 c 6,19,-1
 559 116 l 6,20,21
 542 99 542 99 524 100 c 4,22,23
 498 100 498 100 481 116 c 6,24,-1
 395 200 l 5,0,1
EndSplineSet
Validated: 1
EndChar

StartChar: uniE23F
Encoding: 57919 57919 82
Width: 694
Flags: W
LayerCount: 3
Fore
SplineSet
-613 202 m 5,0,1
 -631 228 -631 228 -631 242 c 132,-1,2
 -631 256 -631 256 -613 284 c 5,3,-1
 -469 981 l 5,4,-1
 -613 1630 l 6,5,6
 -617 1649 -617 1649 -631 1670 c 260,7,8
 -639 1683 -639 1683 -613 1710 c 6,9,-1
 -527 1796 l 6,10,11
 -513 1810 -513 1810 -496 1810 c 4,12,13
 -464 1810 -464 1810 -449 1796 c 6,14,-1
 349 994 l 6,15,16
 367 976 367 976 367 966 c 4,17,18
 367 936 367 936 349 918 c 6,19,-1
 -449 118 l 6,20,21
 -466 101 -466 101 -484 102 c 4,22,23
 -510 102 -510 102 -527 118 c 6,24,-1
 -613 202 l 5,0,1
347 202 m 5,25,26
 329 228 329 228 329 242 c 132,-1,27
 329 256 329 256 347 284 c 5,28,-1
 491 981 l 5,29,-1
 347 1630 l 6,30,31
 343 1649 343 1649 329 1670 c 260,32,33
 321 1683 321 1683 347 1710 c 6,34,-1
 433 1796 l 6,35,36
 447 1810 447 1810 464 1810 c 4,37,38
 496 1810 496 1810 511 1796 c 6,39,-1
 1309 994 l 6,40,41
 1327 976 1327 976 1327 966 c 4,42,43
 1327 936 1327 936 1309 918 c 6,44,-1
 511 118 l 6,45,46
 494 101 494 101 476 102 c 4,47,48
 450 102 450 102 433 118 c 6,49,-1
 347 202 l 5,25,26
EndSplineSet
Validated: 1
EndChar

StartChar: uniE240
Encoding: 57920 57920 83
Width: 1751
Flags: W
VStem: 312 431<70.9255 1751.69> 1008 431<72.3086 1753.07>
LayerCount: 3
Fore
SplineSet
636 36 m 6,0,-1
 420 36 l 6,1,2
 374 36 374 36 343 90.5 c 132,-1,3
 312 145 312 145 312 224 c 6,4,-1
 312 1600 l 6,5,6
 312 1678 312 1678 344 1733 c 132,-1,7
 376 1788 376 1788 420 1788 c 6,8,-1
 636 1788 l 6,9,10
 682 1788 682 1788 713 1733.5 c 132,-1,11
 744 1679 744 1679 743 1600 c 6,12,-1
 743 224 l 6,13,14
 743 146 743 146 712.5 91 c 132,-1,15
 682 36 682 36 636 36 c 6,0,-1
1439 224 m 6,16,17
 1439 146 1439 146 1406.5 91 c 132,-1,18
 1374 36 1374 36 1332 36 c 6,19,-1
 1116 36 l 6,20,21
 1070 36 1070 36 1039 90.5 c 132,-1,22
 1008 145 1008 145 1008 224 c 6,23,-1
 1008 1600 l 6,24,25
 1008 1678 1008 1678 1039 1733 c 132,-1,26
 1070 1788 1070 1788 1116 1788 c 6,27,-1
 1332 1788 l 6,28,29
 1378 1788 1378 1788 1408 1733.5 c 132,-1,30
 1438 1679 1438 1679 1439 1600 c 6,31,-1
 1439 224 l 6,16,17
EndSplineSet
Validated: 33
EndChar

StartChar: uniE244
Encoding: 57924 57924 84
Width: 2048
Flags: W
VStem: 1430 260<658.643 754 1038 1134.07> 1536 192<773.463 1018.54> 1920 192<674.415 1119.44>
LayerCount: 3
Fore
SplineSet
1828 1492 m 4,0,1
 1960 1384 1960 1384 2036 1228.5 c 132,-1,2
 2112 1073 2112 1073 2112 896 c 132,-1,3
 2112 719 2112 719 2036.5 563.5 c 132,-1,4
 1961 408 1961 408 1828 300 c 4,5,6
 1797 275 1797 275 1757.5 279 c 132,-1,7
 1718 283 1718 283 1693 314 c 132,-1,8
 1668 345 1668 345 1672 384.5 c 132,-1,9
 1676 424 1676 424 1707 449 c 4,10,11
 1806 530 1806 530 1863 646.5 c 132,-1,12
 1920 763 1920 763 1920 896 c 132,-1,13
 1920 1029 1920 1029 1863.5 1145.5 c 132,-1,14
 1807 1262 1807 1262 1707 1343 c 4,15,16
 1676 1368 1676 1368 1672 1408 c 132,-1,17
 1668 1448 1668 1448 1693 1478.5 c 132,-1,18
 1718 1509 1718 1509 1757.5 1513 c 132,-1,19
 1797 1517 1797 1517 1828 1492 c 4,0,1
1586 1194 m 4,20,21
 1652 1140 1652 1140 1690 1062.5 c 132,-1,22
 1728 985 1728 985 1728 896 c 132,-1,23
 1728 807 1728 807 1690 729.5 c 132,-1,24
 1652 652 1652 652 1586 598 c 4,25,26
 1555 573 1555 573 1515.5 577 c 132,-1,27
 1476 581 1476 581 1451 612 c 132,-1,28
 1426 643 1426 643 1430 682.5 c 132,-1,29
 1434 722 1434 722 1465 747 c 4,30,31
 1498 774 1498 774 1517 813 c 132,-1,32
 1536 852 1536 852 1536 896 c 132,-1,33
 1536 940 1536 940 1517 979 c 132,-1,34
 1498 1018 1498 1018 1465 1045 c 4,35,36
 1434 1070 1434 1070 1430 1110 c 132,-1,37
 1426 1150 1426 1150 1451 1180.5 c 132,-1,38
 1476 1211 1476 1211 1515.5 1215 c 132,-1,39
 1555 1219 1555 1219 1586 1194 c 4,20,21
1140 1781 m 4,40,41
 1175 1765 1175 1765 1195.5 1733.5 c 132,-1,42
 1216 1702 1216 1702 1216 1664 c 6,43,-1
 1216 128 l 6,44,45
 1216 90 1216 90 1195.5 58.5 c 132,-1,46
 1175 27 1175 27 1140.5 11.5 c 132,-1,47
 1106 -4 1106 -4 1068.5 1.5 c 132,-1,48
 1031 7 1031 7 1003 32 c 6,49,-1
 463 512 l 5,50,-1
 192 512 l 6,51,52
 86 512 86 512 11 587 c 132,-1,53
 -64 662 -64 662 -64 768 c 6,54,-1
 -64 1024 l 6,55,56
 -64 1130 -64 1130 11 1205 c 132,-1,57
 86 1280 86 1280 192 1280 c 6,58,-1
 463 1280 l 5,59,-1
 1003 1760 l 6,60,61
 1031 1785 1031 1785 1068.5 1790.5 c 132,-1,62
 1106 1796 1106 1796 1140 1781 c 4,40,41
EndSplineSet
Validated: 8388641
EndChar

StartChar: uniE245
Encoding: 57925 57925 85
Width: 2048
Flags: W
HStem: 513 767<-16.1409 399 1465 1544 2040 2119>
LayerCount: 3
Fore
SplineSet
1076 1781 m 4,0,1
 1111 1765 1111 1765 1131.5 1733.5 c 132,-1,2
 1152 1702 1152 1702 1152 1664 c 6,3,-1
 1152 128 l 6,4,5
 1152 90 1152 90 1131.5 58.5 c 132,-1,6
 1111 27 1111 27 1076.5 11.5 c 132,-1,7
 1042 -4 1042 -4 1004.5 1.5 c 132,-1,8
 967 7 967 7 939 32 c 6,9,-1
 399 512 l 5,10,-1
 128 512 l 6,11,12
 22 512 22 512 -53 587 c 132,-1,13
 -128 662 -128 662 -128 768 c 6,14,-1
 -128 1024 l 6,15,16
 -128 1130 -128 1130 -53 1205 c 132,-1,17
 22 1280 22 1280 128 1280 c 6,18,-1
 399 1280 l 5,19,-1
 939 1760 l 6,20,21
 967 1785 967 1785 1004.5 1790.5 c 132,-1,22
 1042 1796 1042 1796 1076 1781 c 4,0,1
1572 1252 m 6,23,-1
 1792 1032 l 5,24,-1
 2012 1252 l 6,25,26
 2040 1280 2040 1280 2080 1280 c 132,-1,27
 2120 1280 2120 1280 2148 1252 c 132,-1,28
 2176 1224 2176 1224 2176 1184 c 132,-1,29
 2176 1144 2176 1144 2148 1116 c 6,30,-1
 1928 896 l 5,31,-1
 2148 676 l 6,32,33
 2176 648 2176 648 2176 608.5 c 132,-1,34
 2176 569 2176 569 2147.5 541 c 132,-1,35
 2119 513 2119 513 2079.5 513 c 132,-1,36
 2040 513 2040 513 2012 541 c 6,37,-1
 1792 761 l 5,38,-1
 1572 541 l 6,39,40
 1544 513 1544 513 1504 513 c 132,-1,41
 1464 513 1464 513 1436 541 c 132,-1,42
 1408 569 1408 569 1408 608.5 c 132,-1,43
 1408 648 1408 648 1436 676 c 6,44,-1
 1656 896 l 5,45,-1
 1436 1116 l 6,46,47
 1408 1144 1408 1144 1408 1184 c 132,-1,48
 1408 1224 1408 1224 1436.5 1252 c 132,-1,49
 1465 1280 1465 1280 1504.5 1280 c 132,-1,50
 1544 1280 1544 1280 1572 1252 c 6,23,-1
EndSplineSet
Validated: 33
EndChar

StartChar: uniE1DD
Encoding: 57821 57821 86
Width: 2048
HStem: 0 21G<475.609 575.609 1472.61 1572.61> 100 924<842.76 1205.91>
VStem: 4 440<895.004 1153> 256 1536<100.367 412.312> 464 460<1306.58 1617.86> 1123 461<1306.58 1613.88> 1604 440<895.004 1151.07>
LayerCount: 3
Fore
SplineSet
1024 1024 m 128,-1,1
 1101 1024 1101 1024 1191 986 c 128,-1,2
 1281 948 1281 948 1364.5 885.5 c 128,-1,3
 1448 823 1448 823 1527 739.5 c 128,-1,4
 1606 656 1606 656 1664 568.5 c 128,-1,5
 1722 481 1722 481 1757 389.5 c 128,-1,6
 1792 298 1792 298 1792 223 c 0,7,8
 1792 118 1792 118 1716 59 c 128,-1,9
 1640 0 1640 0 1505 0 c 0,10,11
 1440 0 1440 0 1370.5 15.5 c 128,-1,12
 1301 31 1301 31 1251 50 c 128,-1,13
 1201 69 1201 69 1138.5 84.5 c 128,-1,14
 1076 100 1076 100 1024 100 c 128,-1,15
 972 100 972 100 910 84.5 c 128,-1,16
 848 69 848 69 798 50 c 128,-1,17
 748 31 748 31 678 15.5 c 128,-1,18
 608 0 608 0 543 0 c 0,19,20
 408 0 408 0 332 59 c 128,-1,21
 256 118 256 118 256 223 c 0,22,23
 256 299 256 299 291 390 c 128,-1,24
 326 481 326 481 384 568.5 c 128,-1,25
 442 656 442 656 521 739.5 c 128,-1,26
 600 823 600 823 683.5 885.5 c 128,-1,27
 767 948 767 948 857 986 c 128,-1,0
 947 1024 947 1024 1024 1024 c 128,-1,1
435 1074 m 0,28,29
 454 1003 454 1003 444 941 c 128,-1,30
 434 879 434 879 395 833 c 128,-1,31
 356 787 356 787 299 773 c 0,32,33
 211 752 211 752 127.5 810.5 c 128,-1,34
 44 869 44 869 13 974 c 0,35,36
 -6 1045 -6 1045 3.5 1107 c 128,-1,37
 13 1169 13 1169 52 1215 c 128,-1,38
 91 1261 91 1261 148 1275 c 0,39,40
 236 1296 236 1296 320 1237 c 128,-1,41
 404 1178 404 1178 435 1074 c 0,28,29
774 1158 m 0,42,43
 681 1134 681 1134 590 1208.5 c 128,-1,44
 499 1283 499 1283 464 1413 c 0,45,46
 442 1503 442 1503 451 1580.5 c 128,-1,47
 460 1658 460 1658 500.5 1714.5 c 128,-1,48
 541 1771 541 1771 602 1787 c 0,49,50
 695 1811 695 1811 786 1736.5 c 128,-1,51
 877 1662 877 1662 912 1531 c 0,52,53
 934 1441 934 1441 924.5 1364 c 128,-1,54
 915 1287 915 1287 875 1230.5 c 128,-1,55
 835 1174 835 1174 774 1158 c 0,42,43
1899 1275 m 0,56,57
 1956 1261 1956 1261 1995 1215 c 128,-1,58
 2034 1169 2034 1169 2044 1107 c 128,-1,59
 2054 1045 2054 1045 2035 974 c 0,60,61
 2004 870 2004 870 1920 811 c 128,-1,62
 1836 752 1836 752 1748 773 c 0,63,64
 1691 787 1691 787 1652 833 c 128,-1,65
 1613 879 1613 879 1603.5 941 c 128,-1,66
 1594 1003 1594 1003 1613 1074 c 0,67,68
 1644 1178 1644 1178 1728 1237 c 128,-1,69
 1812 1296 1812 1296 1899 1275 c 0,56,57
1274 1158 m 0,70,71
 1213 1174 1213 1174 1172.5 1230.5 c 128,-1,72
 1132 1287 1132 1287 1123 1364.5 c 128,-1,73
 1114 1442 1114 1442 1136 1531 c 0,74,75
 1172 1661 1172 1661 1262.5 1736 c 128,-1,76
 1353 1811 1353 1811 1446 1787 c 0,77,78
 1507 1771 1507 1771 1547.5 1714 c 128,-1,79
 1588 1657 1588 1657 1597 1580 c 128,-1,80
 1606 1503 1606 1503 1584 1413 c 0,81,82
 1548 1283 1548 1283 1457.5 1208.5 c 128,-1,83
 1367 1134 1367 1134 1274 1158 c 0,70,71
EndSplineSet
Validated: 8388641
EndChar

StartChar: uniE114
Encoding: 57620 57620 87
Width: 2048
HStem: -52 361<814.869 1234.13> 1633 241<834.607 1081.68>
VStem: 362 241<1154.35 1401.24> 1084 601<1150.5 1584.75>
LayerCount: 3
Fore
SplineSet
724 165 m 6,0,-1
 724 309 l 5,1,-1
 1326 309 l 5,2,3
 1326 300 1326 300 1326 285 c 132,-1,4
 1326 270 1326 270 1325 238.5 c 132,-1,5
 1324 207 1324 207 1324 186 c 132,-1,6
 1324 165 1324 165 1326 165 c 5,7,8
 1326 129 1326 129 1304 98 c 4,9,10
 1240 1 1240 1 1240 2 c 4,11,12
 1224 -23 1224 -23 1198 -37.5 c 132,-1,13
 1172 -52 1172 -52 1140 -52 c 4,14,15
 908 -52 908 -52 908 -52 c 4,16,17
 877 -52 877 -52 850.5 -37.5 c 132,-1,18
 824 -23 824 -23 808 2 c 6,19,-1
 744 98 l 6,20,21
 724 129 724 129 724 165 c 6,0,-1
362 1212 m 4,22,23
 362 1342 362 1342 412 1462.5 c 132,-1,24
 462 1583 462 1583 548 1674 c 132,-1,25
 634 1765 634 1765 758 1819.5 c 132,-1,26
 882 1874 882 1874 1022 1874 c 4,27,28
 1157 1874 1157 1874 1280.5 1821.5 c 132,-1,29
 1404 1769 1404 1769 1492 1680.5 c 132,-1,30
 1580 1592 1580 1592 1633 1469.5 c 132,-1,31
 1686 1347 1686 1347 1685 1212 c 4,32,33
 1685 1089 1685 1089 1642.5 977 c 132,-1,34
 1600 865 1600 865 1522 776 c 4,35,36
 1469 715 1469 715 1410.5 617 c 132,-1,37
 1352 519 1352 519 1326 432 c 4,38,39
 1326 431 1326 431 1326 430.5 c 132,-1,40
 1326 430 1326 430 1326 429 c 5,41,-1
 724 429 l 5,42,43
 724 430 724 430 723 431 c 132,-1,44
 722 432 722 432 722 432 c 4,45,46
 697 518 697 518 638.5 616.5 c 132,-1,47
 580 715 580 715 526 776 c 4,48,49
 448 865 448 865 405 977 c 132,-1,50
 362 1089 362 1089 362 1212 c 4,22,23
1024 1513 m 4,51,52
 1048 1513 1048 1513 1066 1530.5 c 132,-1,53
 1084 1548 1084 1548 1084 1572.5 c 132,-1,54
 1084 1597 1084 1597 1066 1615 c 132,-1,55
 1048 1633 1048 1633 1024 1633 c 4,56,57
 850 1633 850 1633 727 1509.5 c 132,-1,58
 604 1386 604 1386 603 1212 c 4,59,60
 603 1188 603 1188 620.5 1170 c 132,-1,61
 638 1152 638 1152 663 1152 c 132,-1,62
 688 1152 688 1152 706 1169.5 c 132,-1,63
 724 1187 724 1187 724 1212 c 4,64,65
 724 1336 724 1336 812 1424.5 c 132,-1,66
 900 1513 900 1513 1024 1513 c 4,51,52
EndSplineSet
Validated: 33
EndChar

StartChar: uniE06E
Encoding: 57454 57454 88
Width: 2048
HStem: 1764 150<954.217 1093.78>
VStem: 302 252<643.656 766.812> 783 151<1674 1736.67> 1114 151<1674 1736.67> 1493 253<867.016 987.766>
LayerCount: 3
Fore
SplineSet
1565 1674 m 2,0,1
 1640 1674 1640 1674 1693 1621 c 128,-1,2
 1746 1568 1746 1568 1746 1493 c 2,3,-1
 1746 170 l 2,4,5
 1746 95 1746 95 1693.5 42 c 128,-1,6
 1641 -11 1641 -11 1565 -11 c 2,7,-1
 483 -11 l 2,8,9
 408 -11 408 -11 355 42 c 128,-1,10
 302 95 302 95 302 170 c 2,11,-1
 302 1493 l 2,12,13
 302 1568 302 1568 354.5 1621 c 128,-1,14
 407 1674 407 1674 483 1674 c 2,15,-1
 783 1674 l 1,16,17
 783 1774 783 1774 853.5 1844 c 128,-1,18
 924 1914 924 1914 1024 1914 c 128,-1,19
 1124 1914 1124 1914 1194.5 1843.5 c 128,-1,20
 1265 1773 1265 1773 1265 1674 c 1,21,-1
 1565 1674 l 2,0,1
1024 1764 m 128,-1,23
 986 1764 986 1764 960 1737.5 c 128,-1,24
 934 1711 934 1711 934 1673.5 c 128,-1,25
 934 1636 934 1636 960 1610 c 128,-1,26
 986 1584 986 1584 1024 1584 c 128,-1,27
 1062 1584 1062 1584 1088 1610 c 128,-1,28
 1114 1636 1114 1636 1114 1673.5 c 128,-1,29
 1114 1711 1114 1711 1088 1737.5 c 128,-1,22
 1062 1764 1062 1764 1024 1764 c 128,-1,23
1480 892 m 2,30,31
 1493 905 1493 905 1493 924 c 128,-1,32
 1493 943 1493 943 1480 956 c 2,33,-1
 1374 1063 l 2,34,35
 1361 1076 1361 1076 1342 1076.5 c 128,-1,36
 1323 1077 1323 1077 1310 1064 c 2,37,-1
 912 668 l 1,38,-1
 739 842 l 2,39,40
 726 855 726 855 707 855.5 c 128,-1,41
 688 856 688 856 675 843 c 2,42,-1
 568 737 l 2,43,44
 555 724 555 724 554.5 705 c 128,-1,45
 554 686 554 686 568 673 c 2,46,-1
 878 360 l 2,47,48
 891 347 891 347 910 346.5 c 128,-1,49
 929 346 929 346 942 359 c 2,50,-1
 1480 892 l 2,30,31
EndSplineSet
Validated: 1
EndChar

StartChar: uniE24C
Encoding: 57932 57932 89
Width: 2048
LayerCount: 3
Fore
SplineSet
1005 1489 m 5,0,1
 957 1303 957 1303 949 1269 c 4,2,3
 881 1003 881 1003 876 987 c 4,4,5
 866 953 866 953 799 910 c 4,6,7
 698 845 698 845 630 738 c 4,8,9
 582 661 582 661 603 647 c 4,10,11
 631 628 631 628 734 748 c 4,12,13
 794 818 794 818 844 858 c 4,14,15
 1054 1031 1054 1031 1351 903 c 4,16,17
 1364 897 1364 897 1377 891 c 4,18,19
 1496 834 1496 834 1532 876 c 4,20,21
 1532 876 1532 876 1533 878 c 4,22,23
 1680 1042 1680 1042 1894 1054 c 4,24,25
 1930 1056 1930 1056 1935 1052 c 4,26,27
 1951 1037 1951 1037 1951 553 c 4,28,29
 1951 538 1951 538 1951 524 c 4,30,31
 1951 36 1951 36 1930 21 c 4,32,33
 1924 17 1924 17 1884 29 c 4,34,35
 1700 84 1700 84 1618 241 c 5,36,37
 1469 143 1469 143 1272 106 c 4,38,39
 900 36 900 36 513 214 c 4,40,41
 385 273 385 273 297 287 c 4,42,43
 174 307 174 307 126 389 c 4,44,45
 54 512 54 512 157 759 c 4,46,47
 162 772 162 772 173 797 c 4,48,49
 389 1300 389 1300 576 1555 c 4,50,51
 778 1830 778 1830 982 1866 c 4,52,53
 999 1869 999 1869 1039 1874 c 4,54,55
 1168 1891 1168 1891 1210 1889 c 4,56,57
 1317 1882 1317 1882 1356 1716 c 4,58,59
 1362 1693 1362 1693 1366 1667 c 4,60,61
 1391 1507 1391 1507 1331 1453 c 4,62,63
 1288 1415 1288 1415 1209 1435 c 4,64,65
 1187 1440 1187 1440 1005 1489 c 5,0,1
EndSplineSet
Validated: 33
EndChar

StartChar: uniE115
Encoding: 57621 57621 90
Width: 2048
LayerCount: 3
Fore
SplineSet
798 422 m 5,0,1
 763 425 763 425 761 424 c 4,2,3
 684 423 684 423 640 478 c 4,4,5
 630 490 630 490 599 520 c 4,6,7
 582 536 582 536 577 541 c 132,-1,8
 572 546 572 546 556.5 561 c 132,-1,9
 541 576 541 576 536 583.5 c 132,-1,10
 531 591 531 591 520.5 606 c 132,-1,11
 510 621 510 621 506.5 632 c 132,-1,12
 503 643 503 643 499 659 c 132,-1,13
 495 675 495 675 495.5 691 c 132,-1,14
 496 707 496 707 500 725 c 5,15,16
 403 715 403 715 220 695 c 4,17,18
 211 694 211 694 195.5 692 c 132,-1,19
 180 690 180 690 166.5 689 c 132,-1,20
 153 688 153 688 142 687 c 4,21,22
 112 685 112 685 98 698.5 c 132,-1,23
 84 712 84 712 90 741 c 4,24,25
 125 929 125 929 217 1056 c 4,26,27
 363 1255 363 1255 624 1241 c 4,28,29
 670 1239 670 1239 699 1278 c 4,30,31
 927 1581 927 1581 1368 1769 c 4,32,33
 1601 1869 1601 1869 1773 1880 c 4,34,35
 1819 1883 1819 1883 1838.5 1885 c 132,-1,36
 1858 1887 1858 1887 1885.5 1884 c 132,-1,37
 1913 1881 1913 1881 1921.5 1880.5 c 132,-1,38
 1930 1880 1930 1880 1942.5 1866.5 c 132,-1,39
 1955 1853 1955 1853 1956 1845.5 c 132,-1,40
 1957 1838 1957 1838 1959 1809.5 c 132,-1,41
 1961 1781 1961 1781 1959.5 1763 c 132,-1,42
 1958 1745 1958 1745 1955 1698 c 4,43,44
 1939 1470 1939 1470 1790 1171 c 4,45,46
 1610 812 1610 812 1334 609 c 4,47,48
 1317 596 1317 596 1316 576 c 4,49,50
 1306 330 1306 330 1192.5 199 c 132,-1,51
 1079 68 1079 68 836 21 c 4,52,53
 834 21 834 21 828 19.5 c 132,-1,54
 822 18 822 18 819 17 c 4,55,56
 786 12 786 12 771.5 25.5 c 132,-1,57
 757 39 757 39 761 72 c 4,58,59
 767 132 767 132 779.5 243.5 c 132,-1,60
 792 355 792 355 795 384 c 4,61,62
 795 385 795 385 798 422 c 5,0,1
1324 1050.5 m 132,-1,64
 1406 1050 1406 1050 1465 1108 c 132,-1,65
 1524 1166 1524 1166 1525 1248 c 4,66,67
 1526 1332 1526 1332 1467.5 1391.5 c 132,-1,68
 1409 1451 1409 1451 1325.5 1451 c 132,-1,69
 1242 1451 1242 1451 1183 1392 c 132,-1,70
 1124 1333 1124 1333 1124 1250 c 4,71,72
 1124 1168 1124 1168 1183 1109.5 c 132,-1,63
 1242 1051 1242 1051 1324 1050.5 c 132,-1,64
154 79 m 5,73,74
 160 173 160 173 164.5 224 c 132,-1,75
 169 275 169 275 184.5 350 c 132,-1,76
 200 425 200 425 225 485 c 4,77,78
 267 585 267 585 394 613 c 4,79,80
 414 617 414 617 424 606 c 4,81,82
 428 601 428 601 419 578 c 4,83,84
 417 572 417 572 403.5 537.5 c 132,-1,85
 390 503 390 503 386 484 c 4,86,87
 370 408 370 408 423 353.5 c 132,-1,88
 476 299 476 299 553 312 c 4,89,90
 568 315 568 315 584 320.5 c 132,-1,91
 600 326 600 326 620 333.5 c 132,-1,92
 640 341 640 341 651 345 c 4,93,94
 676 353 676 353 679 350 c 4,95,96
 691 341 691 341 687 321 c 4,97,98
 658 181 658 181 553 149 c 4,99,100
 482 127 482 127 281 90 c 4,101,102
 275 88 275 88 154 79 c 5,73,74
EndSplineSet
Validated: 33
EndChar

StartChar: uniE16D
Encoding: 57709 57709 91
Width: 2048
HStem: 543 151<1064.3 1130.45>
VStem: 893 79<844.888 921.698> 1064 96<562.628 660.973>
LayerCount: 3
Fore
SplineSet
860 1454 m 5,0,1
 738 1543 738 1543 684 1677 c 4,2,3
 664 1727 664 1727 660 1775 c 4,4,5
 657 1820 657 1820 684 1841 c 132,-1,6
 711 1862 711 1862 755 1849 c 4,7,8
 796 1837 796 1837 847 1814 c 4,9,10
 944 1768 944 1768 1044 1800 c 4,11,12
 1137 1830 1137 1830 1238 1847 c 4,13,14
 1288 1855 1288 1855 1301.5 1839.5 c 132,-1,15
 1315 1824 1315 1824 1302 1773 c 4,16,17
 1260 1607 1260 1607 1140 1483 c 4,18,19
 1139 1482 1139 1482 1118 1464 c 5,20,21
 1300 1380 1300 1380 1458 1201 c 4,22,23
 1699 928 1699 928 1758 643 c 4,24,25
 1782 527 1782 527 1760 423 c 4,26,27
 1722 247 1722 247 1551 155 c 4,28,29
 1402 74 1402 74 1173 61 c 4,30,31
 861 43 861 43 637 106 c 4,32,33
 613 113 613 113 588 123 c 4,34,35
 398 194 398 194 322 342.5 c 132,-1,36
 246 491 246 491 298 694 c 4,37,38
 424 1179 424 1179 847 1445 c 4,39,40
 848 1446 848 1446 852 1448.5 c 132,-1,41
 856 1451 856 1451 860 1454 c 5,0,1
973 1053 m 4,42,43
 880 1012 880 1012 876 1009 c 4,44,45
 800 959 800 959 805 875 c 132,-1,46
 810 791 810 791 890 750 c 4,47,48
 901 744 901 744 924 736 c 132,-1,49
 947 728 947 728 955 724 c 4,50,51
 973 716 973 716 973 707 c 4,52,53
 974 675 974 675 974 546 c 5,54,55
 908 565 908 565 888 624 c 4,56,57
 873 669 873 669 832 658 c 4,58,59
 789 647 789 647 805 595 c 4,60,61
 834 501 834 501 924 470 c 4,62,63
 983 449 983 449 976 402 c 4,64,65
 970 360 970 360 1017 359 c 4,66,67
 1059 358 1059 358 1061 403 c 4,68,69
 1061 406 1061 406 1061 444 c 5,70,71
 1147 471 1147 471 1153 473 c 4,72,73
 1248 518 1248 518 1248 621 c 4,74,75
 1248 719 1248 719 1151 761 c 4,76,77
 1139 766 1139 766 1115 774 c 132,-1,78
 1091 782 1091 782 1081 786 c 4,79,80
 1062 793 1062 793 1063 802 c 4,81,82
 1062 831 1062 831 1062 956 c 5,83,84
 1136 944 1136 944 1155 886 c 4,85,86
 1169 844 1169 844 1212 859 c 4,87,88
 1251 873 1251 873 1238 915 c 4,89,90
 1215 993 1215 993 1137 1026 c 4,91,92
 1134 1027 1134 1027 1064 1050 c 4,93,94
 1062 1057 1062 1057 1062 1084.5 c 132,-1,95
 1062 1112 1062 1112 1053 1125 c 132,-1,96
 1044 1138 1044 1138 1017 1137 c 4,97,98
 991 1137 991 1137 982 1124.5 c 132,-1,99
 973 1112 973 1112 973.5 1085 c 132,-1,100
 974 1058 974 1058 973 1053 c 4,42,43
1064 694 m 5,101,102
 1164 684 1164 684 1160 614 c 4,103,104
 1158 582 1158 582 1131 562 c 132,-1,105
 1104 542 1104 542 1064 543 c 5,106,-1
 1064 694 l 5,101,102
972 816 m 5,107,108
 892 830 892 830 893 882 c 4,109,110
 894 940 894 940 972 953 c 5,111,-1
 972 816 l 5,107,108
EndSplineSet
Validated: 33
EndChar

StartChar: uniE116
Encoding: 57622 57622 92
Width: 2048
HStem: 58 212<455.256 744.004> 1618 204<781.589 857.98>
VStem: 125 214<383.818 682.734> 1198 101<96.0405 243.877>
LayerCount: 3
Fore
SplineSet
602 1197 m 5,0,1
 585 1068 585 1068 617 946 c 4,2,3
 621 929 621 929 604 911 c 4,4,5
 575 882 575 882 509 816 c 132,-1,6
 443 750 443 750 409 714 c 4,7,8
 352 655 352 655 339 575 c 132,-1,9
 326 495 326 495 361 421 c 4,10,11
 395 348 395 348 463.5 307 c 132,-1,12
 532 266 532 266 613 270 c 4,13,14
 712 275 712 275 780 343 c 4,15,16
 981 541 981 541 1065 628 c 4,17,18
 1139 705 1139 705 1138.5 807.5 c 132,-1,19
 1138 910 1138 910 1066 991 c 4,20,21
 1019 1044 1019 1044 1015.5 1103.5 c 132,-1,22
 1012 1163 1012 1163 1055 1212 c 4,23,24
 1078 1238 1078 1238 1108 1222 c 4,25,26
 1306 1115 1306 1115 1342.5 886.5 c 132,-1,27
 1379 658 1379 658 1224 490 c 4,28,29
 1086 341 1086 341 919 184 c 4,30,31
 778 53 778 53 586 58.5 c 132,-1,32
 394 64 394 64 260 201.5 c 132,-1,33
 126 339 126 339 125 530.5 c 132,-1,34
 124 722 124 722 257 861 c 4,35,36
 314 920 314 920 545 1149 c 4,37,38
 547 1151 547 1151 602 1197 c 5,0,1
1446 722 m 5,39,40
 1461 853 1461 853 1432 967 c 4,41,42
 1427 987 1427 987 1444 1005 c 4,43,44
 1473 1035 1473 1035 1539 1101 c 132,-1,45
 1605 1167 1605 1167 1639 1202 c 4,46,47
 1696 1262 1696 1262 1708.5 1342 c 132,-1,48
 1721 1422 1721 1422 1686 1495 c 132,-1,49
 1651 1568 1651 1568 1582.5 1609 c 132,-1,50
 1514 1650 1514 1650 1432 1645 c 4,51,52
 1333 1639 1333 1639 1261 1567 c 4,53,54
 1036 1342 1036 1342 990 1297 c 4,55,56
 911 1217 911 1217 909 1113 c 132,-1,57
 907 1009 907 1009 983 924 c 4,58,59
 1028 874 1028 874 1032 815 c 132,-1,60
 1036 756 1036 756 996 708 c 4,61,62
 970 676 970 676 935 696 c 4,63,64
 739 810 739 810 704.5 1035.5 c 132,-1,65
 670 1261 670 1261 825 1428 c 4,66,67
 961 1574 961 1574 1128 1731 c 4,68,69
 1264 1859 1264 1859 1451 1857.5 c 132,-1,70
 1638 1856 1638 1856 1774 1727 c 4,71,72
 1911 1597 1911 1597 1922.5 1409 c 132,-1,73
 1934 1221 1934 1221 1810 1080 c 4,74,75
 1764 1028 1764 1028 1711 974 c 132,-1,76
 1658 920 1658 920 1585.5 850 c 132,-1,77
 1513 780 1513 780 1482 749 c 4,78,79
 1480 747 1480 747 1446 722 c 5,39,40
831 1618 m 4,80,81
 794 1620 794 1620 783 1657 c 4,82,83
 764 1723 764 1723 756 1759 c 4,84,85
 745 1809 745 1809 791 1822 c 4,86,87
 840 1836 840 1836 856 1785 c 4,88,89
 874 1728 874 1728 883 1684 c 4,90,91
 889 1657 889 1657 874 1638 c 132,-1,92
 859 1619 859 1619 831 1618 c 4,80,81
364 1162 m 5,93,94
 365 1130 365 1130 348.5 1112 c 132,-1,95
 332 1094 332 1094 307 1098 c 4,96,97
 247 1109 247 1109 189 1129 c 4,98,99
 146 1145 146 1145 161 1193 c 4,100,101
 175 1236 175 1236 218 1228 c 4,102,103
 288 1214 288 1214 329 1197 c 4,104,105
 332 1196 332 1196 364 1162 c 5,93,94
1890 752 m 5,106,107
 1889 718 1889 718 1871.5 701 c 132,-1,108
 1854 684 1854 684 1827 689 c 4,109,110
 1775 699 1775 699 1719 718 c 4,111,112
 1676 732 1676 732 1685 779 c 4,113,114
 1695 828 1695 828 1746 818 c 4,115,116
 1818 803 1818 803 1854 788 c 4,117,118
 1857 787 1857 787 1890 752 c 5,106,107
1299 136 m 5,119,120
 1261 97 1261 97 1257 96 c 4,121,122
 1214 75 1214 75 1198 118 c 4,123,124
 1176 178 1176 178 1164 246 c 4,125,126
 1157 285 1157 285 1202 297 c 4,127,128
 1246 308 1246 308 1260 270 c 4,129,130
 1264 258 1264 258 1299 136 c 5,119,120
510 1424 m 5,131,132
 481 1433 481 1433 479 1434 c 4,133,134
 403 1506 403 1506 383 1529 c 4,135,136
 357 1560 357 1560 393 1593 c 4,137,138
 427 1623 427 1623 457 1597 c 4,139,140
 511 1550 511 1550 545 1507 c 4,141,142
 561 1487 561 1487 547 1455 c 4,143,144
 546 1452 546 1452 510 1424 c 5,131,132
1539 493 m 5,145,146
 1573 480 1573 480 1574 479 c 4,147,148
 1638 419 1638 419 1663 390 c 4,149,150
 1689 359 1689 359 1657 326 c 4,151,152
 1623 292 1623 292 1591 320 c 4,153,154
 1539 365 1539 365 1502 409 c 4,155,156
 1486 429 1486 429 1501 461 c 4,157,158
 1502 464 1502 464 1539 493 c 5,145,146
EndSplineSet
Validated: 33
EndChar

StartChar: uniE1AF
Encoding: 57775 57775 93
Width: 2048
LayerCount: 3
Fore
SplineSet
661 1392 m 1,0,1
 630 1353 630 1353 629 1351 c 0,2,3
 546 1222 546 1222 538 1204 c 0,4,5
 470 1060 470 1060 545 978 c 0,6,7
 581 938 581 938 659.5 928.5 c 128,-1,8
 738 919 738 919 798 946 c 0,9,10
 847 968 847 968 861 983 c 0,11,12
 897 1027 897 1027 1037 1087 c 0,13,14
 1060 1097 1060 1097 1082 1078 c 0,15,16
 1432 794 1432 794 1574 674 c 0,17,18
 1623 632 1623 632 1701 528 c 0,19,20
 1747 467 1747 467 1693 425 c 0,21,22
 1651 392 1651 392 1598 446 c 0,23,24
 1561 484 1561 484 1342 703 c 0,25,26
 1268 777 1268 777 1228 740 c 0,27,28
 1187 701 1187 701 1262 626 c 0,29,30
 1303 585 1303 585 1349.5 538.5 c 128,-1,31
 1396 492 1396 492 1452 436 c 128,-1,32
 1508 380 1508 380 1540 349 c 1,33,34
 1461 248 1461 248 1376 332 c 0,35,36
 1193 515 1193 515 1141 567 c 0,37,38
 1087 622 1087 622 1047 580 c 0,39,40
 1010 541 1010 541 1062 489 c 0,41,42
 1078 473 1078 473 1152.5 398.5 c 128,-1,43
 1227 324 1227 324 1268 285 c 0,44,45
 1319 237 1319 237 1280 198 c 0,46,47
 1228 146 1228 146 1176 196 c 0,48,49
 1161 211 1161 211 997 374 c 0,50,51
 968 403 968 403 967 404 c 0,52,53
 920 453 920 453 880 414 c 0,54,55
 839 374 839 374 888 327 c 0,56,57
 908 307 908 307 1060 159 c 1,58,59
 961 150 961 150 901 196 c 0,60,61
 858 230 858 230 294 682 c 0,62,63
 260 709 260 709 276 765 c 0,64,65
 359 1061 359 1061 431 1349 c 0,66,67
 443 1395 443 1395 486 1393 c 0,68,69
 499 1392 499 1392 661 1392 c 1,0,1
2372 1052 m 0,70,71
 2372 621 2372 621 2372 569 c 0,72,73
 2372 525 2372 525 2356.5 509 c 128,-1,74
 2341 493 2341 493 2297 493 c 0,75,76
 2257 493 2257 493 2152.5 493 c 128,-1,77
 2048 493 2048 493 2008 492 c 0,78,79
 1940 491 1940 491 1915 564 c 0,80,81
 1845 764 1845 764 1637 1339 c 0,82,83
 1630 1359 1630 1359 1604 1411 c 0,84,85
 1563 1491 1563 1491 1646 1511 c 0,86,87
 1882 1568 1882 1568 2087 1604 c 0,88,89
 2129 1611 2129 1611 2296 1615 c 0,90,91
 2340 1616 2340 1616 2355.5 1600.5 c 128,-1,92
 2371 1585 2371 1585 2372 1541 c 0,93,94
 2372 1469 2372 1469 2372 1387.5 c 128,-1,95
 2372 1306 2372 1306 2372 1206 c 128,-1,96
 2372 1106 2372 1106 2372 1052 c 0,70,71
-323 1168 m 0,97,98
 -323 1588 -323 1588 -323 1641 c 0,99,100
 -323 1696 -323 1696 -304 1713.5 c 128,-1,101
 -285 1731 -285 1731 -232 1724 c 0,102,103
 116 1680 116 1680 184 1667 c 0,104,105
 307 1642 307 1642 334.5 1600 c 128,-1,106
 362 1558 362 1558 333 1436 c 0,107,108
 273 1184 273 1184 127 654 c 0,109,110
 123 639 123 639 104 623.5 c 128,-1,111
 85 608 85 608 69 607 c 0,112,113
 -15 603 -15 603 -262 605 c 0,114,115
 -324 605 -324 605 -323 679 c 0,116,117
 -323 740 -323 740 -323 1168 c 0,97,98
1792 645 m 1,118,119
 1256 1105 1256 1105 1165 1185 c 0,120,121
 1103 1239 1103 1239 1031 1208 c 0,122,123
 1011 1199 1011 1199 967.5 1186 c 128,-1,124
 924 1173 924 1173 903 1163 c 0,125,126
 879 1152 879 1152 846 1113 c 0,127,128
 770 1025 770 1025 682 1045 c 0,129,130
 609 1061 609 1061 637 1125 c 0,131,132
 684 1230 684 1230 719 1269 c 0,133,134
 786 1346 786 1346 899 1437 c 0,135,136
 1008 1525 1008 1525 1148 1476.5 c 128,-1,137
 1288 1428 1288 1428 1511 1340 c 0,138,139
 1534 1331 1534 1331 1545 1303 c 0,140,141
 1626 1089 1626 1089 1792 645 c 1,118,119
EndSplineSet
Validated: 33
EndChar

StartChar: uniE202
Encoding: 57858 57858 94
Width: 2048
HStem: 385 83<229.892 460 1588 1817.62> 578 82<487.892 594 1454 1560.11> 908 82<303 458 575 838.113 1209.89 1473 1590 1745> 1237 83<487.376 594 1454 1560.11> 1430 83<229.892 460 1588 1818.11>
VStem: 460 83<154.892 385 1513 1742.62> 653 83<412.376 519 1379 1485.11> 983 82<227 383 500 763.113 1134.89 1398 1515 1670> 1312 83<412.892 519 1379 1485.11> 1505 83<154.892 385 1513 1742.62>
LayerCount: 3
Fore
SplineSet
1821 949 m 5,0,-1
 1964 806 l 6,1,2
 1976 794 1976 794 1976 777 c 132,-1,3
 1976 760 1976 760 1963.5 748 c 132,-1,4
 1951 736 1951 736 1934 736 c 132,-1,5
 1917 736 1917 736 1905 748 c 6,6,-1
 1745 908 l 5,7,-1
 1590 908 l 5,8,-1
 1645 853 l 6,9,10
 1657 841 1657 841 1657 823.5 c 132,-1,11
 1657 806 1657 806 1645 794 c 132,-1,12
 1633 782 1633 782 1616 782 c 132,-1,13
 1599 782 1599 782 1587 794 c 6,14,-1
 1473 908 l 5,15,-1
 1223 908 l 5,16,17
 1215 871 1215 871 1194 838 c 5,18,-1
 1371 660 l 5,19,-1
 1531 660 l 6,20,21
 1548 660 1548 660 1560.5 648 c 132,-1,22
 1573 636 1573 636 1573 619 c 132,-1,23
 1573 602 1573 602 1561 590 c 132,-1,24
 1549 578 1549 578 1531 578 c 6,25,-1
 1454 578 l 5,26,-1
 1563 468 l 5,27,-1
 1789 468 l 6,28,29
 1806 468 1806 468 1818 456 c 132,-1,30
 1830 444 1830 444 1830 427 c 132,-1,31
 1830 410 1830 410 1818 397.5 c 132,-1,32
 1806 385 1806 385 1789 385 c 6,33,-1
 1588 385 l 5,34,-1
 1588 184 l 6,35,36
 1588 167 1588 167 1575.5 154.5 c 132,-1,37
 1563 142 1563 142 1546 142 c 132,-1,38
 1529 142 1529 142 1517 154.5 c 132,-1,39
 1505 167 1505 167 1505 184 c 6,40,-1
 1505 410 l 5,41,-1
 1395 519 l 5,42,-1
 1395 442 l 6,43,44
 1395 425 1395 425 1383 412.5 c 132,-1,45
 1371 400 1371 400 1354 400 c 132,-1,46
 1337 400 1337 400 1324.5 412 c 132,-1,47
 1312 424 1312 424 1312 442 c 6,48,-1
 1312 602 l 5,49,-1
 1135 779 l 5,50,51
 1103 758 1103 758 1065 750 c 5,52,-1
 1065 500 l 5,53,-1
 1179 386 l 6,54,55
 1191 374 1191 374 1191 357 c 132,-1,56
 1191 340 1191 340 1179 328 c 132,-1,57
 1167 316 1167 316 1149.5 316 c 132,-1,58
 1132 316 1132 316 1120 328 c 6,59,-1
 1065 383 l 5,60,-1
 1065 227 l 5,61,-1
 1225 68 l 6,62,63
 1237 56 1237 56 1237 38.5 c 132,-1,64
 1237 21 1237 21 1225 9 c 132,-1,65
 1213 -3 1213 -3 1196 -3 c 132,-1,66
 1179 -3 1179 -3 1167 9 c 6,67,-1
 1024 152 l 5,68,-1
 881 9 l 6,69,70
 869 -3 869 -3 852 -3 c 132,-1,71
 835 -3 835 -3 823 9 c 132,-1,72
 811 21 811 21 811 38.5 c 132,-1,73
 811 56 811 56 823 68 c 6,74,-1
 983 227 l 5,75,-1
 983 383 l 5,76,-1
 928 328 l 6,77,78
 916 316 916 316 898.5 316 c 132,-1,79
 881 316 881 316 869 328 c 132,-1,80
 857 340 857 340 857 357 c 132,-1,81
 857 374 857 374 869 386 c 6,82,-1
 983 500 l 5,83,-1
 983 750 l 5,84,85
 946 758 946 758 913 779 c 5,86,-1
 736 602 l 5,87,-1
 736 442 l 6,88,89
 736 425 736 425 723.5 412.5 c 132,-1,90
 711 400 711 400 694 400 c 132,-1,91
 677 400 677 400 665 412 c 132,-1,92
 653 424 653 424 653 442 c 6,93,-1
 653 519 l 5,94,-1
 543 410 l 5,95,-1
 543 184 l 6,96,97
 543 167 543 167 531 154.5 c 132,-1,98
 519 142 519 142 502 142 c 132,-1,99
 485 142 485 142 472.5 154.5 c 132,-1,100
 460 167 460 167 460 184 c 6,101,-1
 460 385 l 5,102,-1
 259 385 l 6,103,104
 242 385 242 385 229.5 397.5 c 132,-1,105
 217 410 217 410 217 427 c 132,-1,106
 217 444 217 444 229.5 456 c 132,-1,107
 242 468 242 468 259 468 c 6,108,-1
 485 468 l 5,109,-1
 594 578 l 5,110,-1
 517 578 l 6,111,112
 500 578 500 578 487.5 590 c 132,-1,113
 475 602 475 602 475 619 c 132,-1,114
 475 636 475 636 487 648 c 132,-1,115
 499 660 499 660 517 660 c 6,116,-1
 677 660 l 5,117,-1
 854 838 l 5,118,119
 833 870 833 870 825 908 c 5,120,-1
 575 908 l 5,121,-1
 461 794 l 6,122,123
 449 782 449 782 432 782 c 132,-1,124
 415 782 415 782 403 794 c 132,-1,125
 391 806 391 806 391 823.5 c 132,-1,126
 391 841 391 841 403 853 c 6,127,-1
 458 908 l 5,128,-1
 303 908 l 5,129,-1
 143 748 l 6,130,131
 131 736 131 736 114 736 c 132,-1,132
 97 736 97 736 84.5 748 c 132,-1,133
 72 760 72 760 72 777 c 132,-1,134
 72 794 72 794 84 806 c 6,135,-1
 227 949 l 5,136,-1
 84 1091 l 6,137,138
 72 1103 72 1103 72 1120.5 c 132,-1,139
 72 1138 72 1138 84.5 1150 c 132,-1,140
 97 1162 97 1162 114 1162 c 132,-1,141
 131 1162 131 1162 143 1150 c 6,142,-1
 303 990 l 5,143,-1
 458 990 l 5,144,-1
 403 1045 l 6,145,146
 391 1057 391 1057 391 1074.5 c 132,-1,147
 391 1092 391 1092 403 1104 c 132,-1,148
 415 1116 415 1116 432 1116 c 132,-1,149
 449 1116 449 1116 461 1104 c 6,150,-1
 575 990 l 5,151,-1
 825 990 l 5,152,153
 833 1027 833 1027 854 1060 c 5,154,-1
 677 1237 l 5,155,-1
 517 1237 l 6,156,157
 500 1237 500 1237 487.5 1249.5 c 132,-1,158
 475 1262 475 1262 475 1279 c 132,-1,159
 475 1296 475 1296 487 1308 c 132,-1,160
 499 1320 499 1320 517 1320 c 6,161,-1
 594 1320 l 5,162,-1
 485 1430 l 5,163,-1
 259 1430 l 6,164,165
 242 1430 242 1430 229.5 1442 c 132,-1,166
 217 1454 217 1454 217 1471 c 132,-1,167
 217 1488 217 1488 229.5 1500.5 c 132,-1,168
 242 1513 242 1513 259 1513 c 6,169,-1
 460 1513 l 5,170,-1
 460 1714 l 6,171,172
 460 1731 460 1731 472.5 1743 c 132,-1,173
 485 1755 485 1755 502 1755 c 132,-1,174
 519 1755 519 1755 531 1743 c 132,-1,175
 543 1731 543 1731 543 1714 c 6,176,-1
 543 1488 l 5,177,-1
 653 1379 l 5,178,-1
 653 1456 l 6,179,180
 653 1473 653 1473 665 1485.5 c 132,-1,181
 677 1498 677 1498 694 1498 c 132,-1,182
 711 1498 711 1498 723.5 1485.5 c 132,-1,183
 736 1473 736 1473 736 1456 c 6,184,-1
 736 1296 l 5,185,-1
 913 1119 l 5,186,187
 945 1140 945 1140 983 1148 c 5,188,-1
 983 1398 l 5,189,-1
 869 1512 l 6,190,191
 857 1524 857 1524 857 1541 c 132,-1,192
 857 1558 857 1558 869 1570 c 132,-1,193
 881 1582 881 1582 898.5 1582 c 132,-1,194
 916 1582 916 1582 928 1570 c 6,195,-1
 983 1515 l 5,196,-1
 983 1670 l 5,197,-1
 823 1830 l 6,198,199
 811 1842 811 1842 811 1859 c 132,-1,200
 811 1876 811 1876 823 1888.5 c 132,-1,201
 835 1901 835 1901 852 1901 c 132,-1,202
 869 1901 869 1901 881 1889 c 6,203,-1
 1024 1746 l 5,204,-1
 1167 1889 l 6,205,206
 1179 1901 1179 1901 1196 1901 c 132,-1,207
 1213 1901 1213 1901 1225 1888.5 c 132,-1,208
 1237 1876 1237 1876 1237 1859 c 132,-1,209
 1237 1842 1237 1842 1225 1830 c 6,210,-1
 1065 1670 l 5,211,-1
 1065 1515 l 5,212,-1
 1120 1570 l 6,213,214
 1132 1582 1132 1582 1149.5 1582 c 132,-1,215
 1167 1582 1167 1582 1179 1570 c 132,-1,216
 1191 1558 1191 1558 1191 1541 c 132,-1,217
 1191 1524 1191 1524 1179 1512 c 6,218,-1
 1065 1398 l 5,219,-1
 1065 1148 l 5,220,221
 1102 1140 1102 1140 1135 1119 c 5,222,-1
 1312 1296 l 5,223,-1
 1312 1456 l 6,224,225
 1312 1473 1312 1473 1324.5 1485.5 c 132,-1,226
 1337 1498 1337 1498 1354 1498 c 132,-1,227
 1371 1498 1371 1498 1383 1485.5 c 132,-1,228
 1395 1473 1395 1473 1395 1456 c 6,229,-1
 1395 1379 l 5,230,-1
 1505 1488 l 5,231,-1
 1505 1714 l 6,232,233
 1505 1731 1505 1731 1517 1743 c 132,-1,234
 1529 1755 1529 1755 1546 1755 c 132,-1,235
 1563 1755 1563 1755 1575.5 1743 c 132,-1,236
 1588 1731 1588 1731 1588 1714 c 6,237,-1
 1588 1513 l 5,238,-1
 1789 1513 l 6,239,240
 1806 1513 1806 1513 1818.5 1500.5 c 132,-1,241
 1831 1488 1831 1488 1831 1471 c 132,-1,242
 1831 1454 1831 1454 1818.5 1442 c 132,-1,243
 1806 1430 1806 1430 1789 1430 c 6,244,-1
 1563 1430 l 5,245,-1
 1454 1320 l 5,246,-1
 1531 1320 l 6,247,248
 1548 1320 1548 1320 1560.5 1308 c 132,-1,249
 1573 1296 1573 1296 1573 1279 c 132,-1,250
 1573 1262 1573 1262 1561 1249.5 c 132,-1,251
 1549 1237 1549 1237 1531 1237 c 6,252,-1
 1371 1237 l 5,253,-1
 1194 1060 l 5,254,255
 1215 1028 1215 1028 1223 990 c 5,256,-1
 1473 990 l 5,257,-1
 1587 1104 l 6,258,259
 1599 1116 1599 1116 1616 1116 c 132,-1,260
 1633 1116 1633 1116 1645 1104 c 132,-1,261
 1657 1092 1657 1092 1657 1074.5 c 132,-1,262
 1657 1057 1657 1057 1645 1045 c 6,263,-1
 1590 990 l 5,264,-1
 1745 990 l 5,265,-1
 1905 1150 l 6,266,267
 1917 1162 1917 1162 1934 1162 c 132,-1,268
 1951 1162 1951 1162 1963.5 1150 c 132,-1,269
 1976 1138 1976 1138 1976 1121 c 132,-1,270
 1976 1104 1976 1104 1964 1091 c 6,271,-1
 1821 949 l 5,0,-1
1024 829 m 132,-1,273
 1074 829 1074 829 1109 864 c 132,-1,274
 1144 899 1144 899 1144 949 c 132,-1,275
 1144 999 1144 999 1109 1034 c 132,-1,276
 1074 1069 1074 1069 1024 1069 c 132,-1,277
 974 1069 974 1069 939 1034 c 132,-1,278
 904 999 904 999 904 949 c 132,-1,279
 904 899 904 899 939 864 c 132,-1,272
 974 829 974 829 1024 829 c 132,-1,273
EndSplineSet
Validated: 1
EndChar

